%TF.GenerationSoftware,KiCad,Pcbnew,9.0.2*%
%TF.CreationDate,2025-08-19T18:25:56-04:00*%
%TF.ProjectId,GymDevice,47796d44-6576-4696-9365-2e6b69636164,rev?*%
%TF.SameCoordinates,Original*%
%TF.FileFunction,Legend,Top*%
%TF.FilePolarity,Positive*%
%FSLAX46Y46*%
G04 Gerber Fmt 4.6, Leading zero omitted, Abs format (unit mm)*
G04 Created by KiCad (PCBNEW 9.0.2) date 2025-08-19 18:25:56*
%MOMM*%
%LPD*%
G01*
G04 APERTURE LIST*
%ADD10C,0.200000*%
%ADD11C,0.150000*%
%ADD12C,0.120000*%
G04 APERTURE END LIST*
D10*
X74430400Y-29822054D02*
X74382780Y-29964911D01*
X74382780Y-29964911D02*
X74382780Y-30203006D01*
X74382780Y-30203006D02*
X74430400Y-30298244D01*
X74430400Y-30298244D02*
X74478019Y-30345863D01*
X74478019Y-30345863D02*
X74573257Y-30393482D01*
X74573257Y-30393482D02*
X74668495Y-30393482D01*
X74668495Y-30393482D02*
X74763733Y-30345863D01*
X74763733Y-30345863D02*
X74811352Y-30298244D01*
X74811352Y-30298244D02*
X74858971Y-30203006D01*
X74858971Y-30203006D02*
X74906590Y-30012530D01*
X74906590Y-30012530D02*
X74954209Y-29917292D01*
X74954209Y-29917292D02*
X75001828Y-29869673D01*
X75001828Y-29869673D02*
X75097066Y-29822054D01*
X75097066Y-29822054D02*
X75192304Y-29822054D01*
X75192304Y-29822054D02*
X75287542Y-29869673D01*
X75287542Y-29869673D02*
X75335161Y-29917292D01*
X75335161Y-29917292D02*
X75382780Y-30012530D01*
X75382780Y-30012530D02*
X75382780Y-30250625D01*
X75382780Y-30250625D02*
X75335161Y-30393482D01*
X75382780Y-30726816D02*
X74382780Y-30964911D01*
X74382780Y-30964911D02*
X75097066Y-31155387D01*
X75097066Y-31155387D02*
X74382780Y-31345863D01*
X74382780Y-31345863D02*
X75382780Y-31583959D01*
X74382780Y-31964911D02*
X75382780Y-31964911D01*
X75382780Y-31964911D02*
X75382780Y-32203006D01*
X75382780Y-32203006D02*
X75335161Y-32345863D01*
X75335161Y-32345863D02*
X75239923Y-32441101D01*
X75239923Y-32441101D02*
X75144685Y-32488720D01*
X75144685Y-32488720D02*
X74954209Y-32536339D01*
X74954209Y-32536339D02*
X74811352Y-32536339D01*
X74811352Y-32536339D02*
X74620876Y-32488720D01*
X74620876Y-32488720D02*
X74525638Y-32441101D01*
X74525638Y-32441101D02*
X74430400Y-32345863D01*
X74430400Y-32345863D02*
X74382780Y-32203006D01*
X74382780Y-32203006D02*
X74382780Y-31964911D01*
X74382780Y-32964911D02*
X75382780Y-32964911D01*
X75382780Y-33631577D02*
X75382780Y-33822053D01*
X75382780Y-33822053D02*
X75335161Y-33917291D01*
X75335161Y-33917291D02*
X75239923Y-34012529D01*
X75239923Y-34012529D02*
X75049447Y-34060148D01*
X75049447Y-34060148D02*
X74716114Y-34060148D01*
X74716114Y-34060148D02*
X74525638Y-34012529D01*
X74525638Y-34012529D02*
X74430400Y-33917291D01*
X74430400Y-33917291D02*
X74382780Y-33822053D01*
X74382780Y-33822053D02*
X74382780Y-33631577D01*
X74382780Y-33631577D02*
X74430400Y-33536339D01*
X74430400Y-33536339D02*
X74525638Y-33441101D01*
X74525638Y-33441101D02*
X74716114Y-33393482D01*
X74716114Y-33393482D02*
X75049447Y-33393482D01*
X75049447Y-33393482D02*
X75239923Y-33441101D01*
X75239923Y-33441101D02*
X75335161Y-33536339D01*
X75335161Y-33536339D02*
X75382780Y-33631577D01*
X81047054Y-43319600D02*
X81189911Y-43367219D01*
X81189911Y-43367219D02*
X81428006Y-43367219D01*
X81428006Y-43367219D02*
X81523244Y-43319600D01*
X81523244Y-43319600D02*
X81570863Y-43271980D01*
X81570863Y-43271980D02*
X81618482Y-43176742D01*
X81618482Y-43176742D02*
X81618482Y-43081504D01*
X81618482Y-43081504D02*
X81570863Y-42986266D01*
X81570863Y-42986266D02*
X81523244Y-42938647D01*
X81523244Y-42938647D02*
X81428006Y-42891028D01*
X81428006Y-42891028D02*
X81237530Y-42843409D01*
X81237530Y-42843409D02*
X81142292Y-42795790D01*
X81142292Y-42795790D02*
X81094673Y-42748171D01*
X81094673Y-42748171D02*
X81047054Y-42652933D01*
X81047054Y-42652933D02*
X81047054Y-42557695D01*
X81047054Y-42557695D02*
X81094673Y-42462457D01*
X81094673Y-42462457D02*
X81142292Y-42414838D01*
X81142292Y-42414838D02*
X81237530Y-42367219D01*
X81237530Y-42367219D02*
X81475625Y-42367219D01*
X81475625Y-42367219D02*
X81618482Y-42414838D01*
X82618482Y-43271980D02*
X82570863Y-43319600D01*
X82570863Y-43319600D02*
X82428006Y-43367219D01*
X82428006Y-43367219D02*
X82332768Y-43367219D01*
X82332768Y-43367219D02*
X82189911Y-43319600D01*
X82189911Y-43319600D02*
X82094673Y-43224361D01*
X82094673Y-43224361D02*
X82047054Y-43129123D01*
X82047054Y-43129123D02*
X81999435Y-42938647D01*
X81999435Y-42938647D02*
X81999435Y-42795790D01*
X81999435Y-42795790D02*
X82047054Y-42605314D01*
X82047054Y-42605314D02*
X82094673Y-42510076D01*
X82094673Y-42510076D02*
X82189911Y-42414838D01*
X82189911Y-42414838D02*
X82332768Y-42367219D01*
X82332768Y-42367219D02*
X82428006Y-42367219D01*
X82428006Y-42367219D02*
X82570863Y-42414838D01*
X82570863Y-42414838D02*
X82618482Y-42462457D01*
X83523244Y-43367219D02*
X83047054Y-43367219D01*
X83047054Y-43367219D02*
X83047054Y-42367219D01*
X81618482Y-47414838D02*
X81523244Y-47367219D01*
X81523244Y-47367219D02*
X81380387Y-47367219D01*
X81380387Y-47367219D02*
X81237530Y-47414838D01*
X81237530Y-47414838D02*
X81142292Y-47510076D01*
X81142292Y-47510076D02*
X81094673Y-47605314D01*
X81094673Y-47605314D02*
X81047054Y-47795790D01*
X81047054Y-47795790D02*
X81047054Y-47938647D01*
X81047054Y-47938647D02*
X81094673Y-48129123D01*
X81094673Y-48129123D02*
X81142292Y-48224361D01*
X81142292Y-48224361D02*
X81237530Y-48319600D01*
X81237530Y-48319600D02*
X81380387Y-48367219D01*
X81380387Y-48367219D02*
X81475625Y-48367219D01*
X81475625Y-48367219D02*
X81618482Y-48319600D01*
X81618482Y-48319600D02*
X81666101Y-48271980D01*
X81666101Y-48271980D02*
X81666101Y-47938647D01*
X81666101Y-47938647D02*
X81475625Y-47938647D01*
X82094673Y-48367219D02*
X82094673Y-47367219D01*
X82094673Y-47367219D02*
X82666101Y-48367219D01*
X82666101Y-48367219D02*
X82666101Y-47367219D01*
X83142292Y-48367219D02*
X83142292Y-47367219D01*
X83142292Y-47367219D02*
X83380387Y-47367219D01*
X83380387Y-47367219D02*
X83523244Y-47414838D01*
X83523244Y-47414838D02*
X83618482Y-47510076D01*
X83618482Y-47510076D02*
X83666101Y-47605314D01*
X83666101Y-47605314D02*
X83713720Y-47795790D01*
X83713720Y-47795790D02*
X83713720Y-47938647D01*
X83713720Y-47938647D02*
X83666101Y-48129123D01*
X83666101Y-48129123D02*
X83618482Y-48224361D01*
X83618482Y-48224361D02*
X83523244Y-48319600D01*
X83523244Y-48319600D02*
X83380387Y-48367219D01*
X83380387Y-48367219D02*
X83142292Y-48367219D01*
X69569600Y-54927945D02*
X69617219Y-54785088D01*
X69617219Y-54785088D02*
X69617219Y-54546993D01*
X69617219Y-54546993D02*
X69569600Y-54451755D01*
X69569600Y-54451755D02*
X69521980Y-54404136D01*
X69521980Y-54404136D02*
X69426742Y-54356517D01*
X69426742Y-54356517D02*
X69331504Y-54356517D01*
X69331504Y-54356517D02*
X69236266Y-54404136D01*
X69236266Y-54404136D02*
X69188647Y-54451755D01*
X69188647Y-54451755D02*
X69141028Y-54546993D01*
X69141028Y-54546993D02*
X69093409Y-54737469D01*
X69093409Y-54737469D02*
X69045790Y-54832707D01*
X69045790Y-54832707D02*
X68998171Y-54880326D01*
X68998171Y-54880326D02*
X68902933Y-54927945D01*
X68902933Y-54927945D02*
X68807695Y-54927945D01*
X68807695Y-54927945D02*
X68712457Y-54880326D01*
X68712457Y-54880326D02*
X68664838Y-54832707D01*
X68664838Y-54832707D02*
X68617219Y-54737469D01*
X68617219Y-54737469D02*
X68617219Y-54499374D01*
X68617219Y-54499374D02*
X68664838Y-54356517D01*
X69521980Y-53356517D02*
X69569600Y-53404136D01*
X69569600Y-53404136D02*
X69617219Y-53546993D01*
X69617219Y-53546993D02*
X69617219Y-53642231D01*
X69617219Y-53642231D02*
X69569600Y-53785088D01*
X69569600Y-53785088D02*
X69474361Y-53880326D01*
X69474361Y-53880326D02*
X69379123Y-53927945D01*
X69379123Y-53927945D02*
X69188647Y-53975564D01*
X69188647Y-53975564D02*
X69045790Y-53975564D01*
X69045790Y-53975564D02*
X68855314Y-53927945D01*
X68855314Y-53927945D02*
X68760076Y-53880326D01*
X68760076Y-53880326D02*
X68664838Y-53785088D01*
X68664838Y-53785088D02*
X68617219Y-53642231D01*
X68617219Y-53642231D02*
X68617219Y-53546993D01*
X68617219Y-53546993D02*
X68664838Y-53404136D01*
X68664838Y-53404136D02*
X68712457Y-53356517D01*
X69617219Y-52451755D02*
X69617219Y-52927945D01*
X69617219Y-52927945D02*
X68617219Y-52927945D01*
X71680400Y-29822054D02*
X71632780Y-29964911D01*
X71632780Y-29964911D02*
X71632780Y-30203006D01*
X71632780Y-30203006D02*
X71680400Y-30298244D01*
X71680400Y-30298244D02*
X71728019Y-30345863D01*
X71728019Y-30345863D02*
X71823257Y-30393482D01*
X71823257Y-30393482D02*
X71918495Y-30393482D01*
X71918495Y-30393482D02*
X72013733Y-30345863D01*
X72013733Y-30345863D02*
X72061352Y-30298244D01*
X72061352Y-30298244D02*
X72108971Y-30203006D01*
X72108971Y-30203006D02*
X72156590Y-30012530D01*
X72156590Y-30012530D02*
X72204209Y-29917292D01*
X72204209Y-29917292D02*
X72251828Y-29869673D01*
X72251828Y-29869673D02*
X72347066Y-29822054D01*
X72347066Y-29822054D02*
X72442304Y-29822054D01*
X72442304Y-29822054D02*
X72537542Y-29869673D01*
X72537542Y-29869673D02*
X72585161Y-29917292D01*
X72585161Y-29917292D02*
X72632780Y-30012530D01*
X72632780Y-30012530D02*
X72632780Y-30250625D01*
X72632780Y-30250625D02*
X72585161Y-30393482D01*
X72632780Y-30726816D02*
X71632780Y-30964911D01*
X71632780Y-30964911D02*
X72347066Y-31155387D01*
X72347066Y-31155387D02*
X71632780Y-31345863D01*
X71632780Y-31345863D02*
X72632780Y-31583959D01*
X71728019Y-32536339D02*
X71680400Y-32488720D01*
X71680400Y-32488720D02*
X71632780Y-32345863D01*
X71632780Y-32345863D02*
X71632780Y-32250625D01*
X71632780Y-32250625D02*
X71680400Y-32107768D01*
X71680400Y-32107768D02*
X71775638Y-32012530D01*
X71775638Y-32012530D02*
X71870876Y-31964911D01*
X71870876Y-31964911D02*
X72061352Y-31917292D01*
X72061352Y-31917292D02*
X72204209Y-31917292D01*
X72204209Y-31917292D02*
X72394685Y-31964911D01*
X72394685Y-31964911D02*
X72489923Y-32012530D01*
X72489923Y-32012530D02*
X72585161Y-32107768D01*
X72585161Y-32107768D02*
X72632780Y-32250625D01*
X72632780Y-32250625D02*
X72632780Y-32345863D01*
X72632780Y-32345863D02*
X72585161Y-32488720D01*
X72585161Y-32488720D02*
X72537542Y-32536339D01*
X71632780Y-33441101D02*
X71632780Y-32964911D01*
X71632780Y-32964911D02*
X72632780Y-32964911D01*
X71632780Y-33774435D02*
X72632780Y-33774435D01*
X71632780Y-34345863D02*
X72204209Y-33917292D01*
X72632780Y-34345863D02*
X72061352Y-33774435D01*
X74867219Y-54725564D02*
X74867219Y-54106517D01*
X74867219Y-54106517D02*
X75248171Y-54439850D01*
X75248171Y-54439850D02*
X75248171Y-54296993D01*
X75248171Y-54296993D02*
X75295790Y-54201755D01*
X75295790Y-54201755D02*
X75343409Y-54154136D01*
X75343409Y-54154136D02*
X75438647Y-54106517D01*
X75438647Y-54106517D02*
X75676742Y-54106517D01*
X75676742Y-54106517D02*
X75771980Y-54154136D01*
X75771980Y-54154136D02*
X75819600Y-54201755D01*
X75819600Y-54201755D02*
X75867219Y-54296993D01*
X75867219Y-54296993D02*
X75867219Y-54582707D01*
X75867219Y-54582707D02*
X75819600Y-54677945D01*
X75819600Y-54677945D02*
X75771980Y-54725564D01*
X74867219Y-53820802D02*
X75867219Y-53487469D01*
X75867219Y-53487469D02*
X74867219Y-53154136D01*
X74867219Y-52916040D02*
X74867219Y-52296993D01*
X74867219Y-52296993D02*
X75248171Y-52630326D01*
X75248171Y-52630326D02*
X75248171Y-52487469D01*
X75248171Y-52487469D02*
X75295790Y-52392231D01*
X75295790Y-52392231D02*
X75343409Y-52344612D01*
X75343409Y-52344612D02*
X75438647Y-52296993D01*
X75438647Y-52296993D02*
X75676742Y-52296993D01*
X75676742Y-52296993D02*
X75771980Y-52344612D01*
X75771980Y-52344612D02*
X75819600Y-52392231D01*
X75819600Y-52392231D02*
X75867219Y-52487469D01*
X75867219Y-52487469D02*
X75867219Y-52773183D01*
X75867219Y-52773183D02*
X75819600Y-52868421D01*
X75819600Y-52868421D02*
X75771980Y-52916040D01*
X67069600Y-54927945D02*
X67117219Y-54785088D01*
X67117219Y-54785088D02*
X67117219Y-54546993D01*
X67117219Y-54546993D02*
X67069600Y-54451755D01*
X67069600Y-54451755D02*
X67021980Y-54404136D01*
X67021980Y-54404136D02*
X66926742Y-54356517D01*
X66926742Y-54356517D02*
X66831504Y-54356517D01*
X66831504Y-54356517D02*
X66736266Y-54404136D01*
X66736266Y-54404136D02*
X66688647Y-54451755D01*
X66688647Y-54451755D02*
X66641028Y-54546993D01*
X66641028Y-54546993D02*
X66593409Y-54737469D01*
X66593409Y-54737469D02*
X66545790Y-54832707D01*
X66545790Y-54832707D02*
X66498171Y-54880326D01*
X66498171Y-54880326D02*
X66402933Y-54927945D01*
X66402933Y-54927945D02*
X66307695Y-54927945D01*
X66307695Y-54927945D02*
X66212457Y-54880326D01*
X66212457Y-54880326D02*
X66164838Y-54832707D01*
X66164838Y-54832707D02*
X66117219Y-54737469D01*
X66117219Y-54737469D02*
X66117219Y-54499374D01*
X66117219Y-54499374D02*
X66164838Y-54356517D01*
X67117219Y-53927945D02*
X66117219Y-53927945D01*
X66117219Y-53927945D02*
X66117219Y-53689850D01*
X66117219Y-53689850D02*
X66164838Y-53546993D01*
X66164838Y-53546993D02*
X66260076Y-53451755D01*
X66260076Y-53451755D02*
X66355314Y-53404136D01*
X66355314Y-53404136D02*
X66545790Y-53356517D01*
X66545790Y-53356517D02*
X66688647Y-53356517D01*
X66688647Y-53356517D02*
X66879123Y-53404136D01*
X66879123Y-53404136D02*
X66974361Y-53451755D01*
X66974361Y-53451755D02*
X67069600Y-53546993D01*
X67069600Y-53546993D02*
X67117219Y-53689850D01*
X67117219Y-53689850D02*
X67117219Y-53927945D01*
X66831504Y-52975564D02*
X66831504Y-52499374D01*
X67117219Y-53070802D02*
X66117219Y-52737469D01*
X66117219Y-52737469D02*
X67117219Y-52404136D01*
X81047054Y-40569600D02*
X81189911Y-40617219D01*
X81189911Y-40617219D02*
X81428006Y-40617219D01*
X81428006Y-40617219D02*
X81523244Y-40569600D01*
X81523244Y-40569600D02*
X81570863Y-40521980D01*
X81570863Y-40521980D02*
X81618482Y-40426742D01*
X81618482Y-40426742D02*
X81618482Y-40331504D01*
X81618482Y-40331504D02*
X81570863Y-40236266D01*
X81570863Y-40236266D02*
X81523244Y-40188647D01*
X81523244Y-40188647D02*
X81428006Y-40141028D01*
X81428006Y-40141028D02*
X81237530Y-40093409D01*
X81237530Y-40093409D02*
X81142292Y-40045790D01*
X81142292Y-40045790D02*
X81094673Y-39998171D01*
X81094673Y-39998171D02*
X81047054Y-39902933D01*
X81047054Y-39902933D02*
X81047054Y-39807695D01*
X81047054Y-39807695D02*
X81094673Y-39712457D01*
X81094673Y-39712457D02*
X81142292Y-39664838D01*
X81142292Y-39664838D02*
X81237530Y-39617219D01*
X81237530Y-39617219D02*
X81475625Y-39617219D01*
X81475625Y-39617219D02*
X81618482Y-39664838D01*
X82047054Y-40617219D02*
X82047054Y-39617219D01*
X82047054Y-39617219D02*
X82285149Y-39617219D01*
X82285149Y-39617219D02*
X82428006Y-39664838D01*
X82428006Y-39664838D02*
X82523244Y-39760076D01*
X82523244Y-39760076D02*
X82570863Y-39855314D01*
X82570863Y-39855314D02*
X82618482Y-40045790D01*
X82618482Y-40045790D02*
X82618482Y-40188647D01*
X82618482Y-40188647D02*
X82570863Y-40379123D01*
X82570863Y-40379123D02*
X82523244Y-40474361D01*
X82523244Y-40474361D02*
X82428006Y-40569600D01*
X82428006Y-40569600D02*
X82285149Y-40617219D01*
X82285149Y-40617219D02*
X82047054Y-40617219D01*
X82999435Y-40331504D02*
X83475625Y-40331504D01*
X82904197Y-40617219D02*
X83237530Y-39617219D01*
X83237530Y-39617219D02*
X83570863Y-40617219D01*
X77835161Y-30393482D02*
X77882780Y-30298244D01*
X77882780Y-30298244D02*
X77882780Y-30155387D01*
X77882780Y-30155387D02*
X77835161Y-30012530D01*
X77835161Y-30012530D02*
X77739923Y-29917292D01*
X77739923Y-29917292D02*
X77644685Y-29869673D01*
X77644685Y-29869673D02*
X77454209Y-29822054D01*
X77454209Y-29822054D02*
X77311352Y-29822054D01*
X77311352Y-29822054D02*
X77120876Y-29869673D01*
X77120876Y-29869673D02*
X77025638Y-29917292D01*
X77025638Y-29917292D02*
X76930400Y-30012530D01*
X76930400Y-30012530D02*
X76882780Y-30155387D01*
X76882780Y-30155387D02*
X76882780Y-30250625D01*
X76882780Y-30250625D02*
X76930400Y-30393482D01*
X76930400Y-30393482D02*
X76978019Y-30441101D01*
X76978019Y-30441101D02*
X77311352Y-30441101D01*
X77311352Y-30441101D02*
X77311352Y-30250625D01*
X76882780Y-30869673D02*
X77882780Y-30869673D01*
X77882780Y-30869673D02*
X76882780Y-31441101D01*
X76882780Y-31441101D02*
X77882780Y-31441101D01*
X76882780Y-31917292D02*
X77882780Y-31917292D01*
X77882780Y-31917292D02*
X77882780Y-32155387D01*
X77882780Y-32155387D02*
X77835161Y-32298244D01*
X77835161Y-32298244D02*
X77739923Y-32393482D01*
X77739923Y-32393482D02*
X77644685Y-32441101D01*
X77644685Y-32441101D02*
X77454209Y-32488720D01*
X77454209Y-32488720D02*
X77311352Y-32488720D01*
X77311352Y-32488720D02*
X77120876Y-32441101D01*
X77120876Y-32441101D02*
X77025638Y-32393482D01*
X77025638Y-32393482D02*
X76930400Y-32298244D01*
X76930400Y-32298244D02*
X76882780Y-32155387D01*
X76882780Y-32155387D02*
X76882780Y-31917292D01*
X80382780Y-30024435D02*
X80382780Y-30643482D01*
X80382780Y-30643482D02*
X80001828Y-30310149D01*
X80001828Y-30310149D02*
X80001828Y-30453006D01*
X80001828Y-30453006D02*
X79954209Y-30548244D01*
X79954209Y-30548244D02*
X79906590Y-30595863D01*
X79906590Y-30595863D02*
X79811352Y-30643482D01*
X79811352Y-30643482D02*
X79573257Y-30643482D01*
X79573257Y-30643482D02*
X79478019Y-30595863D01*
X79478019Y-30595863D02*
X79430400Y-30548244D01*
X79430400Y-30548244D02*
X79382780Y-30453006D01*
X79382780Y-30453006D02*
X79382780Y-30167292D01*
X79382780Y-30167292D02*
X79430400Y-30072054D01*
X79430400Y-30072054D02*
X79478019Y-30024435D01*
X80382780Y-30929197D02*
X79382780Y-31262530D01*
X79382780Y-31262530D02*
X80382780Y-31595863D01*
X80382780Y-31833959D02*
X80382780Y-32453006D01*
X80382780Y-32453006D02*
X80001828Y-32119673D01*
X80001828Y-32119673D02*
X80001828Y-32262530D01*
X80001828Y-32262530D02*
X79954209Y-32357768D01*
X79954209Y-32357768D02*
X79906590Y-32405387D01*
X79906590Y-32405387D02*
X79811352Y-32453006D01*
X79811352Y-32453006D02*
X79573257Y-32453006D01*
X79573257Y-32453006D02*
X79478019Y-32405387D01*
X79478019Y-32405387D02*
X79430400Y-32357768D01*
X79430400Y-32357768D02*
X79382780Y-32262530D01*
X79382780Y-32262530D02*
X79382780Y-31976816D01*
X79382780Y-31976816D02*
X79430400Y-31881578D01*
X79430400Y-31881578D02*
X79478019Y-31833959D01*
X69132780Y-29869673D02*
X70132780Y-29869673D01*
X70132780Y-29869673D02*
X69132780Y-30441101D01*
X69132780Y-30441101D02*
X70132780Y-30441101D01*
X69180400Y-30869673D02*
X69132780Y-31012530D01*
X69132780Y-31012530D02*
X69132780Y-31250625D01*
X69132780Y-31250625D02*
X69180400Y-31345863D01*
X69180400Y-31345863D02*
X69228019Y-31393482D01*
X69228019Y-31393482D02*
X69323257Y-31441101D01*
X69323257Y-31441101D02*
X69418495Y-31441101D01*
X69418495Y-31441101D02*
X69513733Y-31393482D01*
X69513733Y-31393482D02*
X69561352Y-31345863D01*
X69561352Y-31345863D02*
X69608971Y-31250625D01*
X69608971Y-31250625D02*
X69656590Y-31060149D01*
X69656590Y-31060149D02*
X69704209Y-30964911D01*
X69704209Y-30964911D02*
X69751828Y-30917292D01*
X69751828Y-30917292D02*
X69847066Y-30869673D01*
X69847066Y-30869673D02*
X69942304Y-30869673D01*
X69942304Y-30869673D02*
X70037542Y-30917292D01*
X70037542Y-30917292D02*
X70085161Y-30964911D01*
X70085161Y-30964911D02*
X70132780Y-31060149D01*
X70132780Y-31060149D02*
X70132780Y-31298244D01*
X70132780Y-31298244D02*
X70085161Y-31441101D01*
X69132780Y-32441101D02*
X69608971Y-32107768D01*
X69132780Y-31869673D02*
X70132780Y-31869673D01*
X70132780Y-31869673D02*
X70132780Y-32250625D01*
X70132780Y-32250625D02*
X70085161Y-32345863D01*
X70085161Y-32345863D02*
X70037542Y-32393482D01*
X70037542Y-32393482D02*
X69942304Y-32441101D01*
X69942304Y-32441101D02*
X69799447Y-32441101D01*
X69799447Y-32441101D02*
X69704209Y-32393482D01*
X69704209Y-32393482D02*
X69656590Y-32345863D01*
X69656590Y-32345863D02*
X69608971Y-32250625D01*
X69608971Y-32250625D02*
X69608971Y-31869673D01*
X70132780Y-32726816D02*
X70132780Y-33298244D01*
X69132780Y-33012530D02*
X70132780Y-33012530D01*
X80999435Y-44867219D02*
X81618482Y-44867219D01*
X81618482Y-44867219D02*
X81285149Y-45248171D01*
X81285149Y-45248171D02*
X81428006Y-45248171D01*
X81428006Y-45248171D02*
X81523244Y-45295790D01*
X81523244Y-45295790D02*
X81570863Y-45343409D01*
X81570863Y-45343409D02*
X81618482Y-45438647D01*
X81618482Y-45438647D02*
X81618482Y-45676742D01*
X81618482Y-45676742D02*
X81570863Y-45771980D01*
X81570863Y-45771980D02*
X81523244Y-45819600D01*
X81523244Y-45819600D02*
X81428006Y-45867219D01*
X81428006Y-45867219D02*
X81142292Y-45867219D01*
X81142292Y-45867219D02*
X81047054Y-45819600D01*
X81047054Y-45819600D02*
X80999435Y-45771980D01*
X81904197Y-44867219D02*
X82237530Y-45867219D01*
X82237530Y-45867219D02*
X82570863Y-44867219D01*
X82808959Y-44867219D02*
X83428006Y-44867219D01*
X83428006Y-44867219D02*
X83094673Y-45248171D01*
X83094673Y-45248171D02*
X83237530Y-45248171D01*
X83237530Y-45248171D02*
X83332768Y-45295790D01*
X83332768Y-45295790D02*
X83380387Y-45343409D01*
X83380387Y-45343409D02*
X83428006Y-45438647D01*
X83428006Y-45438647D02*
X83428006Y-45676742D01*
X83428006Y-45676742D02*
X83380387Y-45771980D01*
X83380387Y-45771980D02*
X83332768Y-45819600D01*
X83332768Y-45819600D02*
X83237530Y-45867219D01*
X83237530Y-45867219D02*
X82951816Y-45867219D01*
X82951816Y-45867219D02*
X82856578Y-45819600D01*
X82856578Y-45819600D02*
X82808959Y-45771980D01*
D11*
X83285714Y-36459200D02*
X83428571Y-36506819D01*
X83428571Y-36506819D02*
X83666666Y-36506819D01*
X83666666Y-36506819D02*
X83761904Y-36459200D01*
X83761904Y-36459200D02*
X83809523Y-36411580D01*
X83809523Y-36411580D02*
X83857142Y-36316342D01*
X83857142Y-36316342D02*
X83857142Y-36221104D01*
X83857142Y-36221104D02*
X83809523Y-36125866D01*
X83809523Y-36125866D02*
X83761904Y-36078247D01*
X83761904Y-36078247D02*
X83666666Y-36030628D01*
X83666666Y-36030628D02*
X83476190Y-35983009D01*
X83476190Y-35983009D02*
X83380952Y-35935390D01*
X83380952Y-35935390D02*
X83333333Y-35887771D01*
X83333333Y-35887771D02*
X83285714Y-35792533D01*
X83285714Y-35792533D02*
X83285714Y-35697295D01*
X83285714Y-35697295D02*
X83333333Y-35602057D01*
X83333333Y-35602057D02*
X83380952Y-35554438D01*
X83380952Y-35554438D02*
X83476190Y-35506819D01*
X83476190Y-35506819D02*
X83714285Y-35506819D01*
X83714285Y-35506819D02*
X83857142Y-35554438D01*
X84285714Y-36506819D02*
X84285714Y-35506819D01*
X84285714Y-35506819D02*
X84523809Y-35506819D01*
X84523809Y-35506819D02*
X84666666Y-35554438D01*
X84666666Y-35554438D02*
X84761904Y-35649676D01*
X84761904Y-35649676D02*
X84809523Y-35744914D01*
X84809523Y-35744914D02*
X84857142Y-35935390D01*
X84857142Y-35935390D02*
X84857142Y-36078247D01*
X84857142Y-36078247D02*
X84809523Y-36268723D01*
X84809523Y-36268723D02*
X84761904Y-36363961D01*
X84761904Y-36363961D02*
X84666666Y-36459200D01*
X84666666Y-36459200D02*
X84523809Y-36506819D01*
X84523809Y-36506819D02*
X84285714Y-36506819D01*
X85238095Y-36221104D02*
X85714285Y-36221104D01*
X85142857Y-36506819D02*
X85476190Y-35506819D01*
X85476190Y-35506819D02*
X85809523Y-36506819D01*
X78011905Y-34756819D02*
X78630952Y-34756819D01*
X78630952Y-34756819D02*
X78297619Y-35137771D01*
X78297619Y-35137771D02*
X78440476Y-35137771D01*
X78440476Y-35137771D02*
X78535714Y-35185390D01*
X78535714Y-35185390D02*
X78583333Y-35233009D01*
X78583333Y-35233009D02*
X78630952Y-35328247D01*
X78630952Y-35328247D02*
X78630952Y-35566342D01*
X78630952Y-35566342D02*
X78583333Y-35661580D01*
X78583333Y-35661580D02*
X78535714Y-35709200D01*
X78535714Y-35709200D02*
X78440476Y-35756819D01*
X78440476Y-35756819D02*
X78154762Y-35756819D01*
X78154762Y-35756819D02*
X78059524Y-35709200D01*
X78059524Y-35709200D02*
X78011905Y-35661580D01*
X78916667Y-34756819D02*
X79250000Y-35756819D01*
X79250000Y-35756819D02*
X79583333Y-34756819D01*
X79821429Y-34756819D02*
X80440476Y-34756819D01*
X80440476Y-34756819D02*
X80107143Y-35137771D01*
X80107143Y-35137771D02*
X80250000Y-35137771D01*
X80250000Y-35137771D02*
X80345238Y-35185390D01*
X80345238Y-35185390D02*
X80392857Y-35233009D01*
X80392857Y-35233009D02*
X80440476Y-35328247D01*
X80440476Y-35328247D02*
X80440476Y-35566342D01*
X80440476Y-35566342D02*
X80392857Y-35661580D01*
X80392857Y-35661580D02*
X80345238Y-35709200D01*
X80345238Y-35709200D02*
X80250000Y-35756819D01*
X80250000Y-35756819D02*
X79964286Y-35756819D01*
X79964286Y-35756819D02*
X79869048Y-35709200D01*
X79869048Y-35709200D02*
X79821429Y-35661580D01*
X78511905Y-49506819D02*
X79130952Y-49506819D01*
X79130952Y-49506819D02*
X78797619Y-49887771D01*
X78797619Y-49887771D02*
X78940476Y-49887771D01*
X78940476Y-49887771D02*
X79035714Y-49935390D01*
X79035714Y-49935390D02*
X79083333Y-49983009D01*
X79083333Y-49983009D02*
X79130952Y-50078247D01*
X79130952Y-50078247D02*
X79130952Y-50316342D01*
X79130952Y-50316342D02*
X79083333Y-50411580D01*
X79083333Y-50411580D02*
X79035714Y-50459200D01*
X79035714Y-50459200D02*
X78940476Y-50506819D01*
X78940476Y-50506819D02*
X78654762Y-50506819D01*
X78654762Y-50506819D02*
X78559524Y-50459200D01*
X78559524Y-50459200D02*
X78511905Y-50411580D01*
X79416667Y-49506819D02*
X79750000Y-50506819D01*
X79750000Y-50506819D02*
X80083333Y-49506819D01*
X80321429Y-49506819D02*
X80940476Y-49506819D01*
X80940476Y-49506819D02*
X80607143Y-49887771D01*
X80607143Y-49887771D02*
X80750000Y-49887771D01*
X80750000Y-49887771D02*
X80845238Y-49935390D01*
X80845238Y-49935390D02*
X80892857Y-49983009D01*
X80892857Y-49983009D02*
X80940476Y-50078247D01*
X80940476Y-50078247D02*
X80940476Y-50316342D01*
X80940476Y-50316342D02*
X80892857Y-50411580D01*
X80892857Y-50411580D02*
X80845238Y-50459200D01*
X80845238Y-50459200D02*
X80750000Y-50506819D01*
X80750000Y-50506819D02*
X80464286Y-50506819D01*
X80464286Y-50506819D02*
X80369048Y-50459200D01*
X80369048Y-50459200D02*
X80321429Y-50411580D01*
X62892857Y-27709200D02*
X63035714Y-27756819D01*
X63035714Y-27756819D02*
X63273809Y-27756819D01*
X63273809Y-27756819D02*
X63369047Y-27709200D01*
X63369047Y-27709200D02*
X63416666Y-27661580D01*
X63416666Y-27661580D02*
X63464285Y-27566342D01*
X63464285Y-27566342D02*
X63464285Y-27471104D01*
X63464285Y-27471104D02*
X63416666Y-27375866D01*
X63416666Y-27375866D02*
X63369047Y-27328247D01*
X63369047Y-27328247D02*
X63273809Y-27280628D01*
X63273809Y-27280628D02*
X63083333Y-27233009D01*
X63083333Y-27233009D02*
X62988095Y-27185390D01*
X62988095Y-27185390D02*
X62940476Y-27137771D01*
X62940476Y-27137771D02*
X62892857Y-27042533D01*
X62892857Y-27042533D02*
X62892857Y-26947295D01*
X62892857Y-26947295D02*
X62940476Y-26852057D01*
X62940476Y-26852057D02*
X62988095Y-26804438D01*
X62988095Y-26804438D02*
X63083333Y-26756819D01*
X63083333Y-26756819D02*
X63321428Y-26756819D01*
X63321428Y-26756819D02*
X63464285Y-26804438D01*
X63797619Y-26756819D02*
X64035714Y-27756819D01*
X64035714Y-27756819D02*
X64226190Y-27042533D01*
X64226190Y-27042533D02*
X64416666Y-27756819D01*
X64416666Y-27756819D02*
X64654762Y-26756819D01*
X58511905Y-31756819D02*
X59130952Y-31756819D01*
X59130952Y-31756819D02*
X58797619Y-32137771D01*
X58797619Y-32137771D02*
X58940476Y-32137771D01*
X58940476Y-32137771D02*
X59035714Y-32185390D01*
X59035714Y-32185390D02*
X59083333Y-32233009D01*
X59083333Y-32233009D02*
X59130952Y-32328247D01*
X59130952Y-32328247D02*
X59130952Y-32566342D01*
X59130952Y-32566342D02*
X59083333Y-32661580D01*
X59083333Y-32661580D02*
X59035714Y-32709200D01*
X59035714Y-32709200D02*
X58940476Y-32756819D01*
X58940476Y-32756819D02*
X58654762Y-32756819D01*
X58654762Y-32756819D02*
X58559524Y-32709200D01*
X58559524Y-32709200D02*
X58511905Y-32661580D01*
X59416667Y-31756819D02*
X59750000Y-32756819D01*
X59750000Y-32756819D02*
X60083333Y-31756819D01*
X60321429Y-31756819D02*
X60940476Y-31756819D01*
X60940476Y-31756819D02*
X60607143Y-32137771D01*
X60607143Y-32137771D02*
X60750000Y-32137771D01*
X60750000Y-32137771D02*
X60845238Y-32185390D01*
X60845238Y-32185390D02*
X60892857Y-32233009D01*
X60892857Y-32233009D02*
X60940476Y-32328247D01*
X60940476Y-32328247D02*
X60940476Y-32566342D01*
X60940476Y-32566342D02*
X60892857Y-32661580D01*
X60892857Y-32661580D02*
X60845238Y-32709200D01*
X60845238Y-32709200D02*
X60750000Y-32756819D01*
X60750000Y-32756819D02*
X60464286Y-32756819D01*
X60464286Y-32756819D02*
X60369048Y-32709200D01*
X60369048Y-32709200D02*
X60321429Y-32661580D01*
X44238095Y-49506819D02*
X44571428Y-50506819D01*
X44571428Y-50506819D02*
X44904761Y-49506819D01*
X45571428Y-49983009D02*
X45714285Y-50030628D01*
X45714285Y-50030628D02*
X45761904Y-50078247D01*
X45761904Y-50078247D02*
X45809523Y-50173485D01*
X45809523Y-50173485D02*
X45809523Y-50316342D01*
X45809523Y-50316342D02*
X45761904Y-50411580D01*
X45761904Y-50411580D02*
X45714285Y-50459200D01*
X45714285Y-50459200D02*
X45619047Y-50506819D01*
X45619047Y-50506819D02*
X45238095Y-50506819D01*
X45238095Y-50506819D02*
X45238095Y-49506819D01*
X45238095Y-49506819D02*
X45571428Y-49506819D01*
X45571428Y-49506819D02*
X45666666Y-49554438D01*
X45666666Y-49554438D02*
X45714285Y-49602057D01*
X45714285Y-49602057D02*
X45761904Y-49697295D01*
X45761904Y-49697295D02*
X45761904Y-49792533D01*
X45761904Y-49792533D02*
X45714285Y-49887771D01*
X45714285Y-49887771D02*
X45666666Y-49935390D01*
X45666666Y-49935390D02*
X45571428Y-49983009D01*
X45571428Y-49983009D02*
X45238095Y-49983009D01*
X46190476Y-50221104D02*
X46666666Y-50221104D01*
X46095238Y-50506819D02*
X46428571Y-49506819D01*
X46428571Y-49506819D02*
X46761904Y-50506819D01*
X46952381Y-49506819D02*
X47523809Y-49506819D01*
X47238095Y-50506819D02*
X47238095Y-49506819D01*
X52011905Y-49006819D02*
X52630952Y-49006819D01*
X52630952Y-49006819D02*
X52297619Y-49387771D01*
X52297619Y-49387771D02*
X52440476Y-49387771D01*
X52440476Y-49387771D02*
X52535714Y-49435390D01*
X52535714Y-49435390D02*
X52583333Y-49483009D01*
X52583333Y-49483009D02*
X52630952Y-49578247D01*
X52630952Y-49578247D02*
X52630952Y-49816342D01*
X52630952Y-49816342D02*
X52583333Y-49911580D01*
X52583333Y-49911580D02*
X52535714Y-49959200D01*
X52535714Y-49959200D02*
X52440476Y-50006819D01*
X52440476Y-50006819D02*
X52154762Y-50006819D01*
X52154762Y-50006819D02*
X52059524Y-49959200D01*
X52059524Y-49959200D02*
X52011905Y-49911580D01*
X52916667Y-49006819D02*
X53250000Y-50006819D01*
X53250000Y-50006819D02*
X53583333Y-49006819D01*
X53821429Y-49006819D02*
X54440476Y-49006819D01*
X54440476Y-49006819D02*
X54107143Y-49387771D01*
X54107143Y-49387771D02*
X54250000Y-49387771D01*
X54250000Y-49387771D02*
X54345238Y-49435390D01*
X54345238Y-49435390D02*
X54392857Y-49483009D01*
X54392857Y-49483009D02*
X54440476Y-49578247D01*
X54440476Y-49578247D02*
X54440476Y-49816342D01*
X54440476Y-49816342D02*
X54392857Y-49911580D01*
X54392857Y-49911580D02*
X54345238Y-49959200D01*
X54345238Y-49959200D02*
X54250000Y-50006819D01*
X54250000Y-50006819D02*
X53964286Y-50006819D01*
X53964286Y-50006819D02*
X53869048Y-49959200D01*
X53869048Y-49959200D02*
X53821429Y-49911580D01*
X49607143Y-42256819D02*
X49940476Y-43256819D01*
X49940476Y-43256819D02*
X50273809Y-42256819D01*
X50940476Y-42733009D02*
X51083333Y-42780628D01*
X51083333Y-42780628D02*
X51130952Y-42828247D01*
X51130952Y-42828247D02*
X51178571Y-42923485D01*
X51178571Y-42923485D02*
X51178571Y-43066342D01*
X51178571Y-43066342D02*
X51130952Y-43161580D01*
X51130952Y-43161580D02*
X51083333Y-43209200D01*
X51083333Y-43209200D02*
X50988095Y-43256819D01*
X50988095Y-43256819D02*
X50607143Y-43256819D01*
X50607143Y-43256819D02*
X50607143Y-42256819D01*
X50607143Y-42256819D02*
X50940476Y-42256819D01*
X50940476Y-42256819D02*
X51035714Y-42304438D01*
X51035714Y-42304438D02*
X51083333Y-42352057D01*
X51083333Y-42352057D02*
X51130952Y-42447295D01*
X51130952Y-42447295D02*
X51130952Y-42542533D01*
X51130952Y-42542533D02*
X51083333Y-42637771D01*
X51083333Y-42637771D02*
X51035714Y-42685390D01*
X51035714Y-42685390D02*
X50940476Y-42733009D01*
X50940476Y-42733009D02*
X50607143Y-42733009D01*
X51559524Y-42971104D02*
X52035714Y-42971104D01*
X51464286Y-43256819D02*
X51797619Y-42256819D01*
X51797619Y-42256819D02*
X52130952Y-43256819D01*
X52321429Y-42256819D02*
X52892857Y-42256819D01*
X52607143Y-43256819D02*
X52607143Y-42256819D01*
X37416667Y-35006819D02*
X37750000Y-36006819D01*
X37750000Y-36006819D02*
X38083333Y-35006819D01*
X38750000Y-35483009D02*
X38892857Y-35530628D01*
X38892857Y-35530628D02*
X38940476Y-35578247D01*
X38940476Y-35578247D02*
X38988095Y-35673485D01*
X38988095Y-35673485D02*
X38988095Y-35816342D01*
X38988095Y-35816342D02*
X38940476Y-35911580D01*
X38940476Y-35911580D02*
X38892857Y-35959200D01*
X38892857Y-35959200D02*
X38797619Y-36006819D01*
X38797619Y-36006819D02*
X38416667Y-36006819D01*
X38416667Y-36006819D02*
X38416667Y-35006819D01*
X38416667Y-35006819D02*
X38750000Y-35006819D01*
X38750000Y-35006819D02*
X38845238Y-35054438D01*
X38845238Y-35054438D02*
X38892857Y-35102057D01*
X38892857Y-35102057D02*
X38940476Y-35197295D01*
X38940476Y-35197295D02*
X38940476Y-35292533D01*
X38940476Y-35292533D02*
X38892857Y-35387771D01*
X38892857Y-35387771D02*
X38845238Y-35435390D01*
X38845238Y-35435390D02*
X38750000Y-35483009D01*
X38750000Y-35483009D02*
X38416667Y-35483009D01*
X39416667Y-35006819D02*
X39416667Y-35816342D01*
X39416667Y-35816342D02*
X39464286Y-35911580D01*
X39464286Y-35911580D02*
X39511905Y-35959200D01*
X39511905Y-35959200D02*
X39607143Y-36006819D01*
X39607143Y-36006819D02*
X39797619Y-36006819D01*
X39797619Y-36006819D02*
X39892857Y-35959200D01*
X39892857Y-35959200D02*
X39940476Y-35911580D01*
X39940476Y-35911580D02*
X39988095Y-35816342D01*
X39988095Y-35816342D02*
X39988095Y-35006819D01*
X40416667Y-35959200D02*
X40559524Y-36006819D01*
X40559524Y-36006819D02*
X40797619Y-36006819D01*
X40797619Y-36006819D02*
X40892857Y-35959200D01*
X40892857Y-35959200D02*
X40940476Y-35911580D01*
X40940476Y-35911580D02*
X40988095Y-35816342D01*
X40988095Y-35816342D02*
X40988095Y-35721104D01*
X40988095Y-35721104D02*
X40940476Y-35625866D01*
X40940476Y-35625866D02*
X40892857Y-35578247D01*
X40892857Y-35578247D02*
X40797619Y-35530628D01*
X40797619Y-35530628D02*
X40607143Y-35483009D01*
X40607143Y-35483009D02*
X40511905Y-35435390D01*
X40511905Y-35435390D02*
X40464286Y-35387771D01*
X40464286Y-35387771D02*
X40416667Y-35292533D01*
X40416667Y-35292533D02*
X40416667Y-35197295D01*
X40416667Y-35197295D02*
X40464286Y-35102057D01*
X40464286Y-35102057D02*
X40511905Y-35054438D01*
X40511905Y-35054438D02*
X40607143Y-35006819D01*
X40607143Y-35006819D02*
X40845238Y-35006819D01*
X40845238Y-35006819D02*
X40988095Y-35054438D01*
X33416667Y-57204819D02*
X33750000Y-58204819D01*
X33750000Y-58204819D02*
X34083333Y-57204819D01*
X34750000Y-57681009D02*
X34892857Y-57728628D01*
X34892857Y-57728628D02*
X34940476Y-57776247D01*
X34940476Y-57776247D02*
X34988095Y-57871485D01*
X34988095Y-57871485D02*
X34988095Y-58014342D01*
X34988095Y-58014342D02*
X34940476Y-58109580D01*
X34940476Y-58109580D02*
X34892857Y-58157200D01*
X34892857Y-58157200D02*
X34797619Y-58204819D01*
X34797619Y-58204819D02*
X34416667Y-58204819D01*
X34416667Y-58204819D02*
X34416667Y-57204819D01*
X34416667Y-57204819D02*
X34750000Y-57204819D01*
X34750000Y-57204819D02*
X34845238Y-57252438D01*
X34845238Y-57252438D02*
X34892857Y-57300057D01*
X34892857Y-57300057D02*
X34940476Y-57395295D01*
X34940476Y-57395295D02*
X34940476Y-57490533D01*
X34940476Y-57490533D02*
X34892857Y-57585771D01*
X34892857Y-57585771D02*
X34845238Y-57633390D01*
X34845238Y-57633390D02*
X34750000Y-57681009D01*
X34750000Y-57681009D02*
X34416667Y-57681009D01*
X35416667Y-57204819D02*
X35416667Y-58014342D01*
X35416667Y-58014342D02*
X35464286Y-58109580D01*
X35464286Y-58109580D02*
X35511905Y-58157200D01*
X35511905Y-58157200D02*
X35607143Y-58204819D01*
X35607143Y-58204819D02*
X35797619Y-58204819D01*
X35797619Y-58204819D02*
X35892857Y-58157200D01*
X35892857Y-58157200D02*
X35940476Y-58109580D01*
X35940476Y-58109580D02*
X35988095Y-58014342D01*
X35988095Y-58014342D02*
X35988095Y-57204819D01*
X36416667Y-58157200D02*
X36559524Y-58204819D01*
X36559524Y-58204819D02*
X36797619Y-58204819D01*
X36797619Y-58204819D02*
X36892857Y-58157200D01*
X36892857Y-58157200D02*
X36940476Y-58109580D01*
X36940476Y-58109580D02*
X36988095Y-58014342D01*
X36988095Y-58014342D02*
X36988095Y-57919104D01*
X36988095Y-57919104D02*
X36940476Y-57823866D01*
X36940476Y-57823866D02*
X36892857Y-57776247D01*
X36892857Y-57776247D02*
X36797619Y-57728628D01*
X36797619Y-57728628D02*
X36607143Y-57681009D01*
X36607143Y-57681009D02*
X36511905Y-57633390D01*
X36511905Y-57633390D02*
X36464286Y-57585771D01*
X36464286Y-57585771D02*
X36416667Y-57490533D01*
X36416667Y-57490533D02*
X36416667Y-57395295D01*
X36416667Y-57395295D02*
X36464286Y-57300057D01*
X36464286Y-57300057D02*
X36511905Y-57252438D01*
X36511905Y-57252438D02*
X36607143Y-57204819D01*
X36607143Y-57204819D02*
X36845238Y-57204819D01*
X36845238Y-57204819D02*
X36988095Y-57252438D01*
X37857143Y-29704819D02*
X38190476Y-30704819D01*
X38190476Y-30704819D02*
X38523809Y-29704819D01*
X39190476Y-30181009D02*
X39333333Y-30228628D01*
X39333333Y-30228628D02*
X39380952Y-30276247D01*
X39380952Y-30276247D02*
X39428571Y-30371485D01*
X39428571Y-30371485D02*
X39428571Y-30514342D01*
X39428571Y-30514342D02*
X39380952Y-30609580D01*
X39380952Y-30609580D02*
X39333333Y-30657200D01*
X39333333Y-30657200D02*
X39238095Y-30704819D01*
X39238095Y-30704819D02*
X38857143Y-30704819D01*
X38857143Y-30704819D02*
X38857143Y-29704819D01*
X38857143Y-29704819D02*
X39190476Y-29704819D01*
X39190476Y-29704819D02*
X39285714Y-29752438D01*
X39285714Y-29752438D02*
X39333333Y-29800057D01*
X39333333Y-29800057D02*
X39380952Y-29895295D01*
X39380952Y-29895295D02*
X39380952Y-29990533D01*
X39380952Y-29990533D02*
X39333333Y-30085771D01*
X39333333Y-30085771D02*
X39285714Y-30133390D01*
X39285714Y-30133390D02*
X39190476Y-30181009D01*
X39190476Y-30181009D02*
X38857143Y-30181009D01*
X39809524Y-30419104D02*
X40285714Y-30419104D01*
X39714286Y-30704819D02*
X40047619Y-29704819D01*
X40047619Y-29704819D02*
X40380952Y-30704819D01*
X40571429Y-29704819D02*
X41142857Y-29704819D01*
X40857143Y-30704819D02*
X40857143Y-29704819D01*
X82988095Y-53554438D02*
X82892857Y-53506819D01*
X82892857Y-53506819D02*
X82750000Y-53506819D01*
X82750000Y-53506819D02*
X82607143Y-53554438D01*
X82607143Y-53554438D02*
X82511905Y-53649676D01*
X82511905Y-53649676D02*
X82464286Y-53744914D01*
X82464286Y-53744914D02*
X82416667Y-53935390D01*
X82416667Y-53935390D02*
X82416667Y-54078247D01*
X82416667Y-54078247D02*
X82464286Y-54268723D01*
X82464286Y-54268723D02*
X82511905Y-54363961D01*
X82511905Y-54363961D02*
X82607143Y-54459200D01*
X82607143Y-54459200D02*
X82750000Y-54506819D01*
X82750000Y-54506819D02*
X82845238Y-54506819D01*
X82845238Y-54506819D02*
X82988095Y-54459200D01*
X82988095Y-54459200D02*
X83035714Y-54411580D01*
X83035714Y-54411580D02*
X83035714Y-54078247D01*
X83035714Y-54078247D02*
X82845238Y-54078247D01*
X83464286Y-54506819D02*
X83464286Y-53506819D01*
X83464286Y-53506819D02*
X84035714Y-54506819D01*
X84035714Y-54506819D02*
X84035714Y-53506819D01*
X84511905Y-54506819D02*
X84511905Y-53506819D01*
X84511905Y-53506819D02*
X84750000Y-53506819D01*
X84750000Y-53506819D02*
X84892857Y-53554438D01*
X84892857Y-53554438D02*
X84988095Y-53649676D01*
X84988095Y-53649676D02*
X85035714Y-53744914D01*
X85035714Y-53744914D02*
X85083333Y-53935390D01*
X85083333Y-53935390D02*
X85083333Y-54078247D01*
X85083333Y-54078247D02*
X85035714Y-54268723D01*
X85035714Y-54268723D02*
X84988095Y-54363961D01*
X84988095Y-54363961D02*
X84892857Y-54459200D01*
X84892857Y-54459200D02*
X84750000Y-54506819D01*
X84750000Y-54506819D02*
X84511905Y-54506819D01*
X86738095Y-30002438D02*
X86642857Y-29954819D01*
X86642857Y-29954819D02*
X86500000Y-29954819D01*
X86500000Y-29954819D02*
X86357143Y-30002438D01*
X86357143Y-30002438D02*
X86261905Y-30097676D01*
X86261905Y-30097676D02*
X86214286Y-30192914D01*
X86214286Y-30192914D02*
X86166667Y-30383390D01*
X86166667Y-30383390D02*
X86166667Y-30526247D01*
X86166667Y-30526247D02*
X86214286Y-30716723D01*
X86214286Y-30716723D02*
X86261905Y-30811961D01*
X86261905Y-30811961D02*
X86357143Y-30907200D01*
X86357143Y-30907200D02*
X86500000Y-30954819D01*
X86500000Y-30954819D02*
X86595238Y-30954819D01*
X86595238Y-30954819D02*
X86738095Y-30907200D01*
X86738095Y-30907200D02*
X86785714Y-30859580D01*
X86785714Y-30859580D02*
X86785714Y-30526247D01*
X86785714Y-30526247D02*
X86595238Y-30526247D01*
X87214286Y-30954819D02*
X87214286Y-29954819D01*
X87214286Y-29954819D02*
X87785714Y-30954819D01*
X87785714Y-30954819D02*
X87785714Y-29954819D01*
X88261905Y-30954819D02*
X88261905Y-29954819D01*
X88261905Y-29954819D02*
X88500000Y-29954819D01*
X88500000Y-29954819D02*
X88642857Y-30002438D01*
X88642857Y-30002438D02*
X88738095Y-30097676D01*
X88738095Y-30097676D02*
X88785714Y-30192914D01*
X88785714Y-30192914D02*
X88833333Y-30383390D01*
X88833333Y-30383390D02*
X88833333Y-30526247D01*
X88833333Y-30526247D02*
X88785714Y-30716723D01*
X88785714Y-30716723D02*
X88738095Y-30811961D01*
X88738095Y-30811961D02*
X88642857Y-30907200D01*
X88642857Y-30907200D02*
X88500000Y-30954819D01*
X88500000Y-30954819D02*
X88261905Y-30954819D01*
X38738095Y-26002438D02*
X38642857Y-25954819D01*
X38642857Y-25954819D02*
X38500000Y-25954819D01*
X38500000Y-25954819D02*
X38357143Y-26002438D01*
X38357143Y-26002438D02*
X38261905Y-26097676D01*
X38261905Y-26097676D02*
X38214286Y-26192914D01*
X38214286Y-26192914D02*
X38166667Y-26383390D01*
X38166667Y-26383390D02*
X38166667Y-26526247D01*
X38166667Y-26526247D02*
X38214286Y-26716723D01*
X38214286Y-26716723D02*
X38261905Y-26811961D01*
X38261905Y-26811961D02*
X38357143Y-26907200D01*
X38357143Y-26907200D02*
X38500000Y-26954819D01*
X38500000Y-26954819D02*
X38595238Y-26954819D01*
X38595238Y-26954819D02*
X38738095Y-26907200D01*
X38738095Y-26907200D02*
X38785714Y-26859580D01*
X38785714Y-26859580D02*
X38785714Y-26526247D01*
X38785714Y-26526247D02*
X38595238Y-26526247D01*
X39214286Y-26954819D02*
X39214286Y-25954819D01*
X39214286Y-25954819D02*
X39785714Y-26954819D01*
X39785714Y-26954819D02*
X39785714Y-25954819D01*
X40261905Y-26954819D02*
X40261905Y-25954819D01*
X40261905Y-25954819D02*
X40500000Y-25954819D01*
X40500000Y-25954819D02*
X40642857Y-26002438D01*
X40642857Y-26002438D02*
X40738095Y-26097676D01*
X40738095Y-26097676D02*
X40785714Y-26192914D01*
X40785714Y-26192914D02*
X40833333Y-26383390D01*
X40833333Y-26383390D02*
X40833333Y-26526247D01*
X40833333Y-26526247D02*
X40785714Y-26716723D01*
X40785714Y-26716723D02*
X40738095Y-26811961D01*
X40738095Y-26811961D02*
X40642857Y-26907200D01*
X40642857Y-26907200D02*
X40500000Y-26954819D01*
X40500000Y-26954819D02*
X40261905Y-26954819D01*
X38143333Y-48740819D02*
X37810000Y-48264628D01*
X37571905Y-48740819D02*
X37571905Y-47740819D01*
X37571905Y-47740819D02*
X37952857Y-47740819D01*
X37952857Y-47740819D02*
X38048095Y-47788438D01*
X38048095Y-47788438D02*
X38095714Y-47836057D01*
X38095714Y-47836057D02*
X38143333Y-47931295D01*
X38143333Y-47931295D02*
X38143333Y-48074152D01*
X38143333Y-48074152D02*
X38095714Y-48169390D01*
X38095714Y-48169390D02*
X38048095Y-48217009D01*
X38048095Y-48217009D02*
X37952857Y-48264628D01*
X37952857Y-48264628D02*
X37571905Y-48264628D01*
X39095714Y-48740819D02*
X38524286Y-48740819D01*
X38810000Y-48740819D02*
X38810000Y-47740819D01*
X38810000Y-47740819D02*
X38714762Y-47883676D01*
X38714762Y-47883676D02*
X38619524Y-47978914D01*
X38619524Y-47978914D02*
X38524286Y-48026533D01*
X78583333Y-45704819D02*
X78250000Y-45228628D01*
X78011905Y-45704819D02*
X78011905Y-44704819D01*
X78011905Y-44704819D02*
X78392857Y-44704819D01*
X78392857Y-44704819D02*
X78488095Y-44752438D01*
X78488095Y-44752438D02*
X78535714Y-44800057D01*
X78535714Y-44800057D02*
X78583333Y-44895295D01*
X78583333Y-44895295D02*
X78583333Y-45038152D01*
X78583333Y-45038152D02*
X78535714Y-45133390D01*
X78535714Y-45133390D02*
X78488095Y-45181009D01*
X78488095Y-45181009D02*
X78392857Y-45228628D01*
X78392857Y-45228628D02*
X78011905Y-45228628D01*
X79488095Y-44704819D02*
X79011905Y-44704819D01*
X79011905Y-44704819D02*
X78964286Y-45181009D01*
X78964286Y-45181009D02*
X79011905Y-45133390D01*
X79011905Y-45133390D02*
X79107143Y-45085771D01*
X79107143Y-45085771D02*
X79345238Y-45085771D01*
X79345238Y-45085771D02*
X79440476Y-45133390D01*
X79440476Y-45133390D02*
X79488095Y-45181009D01*
X79488095Y-45181009D02*
X79535714Y-45276247D01*
X79535714Y-45276247D02*
X79535714Y-45514342D01*
X79535714Y-45514342D02*
X79488095Y-45609580D01*
X79488095Y-45609580D02*
X79440476Y-45657200D01*
X79440476Y-45657200D02*
X79345238Y-45704819D01*
X79345238Y-45704819D02*
X79107143Y-45704819D01*
X79107143Y-45704819D02*
X79011905Y-45657200D01*
X79011905Y-45657200D02*
X78964286Y-45609580D01*
X87416666Y-35964819D02*
X87416666Y-36679104D01*
X87416666Y-36679104D02*
X87369047Y-36821961D01*
X87369047Y-36821961D02*
X87273809Y-36917200D01*
X87273809Y-36917200D02*
X87130952Y-36964819D01*
X87130952Y-36964819D02*
X87035714Y-36964819D01*
X87845238Y-36060057D02*
X87892857Y-36012438D01*
X87892857Y-36012438D02*
X87988095Y-35964819D01*
X87988095Y-35964819D02*
X88226190Y-35964819D01*
X88226190Y-35964819D02*
X88321428Y-36012438D01*
X88321428Y-36012438D02*
X88369047Y-36060057D01*
X88369047Y-36060057D02*
X88416666Y-36155295D01*
X88416666Y-36155295D02*
X88416666Y-36250533D01*
X88416666Y-36250533D02*
X88369047Y-36393390D01*
X88369047Y-36393390D02*
X87797619Y-36964819D01*
X87797619Y-36964819D02*
X88416666Y-36964819D01*
X53892857Y-32357200D02*
X54035714Y-32404819D01*
X54035714Y-32404819D02*
X54273809Y-32404819D01*
X54273809Y-32404819D02*
X54369047Y-32357200D01*
X54369047Y-32357200D02*
X54416666Y-32309580D01*
X54416666Y-32309580D02*
X54464285Y-32214342D01*
X54464285Y-32214342D02*
X54464285Y-32119104D01*
X54464285Y-32119104D02*
X54416666Y-32023866D01*
X54416666Y-32023866D02*
X54369047Y-31976247D01*
X54369047Y-31976247D02*
X54273809Y-31928628D01*
X54273809Y-31928628D02*
X54083333Y-31881009D01*
X54083333Y-31881009D02*
X53988095Y-31833390D01*
X53988095Y-31833390D02*
X53940476Y-31785771D01*
X53940476Y-31785771D02*
X53892857Y-31690533D01*
X53892857Y-31690533D02*
X53892857Y-31595295D01*
X53892857Y-31595295D02*
X53940476Y-31500057D01*
X53940476Y-31500057D02*
X53988095Y-31452438D01*
X53988095Y-31452438D02*
X54083333Y-31404819D01*
X54083333Y-31404819D02*
X54321428Y-31404819D01*
X54321428Y-31404819D02*
X54464285Y-31452438D01*
X54797619Y-31404819D02*
X55035714Y-32404819D01*
X55035714Y-32404819D02*
X55226190Y-31690533D01*
X55226190Y-31690533D02*
X55416666Y-32404819D01*
X55416666Y-32404819D02*
X55654762Y-31404819D01*
X62357142Y-33109580D02*
X62309523Y-33157200D01*
X62309523Y-33157200D02*
X62166666Y-33204819D01*
X62166666Y-33204819D02*
X62071428Y-33204819D01*
X62071428Y-33204819D02*
X61928571Y-33157200D01*
X61928571Y-33157200D02*
X61833333Y-33061961D01*
X61833333Y-33061961D02*
X61785714Y-32966723D01*
X61785714Y-32966723D02*
X61738095Y-32776247D01*
X61738095Y-32776247D02*
X61738095Y-32633390D01*
X61738095Y-32633390D02*
X61785714Y-32442914D01*
X61785714Y-32442914D02*
X61833333Y-32347676D01*
X61833333Y-32347676D02*
X61928571Y-32252438D01*
X61928571Y-32252438D02*
X62071428Y-32204819D01*
X62071428Y-32204819D02*
X62166666Y-32204819D01*
X62166666Y-32204819D02*
X62309523Y-32252438D01*
X62309523Y-32252438D02*
X62357142Y-32300057D01*
X63309523Y-33204819D02*
X62738095Y-33204819D01*
X63023809Y-33204819D02*
X63023809Y-32204819D01*
X63023809Y-32204819D02*
X62928571Y-32347676D01*
X62928571Y-32347676D02*
X62833333Y-32442914D01*
X62833333Y-32442914D02*
X62738095Y-32490533D01*
X63690476Y-32300057D02*
X63738095Y-32252438D01*
X63738095Y-32252438D02*
X63833333Y-32204819D01*
X63833333Y-32204819D02*
X64071428Y-32204819D01*
X64071428Y-32204819D02*
X64166666Y-32252438D01*
X64166666Y-32252438D02*
X64214285Y-32300057D01*
X64214285Y-32300057D02*
X64261904Y-32395295D01*
X64261904Y-32395295D02*
X64261904Y-32490533D01*
X64261904Y-32490533D02*
X64214285Y-32633390D01*
X64214285Y-32633390D02*
X63642857Y-33204819D01*
X63642857Y-33204819D02*
X64261904Y-33204819D01*
X66336666Y-26954819D02*
X66336666Y-27669104D01*
X66336666Y-27669104D02*
X66289047Y-27811961D01*
X66289047Y-27811961D02*
X66193809Y-27907200D01*
X66193809Y-27907200D02*
X66050952Y-27954819D01*
X66050952Y-27954819D02*
X65955714Y-27954819D01*
X67289047Y-26954819D02*
X66812857Y-26954819D01*
X66812857Y-26954819D02*
X66765238Y-27431009D01*
X66765238Y-27431009D02*
X66812857Y-27383390D01*
X66812857Y-27383390D02*
X66908095Y-27335771D01*
X66908095Y-27335771D02*
X67146190Y-27335771D01*
X67146190Y-27335771D02*
X67241428Y-27383390D01*
X67241428Y-27383390D02*
X67289047Y-27431009D01*
X67289047Y-27431009D02*
X67336666Y-27526247D01*
X67336666Y-27526247D02*
X67336666Y-27764342D01*
X67336666Y-27764342D02*
X67289047Y-27859580D01*
X67289047Y-27859580D02*
X67241428Y-27907200D01*
X67241428Y-27907200D02*
X67146190Y-27954819D01*
X67146190Y-27954819D02*
X66908095Y-27954819D01*
X66908095Y-27954819D02*
X66812857Y-27907200D01*
X66812857Y-27907200D02*
X66765238Y-27859580D01*
X45988095Y-53704819D02*
X45988095Y-54514342D01*
X45988095Y-54514342D02*
X46035714Y-54609580D01*
X46035714Y-54609580D02*
X46083333Y-54657200D01*
X46083333Y-54657200D02*
X46178571Y-54704819D01*
X46178571Y-54704819D02*
X46369047Y-54704819D01*
X46369047Y-54704819D02*
X46464285Y-54657200D01*
X46464285Y-54657200D02*
X46511904Y-54609580D01*
X46511904Y-54609580D02*
X46559523Y-54514342D01*
X46559523Y-54514342D02*
X46559523Y-53704819D01*
X46988095Y-53800057D02*
X47035714Y-53752438D01*
X47035714Y-53752438D02*
X47130952Y-53704819D01*
X47130952Y-53704819D02*
X47369047Y-53704819D01*
X47369047Y-53704819D02*
X47464285Y-53752438D01*
X47464285Y-53752438D02*
X47511904Y-53800057D01*
X47511904Y-53800057D02*
X47559523Y-53895295D01*
X47559523Y-53895295D02*
X47559523Y-53990533D01*
X47559523Y-53990533D02*
X47511904Y-54133390D01*
X47511904Y-54133390D02*
X46940476Y-54704819D01*
X46940476Y-54704819D02*
X47559523Y-54704819D01*
X78083333Y-39359580D02*
X78035714Y-39407200D01*
X78035714Y-39407200D02*
X77892857Y-39454819D01*
X77892857Y-39454819D02*
X77797619Y-39454819D01*
X77797619Y-39454819D02*
X77654762Y-39407200D01*
X77654762Y-39407200D02*
X77559524Y-39311961D01*
X77559524Y-39311961D02*
X77511905Y-39216723D01*
X77511905Y-39216723D02*
X77464286Y-39026247D01*
X77464286Y-39026247D02*
X77464286Y-38883390D01*
X77464286Y-38883390D02*
X77511905Y-38692914D01*
X77511905Y-38692914D02*
X77559524Y-38597676D01*
X77559524Y-38597676D02*
X77654762Y-38502438D01*
X77654762Y-38502438D02*
X77797619Y-38454819D01*
X77797619Y-38454819D02*
X77892857Y-38454819D01*
X77892857Y-38454819D02*
X78035714Y-38502438D01*
X78035714Y-38502438D02*
X78083333Y-38550057D01*
X78559524Y-39454819D02*
X78750000Y-39454819D01*
X78750000Y-39454819D02*
X78845238Y-39407200D01*
X78845238Y-39407200D02*
X78892857Y-39359580D01*
X78892857Y-39359580D02*
X78988095Y-39216723D01*
X78988095Y-39216723D02*
X79035714Y-39026247D01*
X79035714Y-39026247D02*
X79035714Y-38645295D01*
X79035714Y-38645295D02*
X78988095Y-38550057D01*
X78988095Y-38550057D02*
X78940476Y-38502438D01*
X78940476Y-38502438D02*
X78845238Y-38454819D01*
X78845238Y-38454819D02*
X78654762Y-38454819D01*
X78654762Y-38454819D02*
X78559524Y-38502438D01*
X78559524Y-38502438D02*
X78511905Y-38550057D01*
X78511905Y-38550057D02*
X78464286Y-38645295D01*
X78464286Y-38645295D02*
X78464286Y-38883390D01*
X78464286Y-38883390D02*
X78511905Y-38978628D01*
X78511905Y-38978628D02*
X78559524Y-39026247D01*
X78559524Y-39026247D02*
X78654762Y-39073866D01*
X78654762Y-39073866D02*
X78845238Y-39073866D01*
X78845238Y-39073866D02*
X78940476Y-39026247D01*
X78940476Y-39026247D02*
X78988095Y-38978628D01*
X78988095Y-38978628D02*
X79035714Y-38883390D01*
X74357142Y-37197080D02*
X74309523Y-37244700D01*
X74309523Y-37244700D02*
X74166666Y-37292319D01*
X74166666Y-37292319D02*
X74071428Y-37292319D01*
X74071428Y-37292319D02*
X73928571Y-37244700D01*
X73928571Y-37244700D02*
X73833333Y-37149461D01*
X73833333Y-37149461D02*
X73785714Y-37054223D01*
X73785714Y-37054223D02*
X73738095Y-36863747D01*
X73738095Y-36863747D02*
X73738095Y-36720890D01*
X73738095Y-36720890D02*
X73785714Y-36530414D01*
X73785714Y-36530414D02*
X73833333Y-36435176D01*
X73833333Y-36435176D02*
X73928571Y-36339938D01*
X73928571Y-36339938D02*
X74071428Y-36292319D01*
X74071428Y-36292319D02*
X74166666Y-36292319D01*
X74166666Y-36292319D02*
X74309523Y-36339938D01*
X74309523Y-36339938D02*
X74357142Y-36387557D01*
X75309523Y-37292319D02*
X74738095Y-37292319D01*
X75023809Y-37292319D02*
X75023809Y-36292319D01*
X75023809Y-36292319D02*
X74928571Y-36435176D01*
X74928571Y-36435176D02*
X74833333Y-36530414D01*
X74833333Y-36530414D02*
X74738095Y-36578033D01*
X75642857Y-36292319D02*
X76261904Y-36292319D01*
X76261904Y-36292319D02*
X75928571Y-36673271D01*
X75928571Y-36673271D02*
X76071428Y-36673271D01*
X76071428Y-36673271D02*
X76166666Y-36720890D01*
X76166666Y-36720890D02*
X76214285Y-36768509D01*
X76214285Y-36768509D02*
X76261904Y-36863747D01*
X76261904Y-36863747D02*
X76261904Y-37101842D01*
X76261904Y-37101842D02*
X76214285Y-37197080D01*
X76214285Y-37197080D02*
X76166666Y-37244700D01*
X76166666Y-37244700D02*
X76071428Y-37292319D01*
X76071428Y-37292319D02*
X75785714Y-37292319D01*
X75785714Y-37292319D02*
X75690476Y-37244700D01*
X75690476Y-37244700D02*
X75642857Y-37197080D01*
X61916666Y-35931009D02*
X61583333Y-35931009D01*
X61583333Y-36454819D02*
X61583333Y-35454819D01*
X61583333Y-35454819D02*
X62059523Y-35454819D01*
X62773809Y-35931009D02*
X62916666Y-35978628D01*
X62916666Y-35978628D02*
X62964285Y-36026247D01*
X62964285Y-36026247D02*
X63011904Y-36121485D01*
X63011904Y-36121485D02*
X63011904Y-36264342D01*
X63011904Y-36264342D02*
X62964285Y-36359580D01*
X62964285Y-36359580D02*
X62916666Y-36407200D01*
X62916666Y-36407200D02*
X62821428Y-36454819D01*
X62821428Y-36454819D02*
X62440476Y-36454819D01*
X62440476Y-36454819D02*
X62440476Y-35454819D01*
X62440476Y-35454819D02*
X62773809Y-35454819D01*
X62773809Y-35454819D02*
X62869047Y-35502438D01*
X62869047Y-35502438D02*
X62916666Y-35550057D01*
X62916666Y-35550057D02*
X62964285Y-35645295D01*
X62964285Y-35645295D02*
X62964285Y-35740533D01*
X62964285Y-35740533D02*
X62916666Y-35835771D01*
X62916666Y-35835771D02*
X62869047Y-35883390D01*
X62869047Y-35883390D02*
X62773809Y-35931009D01*
X62773809Y-35931009D02*
X62440476Y-35931009D01*
X63964285Y-36454819D02*
X63392857Y-36454819D01*
X63678571Y-36454819D02*
X63678571Y-35454819D01*
X63678571Y-35454819D02*
X63583333Y-35597676D01*
X63583333Y-35597676D02*
X63488095Y-35692914D01*
X63488095Y-35692914D02*
X63392857Y-35740533D01*
X54954819Y-42916666D02*
X54478628Y-43249999D01*
X54954819Y-43488094D02*
X53954819Y-43488094D01*
X53954819Y-43488094D02*
X53954819Y-43107142D01*
X53954819Y-43107142D02*
X54002438Y-43011904D01*
X54002438Y-43011904D02*
X54050057Y-42964285D01*
X54050057Y-42964285D02*
X54145295Y-42916666D01*
X54145295Y-42916666D02*
X54288152Y-42916666D01*
X54288152Y-42916666D02*
X54383390Y-42964285D01*
X54383390Y-42964285D02*
X54431009Y-43011904D01*
X54431009Y-43011904D02*
X54478628Y-43107142D01*
X54478628Y-43107142D02*
X54478628Y-43488094D01*
X54954819Y-42440475D02*
X54954819Y-42249999D01*
X54954819Y-42249999D02*
X54907200Y-42154761D01*
X54907200Y-42154761D02*
X54859580Y-42107142D01*
X54859580Y-42107142D02*
X54716723Y-42011904D01*
X54716723Y-42011904D02*
X54526247Y-41964285D01*
X54526247Y-41964285D02*
X54145295Y-41964285D01*
X54145295Y-41964285D02*
X54050057Y-42011904D01*
X54050057Y-42011904D02*
X54002438Y-42059523D01*
X54002438Y-42059523D02*
X53954819Y-42154761D01*
X53954819Y-42154761D02*
X53954819Y-42345237D01*
X53954819Y-42345237D02*
X54002438Y-42440475D01*
X54002438Y-42440475D02*
X54050057Y-42488094D01*
X54050057Y-42488094D02*
X54145295Y-42535713D01*
X54145295Y-42535713D02*
X54383390Y-42535713D01*
X54383390Y-42535713D02*
X54478628Y-42488094D01*
X54478628Y-42488094D02*
X54526247Y-42440475D01*
X54526247Y-42440475D02*
X54573866Y-42345237D01*
X54573866Y-42345237D02*
X54573866Y-42154761D01*
X54573866Y-42154761D02*
X54526247Y-42059523D01*
X54526247Y-42059523D02*
X54478628Y-42011904D01*
X54478628Y-42011904D02*
X54383390Y-41964285D01*
X57454819Y-53238094D02*
X56454819Y-53238094D01*
X56454819Y-53238094D02*
X56454819Y-52999999D01*
X56454819Y-52999999D02*
X56502438Y-52857142D01*
X56502438Y-52857142D02*
X56597676Y-52761904D01*
X56597676Y-52761904D02*
X56692914Y-52714285D01*
X56692914Y-52714285D02*
X56883390Y-52666666D01*
X56883390Y-52666666D02*
X57026247Y-52666666D01*
X57026247Y-52666666D02*
X57216723Y-52714285D01*
X57216723Y-52714285D02*
X57311961Y-52761904D01*
X57311961Y-52761904D02*
X57407200Y-52857142D01*
X57407200Y-52857142D02*
X57454819Y-52999999D01*
X57454819Y-52999999D02*
X57454819Y-53238094D01*
X56788152Y-51809523D02*
X57454819Y-51809523D01*
X56407200Y-52047618D02*
X57121485Y-52285713D01*
X57121485Y-52285713D02*
X57121485Y-51666666D01*
X80209580Y-55642857D02*
X80257200Y-55690476D01*
X80257200Y-55690476D02*
X80304819Y-55833333D01*
X80304819Y-55833333D02*
X80304819Y-55928571D01*
X80304819Y-55928571D02*
X80257200Y-56071428D01*
X80257200Y-56071428D02*
X80161961Y-56166666D01*
X80161961Y-56166666D02*
X80066723Y-56214285D01*
X80066723Y-56214285D02*
X79876247Y-56261904D01*
X79876247Y-56261904D02*
X79733390Y-56261904D01*
X79733390Y-56261904D02*
X79542914Y-56214285D01*
X79542914Y-56214285D02*
X79447676Y-56166666D01*
X79447676Y-56166666D02*
X79352438Y-56071428D01*
X79352438Y-56071428D02*
X79304819Y-55928571D01*
X79304819Y-55928571D02*
X79304819Y-55833333D01*
X79304819Y-55833333D02*
X79352438Y-55690476D01*
X79352438Y-55690476D02*
X79400057Y-55642857D01*
X80304819Y-54690476D02*
X80304819Y-55261904D01*
X80304819Y-54976190D02*
X79304819Y-54976190D01*
X79304819Y-54976190D02*
X79447676Y-55071428D01*
X79447676Y-55071428D02*
X79542914Y-55166666D01*
X79542914Y-55166666D02*
X79590533Y-55261904D01*
X79304819Y-53833333D02*
X79304819Y-54023809D01*
X79304819Y-54023809D02*
X79352438Y-54119047D01*
X79352438Y-54119047D02*
X79400057Y-54166666D01*
X79400057Y-54166666D02*
X79542914Y-54261904D01*
X79542914Y-54261904D02*
X79733390Y-54309523D01*
X79733390Y-54309523D02*
X80114342Y-54309523D01*
X80114342Y-54309523D02*
X80209580Y-54261904D01*
X80209580Y-54261904D02*
X80257200Y-54214285D01*
X80257200Y-54214285D02*
X80304819Y-54119047D01*
X80304819Y-54119047D02*
X80304819Y-53928571D01*
X80304819Y-53928571D02*
X80257200Y-53833333D01*
X80257200Y-53833333D02*
X80209580Y-53785714D01*
X80209580Y-53785714D02*
X80114342Y-53738095D01*
X80114342Y-53738095D02*
X79876247Y-53738095D01*
X79876247Y-53738095D02*
X79781009Y-53785714D01*
X79781009Y-53785714D02*
X79733390Y-53833333D01*
X79733390Y-53833333D02*
X79685771Y-53928571D01*
X79685771Y-53928571D02*
X79685771Y-54119047D01*
X79685771Y-54119047D02*
X79733390Y-54214285D01*
X79733390Y-54214285D02*
X79781009Y-54261904D01*
X79781009Y-54261904D02*
X79876247Y-54309523D01*
X66359580Y-34142857D02*
X66407200Y-34190476D01*
X66407200Y-34190476D02*
X66454819Y-34333333D01*
X66454819Y-34333333D02*
X66454819Y-34428571D01*
X66454819Y-34428571D02*
X66407200Y-34571428D01*
X66407200Y-34571428D02*
X66311961Y-34666666D01*
X66311961Y-34666666D02*
X66216723Y-34714285D01*
X66216723Y-34714285D02*
X66026247Y-34761904D01*
X66026247Y-34761904D02*
X65883390Y-34761904D01*
X65883390Y-34761904D02*
X65692914Y-34714285D01*
X65692914Y-34714285D02*
X65597676Y-34666666D01*
X65597676Y-34666666D02*
X65502438Y-34571428D01*
X65502438Y-34571428D02*
X65454819Y-34428571D01*
X65454819Y-34428571D02*
X65454819Y-34333333D01*
X65454819Y-34333333D02*
X65502438Y-34190476D01*
X65502438Y-34190476D02*
X65550057Y-34142857D01*
X66454819Y-33190476D02*
X66454819Y-33761904D01*
X66454819Y-33476190D02*
X65454819Y-33476190D01*
X65454819Y-33476190D02*
X65597676Y-33571428D01*
X65597676Y-33571428D02*
X65692914Y-33666666D01*
X65692914Y-33666666D02*
X65740533Y-33761904D01*
X66454819Y-32238095D02*
X66454819Y-32809523D01*
X66454819Y-32523809D02*
X65454819Y-32523809D01*
X65454819Y-32523809D02*
X65597676Y-32619047D01*
X65597676Y-32619047D02*
X65692914Y-32714285D01*
X65692914Y-32714285D02*
X65740533Y-32809523D01*
X48429580Y-46416666D02*
X48477200Y-46464285D01*
X48477200Y-46464285D02*
X48524819Y-46607142D01*
X48524819Y-46607142D02*
X48524819Y-46702380D01*
X48524819Y-46702380D02*
X48477200Y-46845237D01*
X48477200Y-46845237D02*
X48381961Y-46940475D01*
X48381961Y-46940475D02*
X48286723Y-46988094D01*
X48286723Y-46988094D02*
X48096247Y-47035713D01*
X48096247Y-47035713D02*
X47953390Y-47035713D01*
X47953390Y-47035713D02*
X47762914Y-46988094D01*
X47762914Y-46988094D02*
X47667676Y-46940475D01*
X47667676Y-46940475D02*
X47572438Y-46845237D01*
X47572438Y-46845237D02*
X47524819Y-46702380D01*
X47524819Y-46702380D02*
X47524819Y-46607142D01*
X47524819Y-46607142D02*
X47572438Y-46464285D01*
X47572438Y-46464285D02*
X47620057Y-46416666D01*
X47524819Y-45511904D02*
X47524819Y-45988094D01*
X47524819Y-45988094D02*
X48001009Y-46035713D01*
X48001009Y-46035713D02*
X47953390Y-45988094D01*
X47953390Y-45988094D02*
X47905771Y-45892856D01*
X47905771Y-45892856D02*
X47905771Y-45654761D01*
X47905771Y-45654761D02*
X47953390Y-45559523D01*
X47953390Y-45559523D02*
X48001009Y-45511904D01*
X48001009Y-45511904D02*
X48096247Y-45464285D01*
X48096247Y-45464285D02*
X48334342Y-45464285D01*
X48334342Y-45464285D02*
X48429580Y-45511904D01*
X48429580Y-45511904D02*
X48477200Y-45559523D01*
X48477200Y-45559523D02*
X48524819Y-45654761D01*
X48524819Y-45654761D02*
X48524819Y-45892856D01*
X48524819Y-45892856D02*
X48477200Y-45988094D01*
X48477200Y-45988094D02*
X48429580Y-46035713D01*
X57454819Y-37363094D02*
X56454819Y-37363094D01*
X56454819Y-37363094D02*
X56454819Y-37124999D01*
X56454819Y-37124999D02*
X56502438Y-36982142D01*
X56502438Y-36982142D02*
X56597676Y-36886904D01*
X56597676Y-36886904D02*
X56692914Y-36839285D01*
X56692914Y-36839285D02*
X56883390Y-36791666D01*
X56883390Y-36791666D02*
X57026247Y-36791666D01*
X57026247Y-36791666D02*
X57216723Y-36839285D01*
X57216723Y-36839285D02*
X57311961Y-36886904D01*
X57311961Y-36886904D02*
X57407200Y-36982142D01*
X57407200Y-36982142D02*
X57454819Y-37124999D01*
X57454819Y-37124999D02*
X57454819Y-37363094D01*
X56454819Y-36458332D02*
X56454819Y-35839285D01*
X56454819Y-35839285D02*
X56835771Y-36172618D01*
X56835771Y-36172618D02*
X56835771Y-36029761D01*
X56835771Y-36029761D02*
X56883390Y-35934523D01*
X56883390Y-35934523D02*
X56931009Y-35886904D01*
X56931009Y-35886904D02*
X57026247Y-35839285D01*
X57026247Y-35839285D02*
X57264342Y-35839285D01*
X57264342Y-35839285D02*
X57359580Y-35886904D01*
X57359580Y-35886904D02*
X57407200Y-35934523D01*
X57407200Y-35934523D02*
X57454819Y-36029761D01*
X57454819Y-36029761D02*
X57454819Y-36315475D01*
X57454819Y-36315475D02*
X57407200Y-36410713D01*
X57407200Y-36410713D02*
X57359580Y-36458332D01*
X72488095Y-40454819D02*
X72488095Y-41264342D01*
X72488095Y-41264342D02*
X72535714Y-41359580D01*
X72535714Y-41359580D02*
X72583333Y-41407200D01*
X72583333Y-41407200D02*
X72678571Y-41454819D01*
X72678571Y-41454819D02*
X72869047Y-41454819D01*
X72869047Y-41454819D02*
X72964285Y-41407200D01*
X72964285Y-41407200D02*
X73011904Y-41359580D01*
X73011904Y-41359580D02*
X73059523Y-41264342D01*
X73059523Y-41264342D02*
X73059523Y-40454819D01*
X73440476Y-40454819D02*
X74059523Y-40454819D01*
X74059523Y-40454819D02*
X73726190Y-40835771D01*
X73726190Y-40835771D02*
X73869047Y-40835771D01*
X73869047Y-40835771D02*
X73964285Y-40883390D01*
X73964285Y-40883390D02*
X74011904Y-40931009D01*
X74011904Y-40931009D02*
X74059523Y-41026247D01*
X74059523Y-41026247D02*
X74059523Y-41264342D01*
X74059523Y-41264342D02*
X74011904Y-41359580D01*
X74011904Y-41359580D02*
X73964285Y-41407200D01*
X73964285Y-41407200D02*
X73869047Y-41454819D01*
X73869047Y-41454819D02*
X73583333Y-41454819D01*
X73583333Y-41454819D02*
X73488095Y-41407200D01*
X73488095Y-41407200D02*
X73440476Y-41359580D01*
X39583333Y-42109580D02*
X39535714Y-42157200D01*
X39535714Y-42157200D02*
X39392857Y-42204819D01*
X39392857Y-42204819D02*
X39297619Y-42204819D01*
X39297619Y-42204819D02*
X39154762Y-42157200D01*
X39154762Y-42157200D02*
X39059524Y-42061961D01*
X39059524Y-42061961D02*
X39011905Y-41966723D01*
X39011905Y-41966723D02*
X38964286Y-41776247D01*
X38964286Y-41776247D02*
X38964286Y-41633390D01*
X38964286Y-41633390D02*
X39011905Y-41442914D01*
X39011905Y-41442914D02*
X39059524Y-41347676D01*
X39059524Y-41347676D02*
X39154762Y-41252438D01*
X39154762Y-41252438D02*
X39297619Y-41204819D01*
X39297619Y-41204819D02*
X39392857Y-41204819D01*
X39392857Y-41204819D02*
X39535714Y-41252438D01*
X39535714Y-41252438D02*
X39583333Y-41300057D01*
X39964286Y-41300057D02*
X40011905Y-41252438D01*
X40011905Y-41252438D02*
X40107143Y-41204819D01*
X40107143Y-41204819D02*
X40345238Y-41204819D01*
X40345238Y-41204819D02*
X40440476Y-41252438D01*
X40440476Y-41252438D02*
X40488095Y-41300057D01*
X40488095Y-41300057D02*
X40535714Y-41395295D01*
X40535714Y-41395295D02*
X40535714Y-41490533D01*
X40535714Y-41490533D02*
X40488095Y-41633390D01*
X40488095Y-41633390D02*
X39916667Y-42204819D01*
X39916667Y-42204819D02*
X40535714Y-42204819D01*
X68359580Y-33642857D02*
X68407200Y-33690476D01*
X68407200Y-33690476D02*
X68454819Y-33833333D01*
X68454819Y-33833333D02*
X68454819Y-33928571D01*
X68454819Y-33928571D02*
X68407200Y-34071428D01*
X68407200Y-34071428D02*
X68311961Y-34166666D01*
X68311961Y-34166666D02*
X68216723Y-34214285D01*
X68216723Y-34214285D02*
X68026247Y-34261904D01*
X68026247Y-34261904D02*
X67883390Y-34261904D01*
X67883390Y-34261904D02*
X67692914Y-34214285D01*
X67692914Y-34214285D02*
X67597676Y-34166666D01*
X67597676Y-34166666D02*
X67502438Y-34071428D01*
X67502438Y-34071428D02*
X67454819Y-33928571D01*
X67454819Y-33928571D02*
X67454819Y-33833333D01*
X67454819Y-33833333D02*
X67502438Y-33690476D01*
X67502438Y-33690476D02*
X67550057Y-33642857D01*
X68454819Y-32690476D02*
X68454819Y-33261904D01*
X68454819Y-32976190D02*
X67454819Y-32976190D01*
X67454819Y-32976190D02*
X67597676Y-33071428D01*
X67597676Y-33071428D02*
X67692914Y-33166666D01*
X67692914Y-33166666D02*
X67740533Y-33261904D01*
X67788152Y-31833333D02*
X68454819Y-31833333D01*
X67407200Y-32071428D02*
X68121485Y-32309523D01*
X68121485Y-32309523D02*
X68121485Y-31690476D01*
X34014819Y-42549333D02*
X34729104Y-42549333D01*
X34729104Y-42549333D02*
X34871961Y-42596952D01*
X34871961Y-42596952D02*
X34967200Y-42692190D01*
X34967200Y-42692190D02*
X35014819Y-42835047D01*
X35014819Y-42835047D02*
X35014819Y-42930285D01*
X34348152Y-41644571D02*
X35014819Y-41644571D01*
X33967200Y-41882666D02*
X34681485Y-42120761D01*
X34681485Y-42120761D02*
X34681485Y-41501714D01*
X52704819Y-35666666D02*
X52228628Y-35999999D01*
X52704819Y-36238094D02*
X51704819Y-36238094D01*
X51704819Y-36238094D02*
X51704819Y-35857142D01*
X51704819Y-35857142D02*
X51752438Y-35761904D01*
X51752438Y-35761904D02*
X51800057Y-35714285D01*
X51800057Y-35714285D02*
X51895295Y-35666666D01*
X51895295Y-35666666D02*
X52038152Y-35666666D01*
X52038152Y-35666666D02*
X52133390Y-35714285D01*
X52133390Y-35714285D02*
X52181009Y-35761904D01*
X52181009Y-35761904D02*
X52228628Y-35857142D01*
X52228628Y-35857142D02*
X52228628Y-36238094D01*
X51800057Y-35285713D02*
X51752438Y-35238094D01*
X51752438Y-35238094D02*
X51704819Y-35142856D01*
X51704819Y-35142856D02*
X51704819Y-34904761D01*
X51704819Y-34904761D02*
X51752438Y-34809523D01*
X51752438Y-34809523D02*
X51800057Y-34761904D01*
X51800057Y-34761904D02*
X51895295Y-34714285D01*
X51895295Y-34714285D02*
X51990533Y-34714285D01*
X51990533Y-34714285D02*
X52133390Y-34761904D01*
X52133390Y-34761904D02*
X52704819Y-35333332D01*
X52704819Y-35333332D02*
X52704819Y-34714285D01*
X34916666Y-29454819D02*
X34916666Y-30169104D01*
X34916666Y-30169104D02*
X34869047Y-30311961D01*
X34869047Y-30311961D02*
X34773809Y-30407200D01*
X34773809Y-30407200D02*
X34630952Y-30454819D01*
X34630952Y-30454819D02*
X34535714Y-30454819D01*
X35916666Y-30454819D02*
X35345238Y-30454819D01*
X35630952Y-30454819D02*
X35630952Y-29454819D01*
X35630952Y-29454819D02*
X35535714Y-29597676D01*
X35535714Y-29597676D02*
X35440476Y-29692914D01*
X35440476Y-29692914D02*
X35345238Y-29740533D01*
X38143333Y-45490819D02*
X37810000Y-45014628D01*
X37571905Y-45490819D02*
X37571905Y-44490819D01*
X37571905Y-44490819D02*
X37952857Y-44490819D01*
X37952857Y-44490819D02*
X38048095Y-44538438D01*
X38048095Y-44538438D02*
X38095714Y-44586057D01*
X38095714Y-44586057D02*
X38143333Y-44681295D01*
X38143333Y-44681295D02*
X38143333Y-44824152D01*
X38143333Y-44824152D02*
X38095714Y-44919390D01*
X38095714Y-44919390D02*
X38048095Y-44967009D01*
X38048095Y-44967009D02*
X37952857Y-45014628D01*
X37952857Y-45014628D02*
X37571905Y-45014628D01*
X39000476Y-44490819D02*
X38810000Y-44490819D01*
X38810000Y-44490819D02*
X38714762Y-44538438D01*
X38714762Y-44538438D02*
X38667143Y-44586057D01*
X38667143Y-44586057D02*
X38571905Y-44728914D01*
X38571905Y-44728914D02*
X38524286Y-44919390D01*
X38524286Y-44919390D02*
X38524286Y-45300342D01*
X38524286Y-45300342D02*
X38571905Y-45395580D01*
X38571905Y-45395580D02*
X38619524Y-45443200D01*
X38619524Y-45443200D02*
X38714762Y-45490819D01*
X38714762Y-45490819D02*
X38905238Y-45490819D01*
X38905238Y-45490819D02*
X39000476Y-45443200D01*
X39000476Y-45443200D02*
X39048095Y-45395580D01*
X39048095Y-45395580D02*
X39095714Y-45300342D01*
X39095714Y-45300342D02*
X39095714Y-45062247D01*
X39095714Y-45062247D02*
X39048095Y-44967009D01*
X39048095Y-44967009D02*
X39000476Y-44919390D01*
X39000476Y-44919390D02*
X38905238Y-44871771D01*
X38905238Y-44871771D02*
X38714762Y-44871771D01*
X38714762Y-44871771D02*
X38619524Y-44919390D01*
X38619524Y-44919390D02*
X38571905Y-44967009D01*
X38571905Y-44967009D02*
X38524286Y-45062247D01*
X58954819Y-48916666D02*
X58478628Y-49249999D01*
X58954819Y-49488094D02*
X57954819Y-49488094D01*
X57954819Y-49488094D02*
X57954819Y-49107142D01*
X57954819Y-49107142D02*
X58002438Y-49011904D01*
X58002438Y-49011904D02*
X58050057Y-48964285D01*
X58050057Y-48964285D02*
X58145295Y-48916666D01*
X58145295Y-48916666D02*
X58288152Y-48916666D01*
X58288152Y-48916666D02*
X58383390Y-48964285D01*
X58383390Y-48964285D02*
X58431009Y-49011904D01*
X58431009Y-49011904D02*
X58478628Y-49107142D01*
X58478628Y-49107142D02*
X58478628Y-49488094D01*
X58383390Y-48345237D02*
X58335771Y-48440475D01*
X58335771Y-48440475D02*
X58288152Y-48488094D01*
X58288152Y-48488094D02*
X58192914Y-48535713D01*
X58192914Y-48535713D02*
X58145295Y-48535713D01*
X58145295Y-48535713D02*
X58050057Y-48488094D01*
X58050057Y-48488094D02*
X58002438Y-48440475D01*
X58002438Y-48440475D02*
X57954819Y-48345237D01*
X57954819Y-48345237D02*
X57954819Y-48154761D01*
X57954819Y-48154761D02*
X58002438Y-48059523D01*
X58002438Y-48059523D02*
X58050057Y-48011904D01*
X58050057Y-48011904D02*
X58145295Y-47964285D01*
X58145295Y-47964285D02*
X58192914Y-47964285D01*
X58192914Y-47964285D02*
X58288152Y-48011904D01*
X58288152Y-48011904D02*
X58335771Y-48059523D01*
X58335771Y-48059523D02*
X58383390Y-48154761D01*
X58383390Y-48154761D02*
X58383390Y-48345237D01*
X58383390Y-48345237D02*
X58431009Y-48440475D01*
X58431009Y-48440475D02*
X58478628Y-48488094D01*
X58478628Y-48488094D02*
X58573866Y-48535713D01*
X58573866Y-48535713D02*
X58764342Y-48535713D01*
X58764342Y-48535713D02*
X58859580Y-48488094D01*
X58859580Y-48488094D02*
X58907200Y-48440475D01*
X58907200Y-48440475D02*
X58954819Y-48345237D01*
X58954819Y-48345237D02*
X58954819Y-48154761D01*
X58954819Y-48154761D02*
X58907200Y-48059523D01*
X58907200Y-48059523D02*
X58859580Y-48011904D01*
X58859580Y-48011904D02*
X58764342Y-47964285D01*
X58764342Y-47964285D02*
X58573866Y-47964285D01*
X58573866Y-47964285D02*
X58478628Y-48011904D01*
X58478628Y-48011904D02*
X58431009Y-48059523D01*
X58431009Y-48059523D02*
X58383390Y-48154761D01*
X48109580Y-57416666D02*
X48157200Y-57464285D01*
X48157200Y-57464285D02*
X48204819Y-57607142D01*
X48204819Y-57607142D02*
X48204819Y-57702380D01*
X48204819Y-57702380D02*
X48157200Y-57845237D01*
X48157200Y-57845237D02*
X48061961Y-57940475D01*
X48061961Y-57940475D02*
X47966723Y-57988094D01*
X47966723Y-57988094D02*
X47776247Y-58035713D01*
X47776247Y-58035713D02*
X47633390Y-58035713D01*
X47633390Y-58035713D02*
X47442914Y-57988094D01*
X47442914Y-57988094D02*
X47347676Y-57940475D01*
X47347676Y-57940475D02*
X47252438Y-57845237D01*
X47252438Y-57845237D02*
X47204819Y-57702380D01*
X47204819Y-57702380D02*
X47204819Y-57607142D01*
X47204819Y-57607142D02*
X47252438Y-57464285D01*
X47252438Y-57464285D02*
X47300057Y-57416666D01*
X47204819Y-56559523D02*
X47204819Y-56749999D01*
X47204819Y-56749999D02*
X47252438Y-56845237D01*
X47252438Y-56845237D02*
X47300057Y-56892856D01*
X47300057Y-56892856D02*
X47442914Y-56988094D01*
X47442914Y-56988094D02*
X47633390Y-57035713D01*
X47633390Y-57035713D02*
X48014342Y-57035713D01*
X48014342Y-57035713D02*
X48109580Y-56988094D01*
X48109580Y-56988094D02*
X48157200Y-56940475D01*
X48157200Y-56940475D02*
X48204819Y-56845237D01*
X48204819Y-56845237D02*
X48204819Y-56654761D01*
X48204819Y-56654761D02*
X48157200Y-56559523D01*
X48157200Y-56559523D02*
X48109580Y-56511904D01*
X48109580Y-56511904D02*
X48014342Y-56464285D01*
X48014342Y-56464285D02*
X47776247Y-56464285D01*
X47776247Y-56464285D02*
X47681009Y-56511904D01*
X47681009Y-56511904D02*
X47633390Y-56559523D01*
X47633390Y-56559523D02*
X47585771Y-56654761D01*
X47585771Y-56654761D02*
X47585771Y-56845237D01*
X47585771Y-56845237D02*
X47633390Y-56940475D01*
X47633390Y-56940475D02*
X47681009Y-56988094D01*
X47681009Y-56988094D02*
X47776247Y-57035713D01*
X83084580Y-51152857D02*
X83132200Y-51200476D01*
X83132200Y-51200476D02*
X83179819Y-51343333D01*
X83179819Y-51343333D02*
X83179819Y-51438571D01*
X83179819Y-51438571D02*
X83132200Y-51581428D01*
X83132200Y-51581428D02*
X83036961Y-51676666D01*
X83036961Y-51676666D02*
X82941723Y-51724285D01*
X82941723Y-51724285D02*
X82751247Y-51771904D01*
X82751247Y-51771904D02*
X82608390Y-51771904D01*
X82608390Y-51771904D02*
X82417914Y-51724285D01*
X82417914Y-51724285D02*
X82322676Y-51676666D01*
X82322676Y-51676666D02*
X82227438Y-51581428D01*
X82227438Y-51581428D02*
X82179819Y-51438571D01*
X82179819Y-51438571D02*
X82179819Y-51343333D01*
X82179819Y-51343333D02*
X82227438Y-51200476D01*
X82227438Y-51200476D02*
X82275057Y-51152857D01*
X83179819Y-50200476D02*
X83179819Y-50771904D01*
X83179819Y-50486190D02*
X82179819Y-50486190D01*
X82179819Y-50486190D02*
X82322676Y-50581428D01*
X82322676Y-50581428D02*
X82417914Y-50676666D01*
X82417914Y-50676666D02*
X82465533Y-50771904D01*
X82179819Y-49295714D02*
X82179819Y-49771904D01*
X82179819Y-49771904D02*
X82656009Y-49819523D01*
X82656009Y-49819523D02*
X82608390Y-49771904D01*
X82608390Y-49771904D02*
X82560771Y-49676666D01*
X82560771Y-49676666D02*
X82560771Y-49438571D01*
X82560771Y-49438571D02*
X82608390Y-49343333D01*
X82608390Y-49343333D02*
X82656009Y-49295714D01*
X82656009Y-49295714D02*
X82751247Y-49248095D01*
X82751247Y-49248095D02*
X82989342Y-49248095D01*
X82989342Y-49248095D02*
X83084580Y-49295714D01*
X83084580Y-49295714D02*
X83132200Y-49343333D01*
X83132200Y-49343333D02*
X83179819Y-49438571D01*
X83179819Y-49438571D02*
X83179819Y-49676666D01*
X83179819Y-49676666D02*
X83132200Y-49771904D01*
X83132200Y-49771904D02*
X83084580Y-49819523D01*
X77666666Y-57954819D02*
X77666666Y-58669104D01*
X77666666Y-58669104D02*
X77619047Y-58811961D01*
X77619047Y-58811961D02*
X77523809Y-58907200D01*
X77523809Y-58907200D02*
X77380952Y-58954819D01*
X77380952Y-58954819D02*
X77285714Y-58954819D01*
X78047619Y-57954819D02*
X78666666Y-57954819D01*
X78666666Y-57954819D02*
X78333333Y-58335771D01*
X78333333Y-58335771D02*
X78476190Y-58335771D01*
X78476190Y-58335771D02*
X78571428Y-58383390D01*
X78571428Y-58383390D02*
X78619047Y-58431009D01*
X78619047Y-58431009D02*
X78666666Y-58526247D01*
X78666666Y-58526247D02*
X78666666Y-58764342D01*
X78666666Y-58764342D02*
X78619047Y-58859580D01*
X78619047Y-58859580D02*
X78571428Y-58907200D01*
X78571428Y-58907200D02*
X78476190Y-58954819D01*
X78476190Y-58954819D02*
X78190476Y-58954819D01*
X78190476Y-58954819D02*
X78095238Y-58907200D01*
X78095238Y-58907200D02*
X78047619Y-58859580D01*
X82011905Y-29954819D02*
X82630952Y-29954819D01*
X82630952Y-29954819D02*
X82297619Y-30335771D01*
X82297619Y-30335771D02*
X82440476Y-30335771D01*
X82440476Y-30335771D02*
X82535714Y-30383390D01*
X82535714Y-30383390D02*
X82583333Y-30431009D01*
X82583333Y-30431009D02*
X82630952Y-30526247D01*
X82630952Y-30526247D02*
X82630952Y-30764342D01*
X82630952Y-30764342D02*
X82583333Y-30859580D01*
X82583333Y-30859580D02*
X82535714Y-30907200D01*
X82535714Y-30907200D02*
X82440476Y-30954819D01*
X82440476Y-30954819D02*
X82154762Y-30954819D01*
X82154762Y-30954819D02*
X82059524Y-30907200D01*
X82059524Y-30907200D02*
X82011905Y-30859580D01*
X82916667Y-29954819D02*
X83250000Y-30954819D01*
X83250000Y-30954819D02*
X83583333Y-29954819D01*
X83821429Y-29954819D02*
X84440476Y-29954819D01*
X84440476Y-29954819D02*
X84107143Y-30335771D01*
X84107143Y-30335771D02*
X84250000Y-30335771D01*
X84250000Y-30335771D02*
X84345238Y-30383390D01*
X84345238Y-30383390D02*
X84392857Y-30431009D01*
X84392857Y-30431009D02*
X84440476Y-30526247D01*
X84440476Y-30526247D02*
X84440476Y-30764342D01*
X84440476Y-30764342D02*
X84392857Y-30859580D01*
X84392857Y-30859580D02*
X84345238Y-30907200D01*
X84345238Y-30907200D02*
X84250000Y-30954819D01*
X84250000Y-30954819D02*
X83964286Y-30954819D01*
X83964286Y-30954819D02*
X83869048Y-30907200D01*
X83869048Y-30907200D02*
X83821429Y-30859580D01*
X41014819Y-55454094D02*
X40014819Y-55454094D01*
X40014819Y-55454094D02*
X40014819Y-55215999D01*
X40014819Y-55215999D02*
X40062438Y-55073142D01*
X40062438Y-55073142D02*
X40157676Y-54977904D01*
X40157676Y-54977904D02*
X40252914Y-54930285D01*
X40252914Y-54930285D02*
X40443390Y-54882666D01*
X40443390Y-54882666D02*
X40586247Y-54882666D01*
X40586247Y-54882666D02*
X40776723Y-54930285D01*
X40776723Y-54930285D02*
X40871961Y-54977904D01*
X40871961Y-54977904D02*
X40967200Y-55073142D01*
X40967200Y-55073142D02*
X41014819Y-55215999D01*
X41014819Y-55215999D02*
X41014819Y-55454094D01*
X40110057Y-54501713D02*
X40062438Y-54454094D01*
X40062438Y-54454094D02*
X40014819Y-54358856D01*
X40014819Y-54358856D02*
X40014819Y-54120761D01*
X40014819Y-54120761D02*
X40062438Y-54025523D01*
X40062438Y-54025523D02*
X40110057Y-53977904D01*
X40110057Y-53977904D02*
X40205295Y-53930285D01*
X40205295Y-53930285D02*
X40300533Y-53930285D01*
X40300533Y-53930285D02*
X40443390Y-53977904D01*
X40443390Y-53977904D02*
X41014819Y-54549332D01*
X41014819Y-54549332D02*
X41014819Y-53930285D01*
X54454819Y-47142857D02*
X53978628Y-47476190D01*
X54454819Y-47714285D02*
X53454819Y-47714285D01*
X53454819Y-47714285D02*
X53454819Y-47333333D01*
X53454819Y-47333333D02*
X53502438Y-47238095D01*
X53502438Y-47238095D02*
X53550057Y-47190476D01*
X53550057Y-47190476D02*
X53645295Y-47142857D01*
X53645295Y-47142857D02*
X53788152Y-47142857D01*
X53788152Y-47142857D02*
X53883390Y-47190476D01*
X53883390Y-47190476D02*
X53931009Y-47238095D01*
X53931009Y-47238095D02*
X53978628Y-47333333D01*
X53978628Y-47333333D02*
X53978628Y-47714285D01*
X54454819Y-46190476D02*
X54454819Y-46761904D01*
X54454819Y-46476190D02*
X53454819Y-46476190D01*
X53454819Y-46476190D02*
X53597676Y-46571428D01*
X53597676Y-46571428D02*
X53692914Y-46666666D01*
X53692914Y-46666666D02*
X53740533Y-46761904D01*
X53454819Y-45571428D02*
X53454819Y-45476190D01*
X53454819Y-45476190D02*
X53502438Y-45380952D01*
X53502438Y-45380952D02*
X53550057Y-45333333D01*
X53550057Y-45333333D02*
X53645295Y-45285714D01*
X53645295Y-45285714D02*
X53835771Y-45238095D01*
X53835771Y-45238095D02*
X54073866Y-45238095D01*
X54073866Y-45238095D02*
X54264342Y-45285714D01*
X54264342Y-45285714D02*
X54359580Y-45333333D01*
X54359580Y-45333333D02*
X54407200Y-45380952D01*
X54407200Y-45380952D02*
X54454819Y-45476190D01*
X54454819Y-45476190D02*
X54454819Y-45571428D01*
X54454819Y-45571428D02*
X54407200Y-45666666D01*
X54407200Y-45666666D02*
X54359580Y-45714285D01*
X54359580Y-45714285D02*
X54264342Y-45761904D01*
X54264342Y-45761904D02*
X54073866Y-45809523D01*
X54073866Y-45809523D02*
X53835771Y-45809523D01*
X53835771Y-45809523D02*
X53645295Y-45761904D01*
X53645295Y-45761904D02*
X53550057Y-45714285D01*
X53550057Y-45714285D02*
X53502438Y-45666666D01*
X53502438Y-45666666D02*
X53454819Y-45571428D01*
X71083333Y-36454819D02*
X70750000Y-35978628D01*
X70511905Y-36454819D02*
X70511905Y-35454819D01*
X70511905Y-35454819D02*
X70892857Y-35454819D01*
X70892857Y-35454819D02*
X70988095Y-35502438D01*
X70988095Y-35502438D02*
X71035714Y-35550057D01*
X71035714Y-35550057D02*
X71083333Y-35645295D01*
X71083333Y-35645295D02*
X71083333Y-35788152D01*
X71083333Y-35788152D02*
X71035714Y-35883390D01*
X71035714Y-35883390D02*
X70988095Y-35931009D01*
X70988095Y-35931009D02*
X70892857Y-35978628D01*
X70892857Y-35978628D02*
X70511905Y-35978628D01*
X71940476Y-35788152D02*
X71940476Y-36454819D01*
X71702381Y-35407200D02*
X71464286Y-36121485D01*
X71464286Y-36121485D02*
X72083333Y-36121485D01*
X75083333Y-49022080D02*
X75035714Y-49069700D01*
X75035714Y-49069700D02*
X74892857Y-49117319D01*
X74892857Y-49117319D02*
X74797619Y-49117319D01*
X74797619Y-49117319D02*
X74654762Y-49069700D01*
X74654762Y-49069700D02*
X74559524Y-48974461D01*
X74559524Y-48974461D02*
X74511905Y-48879223D01*
X74511905Y-48879223D02*
X74464286Y-48688747D01*
X74464286Y-48688747D02*
X74464286Y-48545890D01*
X74464286Y-48545890D02*
X74511905Y-48355414D01*
X74511905Y-48355414D02*
X74559524Y-48260176D01*
X74559524Y-48260176D02*
X74654762Y-48164938D01*
X74654762Y-48164938D02*
X74797619Y-48117319D01*
X74797619Y-48117319D02*
X74892857Y-48117319D01*
X74892857Y-48117319D02*
X75035714Y-48164938D01*
X75035714Y-48164938D02*
X75083333Y-48212557D01*
X75654762Y-48545890D02*
X75559524Y-48498271D01*
X75559524Y-48498271D02*
X75511905Y-48450652D01*
X75511905Y-48450652D02*
X75464286Y-48355414D01*
X75464286Y-48355414D02*
X75464286Y-48307795D01*
X75464286Y-48307795D02*
X75511905Y-48212557D01*
X75511905Y-48212557D02*
X75559524Y-48164938D01*
X75559524Y-48164938D02*
X75654762Y-48117319D01*
X75654762Y-48117319D02*
X75845238Y-48117319D01*
X75845238Y-48117319D02*
X75940476Y-48164938D01*
X75940476Y-48164938D02*
X75988095Y-48212557D01*
X75988095Y-48212557D02*
X76035714Y-48307795D01*
X76035714Y-48307795D02*
X76035714Y-48355414D01*
X76035714Y-48355414D02*
X75988095Y-48450652D01*
X75988095Y-48450652D02*
X75940476Y-48498271D01*
X75940476Y-48498271D02*
X75845238Y-48545890D01*
X75845238Y-48545890D02*
X75654762Y-48545890D01*
X75654762Y-48545890D02*
X75559524Y-48593509D01*
X75559524Y-48593509D02*
X75511905Y-48641128D01*
X75511905Y-48641128D02*
X75464286Y-48736366D01*
X75464286Y-48736366D02*
X75464286Y-48926842D01*
X75464286Y-48926842D02*
X75511905Y-49022080D01*
X75511905Y-49022080D02*
X75559524Y-49069700D01*
X75559524Y-49069700D02*
X75654762Y-49117319D01*
X75654762Y-49117319D02*
X75845238Y-49117319D01*
X75845238Y-49117319D02*
X75940476Y-49069700D01*
X75940476Y-49069700D02*
X75988095Y-49022080D01*
X75988095Y-49022080D02*
X76035714Y-48926842D01*
X76035714Y-48926842D02*
X76035714Y-48736366D01*
X76035714Y-48736366D02*
X75988095Y-48641128D01*
X75988095Y-48641128D02*
X75940476Y-48593509D01*
X75940476Y-48593509D02*
X75845238Y-48545890D01*
X53179580Y-54642857D02*
X53227200Y-54690476D01*
X53227200Y-54690476D02*
X53274819Y-54833333D01*
X53274819Y-54833333D02*
X53274819Y-54928571D01*
X53274819Y-54928571D02*
X53227200Y-55071428D01*
X53227200Y-55071428D02*
X53131961Y-55166666D01*
X53131961Y-55166666D02*
X53036723Y-55214285D01*
X53036723Y-55214285D02*
X52846247Y-55261904D01*
X52846247Y-55261904D02*
X52703390Y-55261904D01*
X52703390Y-55261904D02*
X52512914Y-55214285D01*
X52512914Y-55214285D02*
X52417676Y-55166666D01*
X52417676Y-55166666D02*
X52322438Y-55071428D01*
X52322438Y-55071428D02*
X52274819Y-54928571D01*
X52274819Y-54928571D02*
X52274819Y-54833333D01*
X52274819Y-54833333D02*
X52322438Y-54690476D01*
X52322438Y-54690476D02*
X52370057Y-54642857D01*
X53274819Y-53690476D02*
X53274819Y-54261904D01*
X53274819Y-53976190D02*
X52274819Y-53976190D01*
X52274819Y-53976190D02*
X52417676Y-54071428D01*
X52417676Y-54071428D02*
X52512914Y-54166666D01*
X52512914Y-54166666D02*
X52560533Y-54261904D01*
X52274819Y-53071428D02*
X52274819Y-52976190D01*
X52274819Y-52976190D02*
X52322438Y-52880952D01*
X52322438Y-52880952D02*
X52370057Y-52833333D01*
X52370057Y-52833333D02*
X52465295Y-52785714D01*
X52465295Y-52785714D02*
X52655771Y-52738095D01*
X52655771Y-52738095D02*
X52893866Y-52738095D01*
X52893866Y-52738095D02*
X53084342Y-52785714D01*
X53084342Y-52785714D02*
X53179580Y-52833333D01*
X53179580Y-52833333D02*
X53227200Y-52880952D01*
X53227200Y-52880952D02*
X53274819Y-52976190D01*
X53274819Y-52976190D02*
X53274819Y-53071428D01*
X53274819Y-53071428D02*
X53227200Y-53166666D01*
X53227200Y-53166666D02*
X53179580Y-53214285D01*
X53179580Y-53214285D02*
X53084342Y-53261904D01*
X53084342Y-53261904D02*
X52893866Y-53309523D01*
X52893866Y-53309523D02*
X52655771Y-53309523D01*
X52655771Y-53309523D02*
X52465295Y-53261904D01*
X52465295Y-53261904D02*
X52370057Y-53214285D01*
X52370057Y-53214285D02*
X52322438Y-53166666D01*
X52322438Y-53166666D02*
X52274819Y-53071428D01*
X62083333Y-42204819D02*
X61750000Y-41728628D01*
X61511905Y-42204819D02*
X61511905Y-41204819D01*
X61511905Y-41204819D02*
X61892857Y-41204819D01*
X61892857Y-41204819D02*
X61988095Y-41252438D01*
X61988095Y-41252438D02*
X62035714Y-41300057D01*
X62035714Y-41300057D02*
X62083333Y-41395295D01*
X62083333Y-41395295D02*
X62083333Y-41538152D01*
X62083333Y-41538152D02*
X62035714Y-41633390D01*
X62035714Y-41633390D02*
X61988095Y-41681009D01*
X61988095Y-41681009D02*
X61892857Y-41728628D01*
X61892857Y-41728628D02*
X61511905Y-41728628D01*
X62416667Y-41204819D02*
X63083333Y-41204819D01*
X63083333Y-41204819D02*
X62654762Y-42204819D01*
X45333333Y-31679580D02*
X45285714Y-31727200D01*
X45285714Y-31727200D02*
X45142857Y-31774819D01*
X45142857Y-31774819D02*
X45047619Y-31774819D01*
X45047619Y-31774819D02*
X44904762Y-31727200D01*
X44904762Y-31727200D02*
X44809524Y-31631961D01*
X44809524Y-31631961D02*
X44761905Y-31536723D01*
X44761905Y-31536723D02*
X44714286Y-31346247D01*
X44714286Y-31346247D02*
X44714286Y-31203390D01*
X44714286Y-31203390D02*
X44761905Y-31012914D01*
X44761905Y-31012914D02*
X44809524Y-30917676D01*
X44809524Y-30917676D02*
X44904762Y-30822438D01*
X44904762Y-30822438D02*
X45047619Y-30774819D01*
X45047619Y-30774819D02*
X45142857Y-30774819D01*
X45142857Y-30774819D02*
X45285714Y-30822438D01*
X45285714Y-30822438D02*
X45333333Y-30870057D01*
X45666667Y-30774819D02*
X46285714Y-30774819D01*
X46285714Y-30774819D02*
X45952381Y-31155771D01*
X45952381Y-31155771D02*
X46095238Y-31155771D01*
X46095238Y-31155771D02*
X46190476Y-31203390D01*
X46190476Y-31203390D02*
X46238095Y-31251009D01*
X46238095Y-31251009D02*
X46285714Y-31346247D01*
X46285714Y-31346247D02*
X46285714Y-31584342D01*
X46285714Y-31584342D02*
X46238095Y-31679580D01*
X46238095Y-31679580D02*
X46190476Y-31727200D01*
X46190476Y-31727200D02*
X46095238Y-31774819D01*
X46095238Y-31774819D02*
X45809524Y-31774819D01*
X45809524Y-31774819D02*
X45714286Y-31727200D01*
X45714286Y-31727200D02*
X45666667Y-31679580D01*
X65109580Y-51166666D02*
X65157200Y-51214285D01*
X65157200Y-51214285D02*
X65204819Y-51357142D01*
X65204819Y-51357142D02*
X65204819Y-51452380D01*
X65204819Y-51452380D02*
X65157200Y-51595237D01*
X65157200Y-51595237D02*
X65061961Y-51690475D01*
X65061961Y-51690475D02*
X64966723Y-51738094D01*
X64966723Y-51738094D02*
X64776247Y-51785713D01*
X64776247Y-51785713D02*
X64633390Y-51785713D01*
X64633390Y-51785713D02*
X64442914Y-51738094D01*
X64442914Y-51738094D02*
X64347676Y-51690475D01*
X64347676Y-51690475D02*
X64252438Y-51595237D01*
X64252438Y-51595237D02*
X64204819Y-51452380D01*
X64204819Y-51452380D02*
X64204819Y-51357142D01*
X64204819Y-51357142D02*
X64252438Y-51214285D01*
X64252438Y-51214285D02*
X64300057Y-51166666D01*
X64204819Y-50833332D02*
X64204819Y-50166666D01*
X64204819Y-50166666D02*
X65204819Y-50595237D01*
X41359580Y-37916666D02*
X41407200Y-37964285D01*
X41407200Y-37964285D02*
X41454819Y-38107142D01*
X41454819Y-38107142D02*
X41454819Y-38202380D01*
X41454819Y-38202380D02*
X41407200Y-38345237D01*
X41407200Y-38345237D02*
X41311961Y-38440475D01*
X41311961Y-38440475D02*
X41216723Y-38488094D01*
X41216723Y-38488094D02*
X41026247Y-38535713D01*
X41026247Y-38535713D02*
X40883390Y-38535713D01*
X40883390Y-38535713D02*
X40692914Y-38488094D01*
X40692914Y-38488094D02*
X40597676Y-38440475D01*
X40597676Y-38440475D02*
X40502438Y-38345237D01*
X40502438Y-38345237D02*
X40454819Y-38202380D01*
X40454819Y-38202380D02*
X40454819Y-38107142D01*
X40454819Y-38107142D02*
X40502438Y-37964285D01*
X40502438Y-37964285D02*
X40550057Y-37916666D01*
X40788152Y-37059523D02*
X41454819Y-37059523D01*
X40407200Y-37297618D02*
X41121485Y-37535713D01*
X41121485Y-37535713D02*
X41121485Y-36916666D01*
X52454819Y-40238094D02*
X51454819Y-40238094D01*
X51454819Y-40238094D02*
X51454819Y-39999999D01*
X51454819Y-39999999D02*
X51502438Y-39857142D01*
X51502438Y-39857142D02*
X51597676Y-39761904D01*
X51597676Y-39761904D02*
X51692914Y-39714285D01*
X51692914Y-39714285D02*
X51883390Y-39666666D01*
X51883390Y-39666666D02*
X52026247Y-39666666D01*
X52026247Y-39666666D02*
X52216723Y-39714285D01*
X52216723Y-39714285D02*
X52311961Y-39761904D01*
X52311961Y-39761904D02*
X52407200Y-39857142D01*
X52407200Y-39857142D02*
X52454819Y-39999999D01*
X52454819Y-39999999D02*
X52454819Y-40238094D01*
X52454819Y-38714285D02*
X52454819Y-39285713D01*
X52454819Y-38999999D02*
X51454819Y-38999999D01*
X51454819Y-38999999D02*
X51597676Y-39095237D01*
X51597676Y-39095237D02*
X51692914Y-39190475D01*
X51692914Y-39190475D02*
X51740533Y-39285713D01*
X45083333Y-43634819D02*
X44750000Y-43158628D01*
X44511905Y-43634819D02*
X44511905Y-42634819D01*
X44511905Y-42634819D02*
X44892857Y-42634819D01*
X44892857Y-42634819D02*
X44988095Y-42682438D01*
X44988095Y-42682438D02*
X45035714Y-42730057D01*
X45035714Y-42730057D02*
X45083333Y-42825295D01*
X45083333Y-42825295D02*
X45083333Y-42968152D01*
X45083333Y-42968152D02*
X45035714Y-43063390D01*
X45035714Y-43063390D02*
X44988095Y-43111009D01*
X44988095Y-43111009D02*
X44892857Y-43158628D01*
X44892857Y-43158628D02*
X44511905Y-43158628D01*
X45416667Y-42634819D02*
X46035714Y-42634819D01*
X46035714Y-42634819D02*
X45702381Y-43015771D01*
X45702381Y-43015771D02*
X45845238Y-43015771D01*
X45845238Y-43015771D02*
X45940476Y-43063390D01*
X45940476Y-43063390D02*
X45988095Y-43111009D01*
X45988095Y-43111009D02*
X46035714Y-43206247D01*
X46035714Y-43206247D02*
X46035714Y-43444342D01*
X46035714Y-43444342D02*
X45988095Y-43539580D01*
X45988095Y-43539580D02*
X45940476Y-43587200D01*
X45940476Y-43587200D02*
X45845238Y-43634819D01*
X45845238Y-43634819D02*
X45559524Y-43634819D01*
X45559524Y-43634819D02*
X45464286Y-43587200D01*
X45464286Y-43587200D02*
X45416667Y-43539580D01*
X57607142Y-40859580D02*
X57559523Y-40907200D01*
X57559523Y-40907200D02*
X57416666Y-40954819D01*
X57416666Y-40954819D02*
X57321428Y-40954819D01*
X57321428Y-40954819D02*
X57178571Y-40907200D01*
X57178571Y-40907200D02*
X57083333Y-40811961D01*
X57083333Y-40811961D02*
X57035714Y-40716723D01*
X57035714Y-40716723D02*
X56988095Y-40526247D01*
X56988095Y-40526247D02*
X56988095Y-40383390D01*
X56988095Y-40383390D02*
X57035714Y-40192914D01*
X57035714Y-40192914D02*
X57083333Y-40097676D01*
X57083333Y-40097676D02*
X57178571Y-40002438D01*
X57178571Y-40002438D02*
X57321428Y-39954819D01*
X57321428Y-39954819D02*
X57416666Y-39954819D01*
X57416666Y-39954819D02*
X57559523Y-40002438D01*
X57559523Y-40002438D02*
X57607142Y-40050057D01*
X58559523Y-40954819D02*
X57988095Y-40954819D01*
X58273809Y-40954819D02*
X58273809Y-39954819D01*
X58273809Y-39954819D02*
X58178571Y-40097676D01*
X58178571Y-40097676D02*
X58083333Y-40192914D01*
X58083333Y-40192914D02*
X57988095Y-40240533D01*
X58892857Y-39954819D02*
X59559523Y-39954819D01*
X59559523Y-39954819D02*
X59130952Y-40954819D01*
X47954819Y-38261904D02*
X48764342Y-38261904D01*
X48764342Y-38261904D02*
X48859580Y-38214285D01*
X48859580Y-38214285D02*
X48907200Y-38166666D01*
X48907200Y-38166666D02*
X48954819Y-38071428D01*
X48954819Y-38071428D02*
X48954819Y-37880952D01*
X48954819Y-37880952D02*
X48907200Y-37785714D01*
X48907200Y-37785714D02*
X48859580Y-37738095D01*
X48859580Y-37738095D02*
X48764342Y-37690476D01*
X48764342Y-37690476D02*
X47954819Y-37690476D01*
X48954819Y-36690476D02*
X48954819Y-37261904D01*
X48954819Y-36976190D02*
X47954819Y-36976190D01*
X47954819Y-36976190D02*
X48097676Y-37071428D01*
X48097676Y-37071428D02*
X48192914Y-37166666D01*
X48192914Y-37166666D02*
X48240533Y-37261904D01*
X44669580Y-54882666D02*
X44717200Y-54930285D01*
X44717200Y-54930285D02*
X44764819Y-55073142D01*
X44764819Y-55073142D02*
X44764819Y-55168380D01*
X44764819Y-55168380D02*
X44717200Y-55311237D01*
X44717200Y-55311237D02*
X44621961Y-55406475D01*
X44621961Y-55406475D02*
X44526723Y-55454094D01*
X44526723Y-55454094D02*
X44336247Y-55501713D01*
X44336247Y-55501713D02*
X44193390Y-55501713D01*
X44193390Y-55501713D02*
X44002914Y-55454094D01*
X44002914Y-55454094D02*
X43907676Y-55406475D01*
X43907676Y-55406475D02*
X43812438Y-55311237D01*
X43812438Y-55311237D02*
X43764819Y-55168380D01*
X43764819Y-55168380D02*
X43764819Y-55073142D01*
X43764819Y-55073142D02*
X43812438Y-54930285D01*
X43812438Y-54930285D02*
X43860057Y-54882666D01*
X44764819Y-53930285D02*
X44764819Y-54501713D01*
X44764819Y-54215999D02*
X43764819Y-54215999D01*
X43764819Y-54215999D02*
X43907676Y-54311237D01*
X43907676Y-54311237D02*
X44002914Y-54406475D01*
X44002914Y-54406475D02*
X44050533Y-54501713D01*
X30988095Y-57252438D02*
X30892857Y-57204819D01*
X30892857Y-57204819D02*
X30750000Y-57204819D01*
X30750000Y-57204819D02*
X30607143Y-57252438D01*
X30607143Y-57252438D02*
X30511905Y-57347676D01*
X30511905Y-57347676D02*
X30464286Y-57442914D01*
X30464286Y-57442914D02*
X30416667Y-57633390D01*
X30416667Y-57633390D02*
X30416667Y-57776247D01*
X30416667Y-57776247D02*
X30464286Y-57966723D01*
X30464286Y-57966723D02*
X30511905Y-58061961D01*
X30511905Y-58061961D02*
X30607143Y-58157200D01*
X30607143Y-58157200D02*
X30750000Y-58204819D01*
X30750000Y-58204819D02*
X30845238Y-58204819D01*
X30845238Y-58204819D02*
X30988095Y-58157200D01*
X30988095Y-58157200D02*
X31035714Y-58109580D01*
X31035714Y-58109580D02*
X31035714Y-57776247D01*
X31035714Y-57776247D02*
X30845238Y-57776247D01*
X31464286Y-58204819D02*
X31464286Y-57204819D01*
X31464286Y-57204819D02*
X32035714Y-58204819D01*
X32035714Y-58204819D02*
X32035714Y-57204819D01*
X32511905Y-58204819D02*
X32511905Y-57204819D01*
X32511905Y-57204819D02*
X32750000Y-57204819D01*
X32750000Y-57204819D02*
X32892857Y-57252438D01*
X32892857Y-57252438D02*
X32988095Y-57347676D01*
X32988095Y-57347676D02*
X33035714Y-57442914D01*
X33035714Y-57442914D02*
X33083333Y-57633390D01*
X33083333Y-57633390D02*
X33083333Y-57776247D01*
X33083333Y-57776247D02*
X33035714Y-57966723D01*
X33035714Y-57966723D02*
X32988095Y-58061961D01*
X32988095Y-58061961D02*
X32892857Y-58157200D01*
X32892857Y-58157200D02*
X32750000Y-58204819D01*
X32750000Y-58204819D02*
X32511905Y-58204819D01*
D12*
%TO.C,REF\u002A\u002A*%
X78450000Y-48250000D02*
G75*
G02*
X77050000Y-48250000I-700000J0D01*
G01*
X77050000Y-48250000D02*
G75*
G02*
X78450000Y-48250000I700000J0D01*
G01*
X72450000Y-52500000D02*
G75*
G02*
X71050000Y-52500000I-700000J0D01*
G01*
X71050000Y-52500000D02*
G75*
G02*
X72450000Y-52500000I700000J0D01*
G01*
X61450000Y-52750000D02*
G75*
G02*
X60050000Y-52750000I-700000J0D01*
G01*
X60050000Y-52750000D02*
G75*
G02*
X61450000Y-52750000I700000J0D01*
G01*
X59450000Y-46000000D02*
G75*
G02*
X58050000Y-46000000I-700000J0D01*
G01*
X58050000Y-46000000D02*
G75*
G02*
X59450000Y-46000000I700000J0D01*
G01*
X76450000Y-35250000D02*
G75*
G02*
X75050000Y-35250000I-700000J0D01*
G01*
X75050000Y-35250000D02*
G75*
G02*
X76450000Y-35250000I700000J0D01*
G01*
X72950000Y-54500000D02*
G75*
G02*
X71550000Y-54500000I-700000J0D01*
G01*
X71550000Y-54500000D02*
G75*
G02*
X72950000Y-54500000I700000J0D01*
G01*
X64450000Y-54000000D02*
G75*
G02*
X63050000Y-54000000I-700000J0D01*
G01*
X63050000Y-54000000D02*
G75*
G02*
X64450000Y-54000000I700000J0D01*
G01*
X66450000Y-30750000D02*
G75*
G02*
X65050000Y-30750000I-700000J0D01*
G01*
X65050000Y-30750000D02*
G75*
G02*
X66450000Y-30750000I700000J0D01*
G01*
X74200000Y-33250000D02*
G75*
G02*
X72800000Y-33250000I-700000J0D01*
G01*
X72800000Y-33250000D02*
G75*
G02*
X74200000Y-33250000I700000J0D01*
G01*
X78450000Y-33250000D02*
G75*
G02*
X77050000Y-33250000I-700000J0D01*
G01*
X77050000Y-33250000D02*
G75*
G02*
X78450000Y-33250000I700000J0D01*
G01*
X80700000Y-41750000D02*
G75*
G02*
X79300000Y-41750000I-700000J0D01*
G01*
X79300000Y-41750000D02*
G75*
G02*
X80700000Y-41750000I700000J0D01*
G01*
%TO.C,SDA*%
X85200000Y-37500000D02*
G75*
G02*
X83800000Y-37500000I-700000J0D01*
G01*
X83800000Y-37500000D02*
G75*
G02*
X85200000Y-37500000I700000J0D01*
G01*
%TO.C,3V3*%
X79950000Y-36750000D02*
G75*
G02*
X78550000Y-36750000I-700000J0D01*
G01*
X78550000Y-36750000D02*
G75*
G02*
X79950000Y-36750000I700000J0D01*
G01*
%TO.C,REF\u002A\u002A*%
X81200000Y-46750000D02*
G75*
G02*
X79800000Y-46750000I-700000J0D01*
G01*
X79800000Y-46750000D02*
G75*
G02*
X81200000Y-46750000I700000J0D01*
G01*
%TO.C,3V3*%
X80450000Y-51500000D02*
G75*
G02*
X79050000Y-51500000I-700000J0D01*
G01*
X79050000Y-51500000D02*
G75*
G02*
X80450000Y-51500000I700000J0D01*
G01*
%TO.C,SW*%
X64450000Y-28750000D02*
G75*
G02*
X63050000Y-28750000I-700000J0D01*
G01*
X63050000Y-28750000D02*
G75*
G02*
X64450000Y-28750000I700000J0D01*
G01*
%TO.C,3V3*%
X60450000Y-33750000D02*
G75*
G02*
X59050000Y-33750000I-700000J0D01*
G01*
X59050000Y-33750000D02*
G75*
G02*
X60450000Y-33750000I700000J0D01*
G01*
%TO.C, VBAT*%
X46200000Y-51500000D02*
G75*
G02*
X44800000Y-51500000I-700000J0D01*
G01*
X44800000Y-51500000D02*
G75*
G02*
X46200000Y-51500000I700000J0D01*
G01*
%TO.C,3V3*%
X54200000Y-51000000D02*
G75*
G02*
X52800000Y-51000000I-700000J0D01*
G01*
X52800000Y-51000000D02*
G75*
G02*
X54200000Y-51000000I700000J0D01*
G01*
%TO.C,VBAT*%
X52950000Y-44250000D02*
G75*
G02*
X51550000Y-44250000I-700000J0D01*
G01*
X51550000Y-44250000D02*
G75*
G02*
X52950000Y-44250000I700000J0D01*
G01*
%TO.C,VBUS*%
X39950000Y-37000000D02*
G75*
G02*
X38550000Y-37000000I-700000J0D01*
G01*
X38550000Y-37000000D02*
G75*
G02*
X39950000Y-37000000I700000J0D01*
G01*
X35950000Y-55750000D02*
G75*
G02*
X34550000Y-55750000I-700000J0D01*
G01*
X34550000Y-55750000D02*
G75*
G02*
X35950000Y-55750000I700000J0D01*
G01*
%TO.C,VBAT*%
X40200000Y-32000000D02*
G75*
G02*
X38800000Y-32000000I-700000J0D01*
G01*
X38800000Y-32000000D02*
G75*
G02*
X40200000Y-32000000I700000J0D01*
G01*
%TO.C,GND*%
X84450000Y-55500000D02*
G75*
G02*
X83050000Y-55500000I-700000J0D01*
G01*
X83050000Y-55500000D02*
G75*
G02*
X84450000Y-55500000I700000J0D01*
G01*
X88200000Y-33000000D02*
G75*
G02*
X86800000Y-33000000I-700000J0D01*
G01*
X86800000Y-33000000D02*
G75*
G02*
X88200000Y-33000000I700000J0D01*
G01*
X40200000Y-28250000D02*
G75*
G02*
X38800000Y-28250000I-700000J0D01*
G01*
X38800000Y-28250000D02*
G75*
G02*
X40200000Y-28250000I700000J0D01*
G01*
%TO.C,R1*%
X38055276Y-49193500D02*
X38564724Y-49193500D01*
X38055276Y-50238500D02*
X38564724Y-50238500D01*
%TO.C,R5*%
X79004724Y-43227500D02*
X78495276Y-43227500D01*
X79004724Y-44272500D02*
X78495276Y-44272500D01*
%TO.C,J2*%
X86395000Y-46030000D02*
X86395000Y-38350000D01*
X86395000Y-48630000D02*
X86395000Y-47300000D01*
X87725000Y-48630000D02*
X86395000Y-48630000D01*
X89055000Y-38350000D02*
X86395000Y-38350000D01*
X89055000Y-46030000D02*
X86395000Y-46030000D01*
X89055000Y-46030000D02*
X89055000Y-38350000D01*
%TO.C,SW*%
X52380000Y-26380000D02*
X52380000Y-26780000D01*
X52380000Y-27720000D02*
X52380000Y-29780000D01*
X52380000Y-31120000D02*
X52380000Y-30720000D01*
X57120000Y-26380000D02*
X52380000Y-26380000D01*
X57120000Y-26380000D02*
X57120000Y-26780000D01*
X57120000Y-27720000D02*
X57120000Y-29780000D01*
X57120000Y-31120000D02*
X52380000Y-31120000D01*
X57120000Y-31120000D02*
X57120000Y-30720000D01*
%TO.C,C12*%
X63146267Y-33740000D02*
X62853733Y-33740000D01*
X63146267Y-34760000D02*
X62853733Y-34760000D01*
%TO.C,J5*%
X68250000Y-26120000D02*
X68250000Y-28880000D01*
X78520000Y-26120000D02*
X68250000Y-26120000D01*
X78520000Y-26120000D02*
X78520000Y-28880000D01*
X78520000Y-28880000D02*
X68250000Y-28880000D01*
X79790000Y-26120000D02*
X81170000Y-26120000D01*
X81170000Y-26120000D02*
X81170000Y-27500000D01*
%TO.C,U2*%
X48140000Y-51850000D02*
X48140000Y-53650000D01*
X51360000Y-52850000D02*
X51360000Y-52050000D01*
X51360000Y-52850000D02*
X51360000Y-53650000D01*
X51640000Y-51790000D02*
X51310000Y-51550000D01*
X51640000Y-51310000D01*
X51640000Y-51790000D01*
G36*
X51640000Y-51790000D02*
G01*
X51310000Y-51550000D01*
X51640000Y-51310000D01*
X51640000Y-51790000D01*
G37*
%TO.C,C9*%
X76603733Y-40740000D02*
X76896267Y-40740000D01*
X76603733Y-41760000D02*
X76896267Y-41760000D01*
%TO.C,C13*%
X75146267Y-37990000D02*
X74853733Y-37990000D01*
X75146267Y-39010000D02*
X74853733Y-39010000D01*
%TO.C,FB1*%
X62987258Y-37227500D02*
X62512742Y-37227500D01*
X62987258Y-38272500D02*
X62512742Y-38272500D01*
%TO.C,R9*%
X55477500Y-42495276D02*
X55477500Y-43004724D01*
X56522500Y-42495276D02*
X56522500Y-43004724D01*
%TO.C,D4*%
X57765000Y-51700000D02*
X57765000Y-54160000D01*
X57765000Y-54160000D02*
X59235000Y-54160000D01*
X59235000Y-54160000D02*
X59235000Y-51700000D01*
%TO.C,C16*%
X77910000Y-54853733D02*
X77910000Y-55146267D01*
X78930000Y-54853733D02*
X78930000Y-55146267D01*
%TO.C,C11*%
X65490000Y-37146267D02*
X65490000Y-36853733D01*
X66510000Y-37146267D02*
X66510000Y-36853733D01*
%TO.C,C5*%
X48990000Y-46396267D02*
X48990000Y-46103733D01*
X50010000Y-46396267D02*
X50010000Y-46103733D01*
%TO.C,D3*%
X58015000Y-34965000D02*
X58015000Y-37425000D01*
X59485000Y-34965000D02*
X58015000Y-34965000D01*
X59485000Y-37425000D02*
X59485000Y-34965000D01*
%TO.C,U3*%
X64890000Y-41802500D02*
X65340000Y-41802500D01*
X64890000Y-42252500D02*
X64890000Y-41802500D01*
X64890000Y-48572500D02*
X64890000Y-49022500D01*
X64890000Y-49022500D02*
X65340000Y-49022500D01*
X72110000Y-41802500D02*
X71660000Y-41802500D01*
X72110000Y-42252500D02*
X72110000Y-41802500D01*
X72110000Y-48572500D02*
X72110000Y-49022500D01*
X72110000Y-49022500D02*
X71660000Y-49022500D01*
X72130000Y-41552500D02*
X71660000Y-41212500D01*
X72130000Y-40872500D01*
X72130000Y-41552500D01*
G36*
X72130000Y-41552500D02*
G01*
X71660000Y-41212500D01*
X72130000Y-40872500D01*
X72130000Y-41552500D01*
G37*
%TO.C,C2*%
X39396267Y-42740000D02*
X39103733Y-42740000D01*
X39396267Y-43760000D02*
X39103733Y-43760000D01*
%TO.C,C14*%
X67990000Y-36396267D02*
X67990000Y-36103733D01*
X69010000Y-36396267D02*
X69010000Y-36103733D01*
%TO.C,J4*%
X26100000Y-44016000D02*
X26100000Y-53416000D01*
X28000000Y-44016000D02*
X26100000Y-44016000D01*
X28000000Y-53416000D02*
X26100000Y-53416000D01*
X31900000Y-44016000D02*
X29900000Y-44016000D01*
X31900000Y-53416000D02*
X29900000Y-53416000D01*
%TO.C,R2*%
X49977500Y-35754724D02*
X49977500Y-35245276D01*
X51022500Y-35754724D02*
X51022500Y-35245276D01*
%TO.C,J1*%
X26740000Y-33160000D02*
X26740000Y-37840000D01*
X30310000Y-31440000D02*
X34560000Y-31440000D01*
X30310000Y-39560000D02*
X34560000Y-39560000D01*
X32960000Y-32460000D02*
X32960000Y-33740000D01*
X32960000Y-33740000D02*
X35850000Y-33740000D01*
X32960000Y-38540000D02*
X32960000Y-37260000D01*
X34560000Y-31440000D02*
X34560000Y-32460000D01*
X34560000Y-32460000D02*
X32960000Y-32460000D01*
X34560000Y-38540000D02*
X32960000Y-38540000D01*
X34560000Y-39560000D02*
X34560000Y-38540000D01*
%TO.C,R6*%
X38055276Y-45943500D02*
X38564724Y-45943500D01*
X38055276Y-46988500D02*
X38564724Y-46988500D01*
%TO.C,R8*%
X59477500Y-48495276D02*
X59477500Y-49004724D01*
X60522500Y-48495276D02*
X60522500Y-49004724D01*
%TO.C,C6*%
X48740000Y-57103733D02*
X48740000Y-57396267D01*
X49760000Y-57103733D02*
X49760000Y-57396267D01*
%TO.C,C15*%
X83965000Y-50363733D02*
X83965000Y-50656267D01*
X84985000Y-50363733D02*
X84985000Y-50656267D01*
%TO.C,J3*%
X55760000Y-56170000D02*
X55760000Y-58830000D01*
X73600000Y-56170000D02*
X55760000Y-56170000D01*
X73600000Y-56170000D02*
X73600000Y-58830000D01*
X73600000Y-58830000D02*
X55760000Y-58830000D01*
X76200000Y-57500000D02*
X76200000Y-58830000D01*
X76200000Y-58830000D02*
X74870000Y-58830000D01*
%TO.C,3V3*%
X84200000Y-32750000D02*
G75*
G02*
X82800000Y-32750000I-700000J0D01*
G01*
X82800000Y-32750000D02*
G75*
G02*
X84200000Y-32750000I700000J0D01*
G01*
%TO.C,D2*%
X37550000Y-52356000D02*
X37550000Y-56116000D01*
X39570000Y-52356000D02*
X37550000Y-52356000D01*
X39570000Y-52356000D02*
X39570000Y-56116000D01*
%TO.C,R10*%
X55090000Y-47022936D02*
X55090000Y-48477064D01*
X56910000Y-47022936D02*
X56910000Y-48477064D01*
%TO.C,R4*%
X71504724Y-36977500D02*
X70995276Y-36977500D01*
X71504724Y-38022500D02*
X70995276Y-38022500D01*
%TO.C,C8*%
X75146267Y-49652500D02*
X74853733Y-49652500D01*
X75146267Y-50672500D02*
X74853733Y-50672500D01*
%TO.C,C10*%
X53740000Y-54146267D02*
X53740000Y-53853733D01*
X54760000Y-54146267D02*
X54760000Y-53853733D01*
%TO.C,R7*%
X61754724Y-39477500D02*
X61245276Y-39477500D01*
X61754724Y-40522500D02*
X61245276Y-40522500D01*
%TO.C,C3*%
X45353733Y-32240000D02*
X45646267Y-32240000D01*
X45353733Y-33260000D02*
X45646267Y-33260000D01*
%TO.C,C7*%
X62490000Y-50853733D02*
X62490000Y-51146267D01*
X63510000Y-50853733D02*
X63510000Y-51146267D01*
%TO.C,C4*%
X42240000Y-36853733D02*
X42240000Y-37146267D01*
X43260000Y-36853733D02*
X43260000Y-37146267D01*
%TO.C,D1*%
X49765000Y-37840000D02*
X49765000Y-40300000D01*
X51235000Y-37840000D02*
X49765000Y-37840000D01*
X51235000Y-40300000D02*
X51235000Y-37840000D01*
%TO.C,R3*%
X45504724Y-41227500D02*
X44995276Y-41227500D01*
X45504724Y-42272500D02*
X44995276Y-42272500D01*
%TO.C,C17*%
X59396267Y-41740000D02*
X59103733Y-41740000D01*
X59396267Y-42760000D02*
X59103733Y-42760000D01*
%TO.C,U1*%
X44390000Y-36600000D02*
X44390000Y-38400000D01*
X47610000Y-37600000D02*
X47610000Y-36800000D01*
X47610000Y-37600000D02*
X47610000Y-38400000D01*
X47890000Y-36540000D02*
X47560000Y-36300000D01*
X47890000Y-36060000D01*
X47890000Y-36540000D01*
G36*
X47890000Y-36540000D02*
G01*
X47560000Y-36300000D01*
X47890000Y-36060000D01*
X47890000Y-36540000D01*
G37*
%TO.C,C1*%
X41825000Y-54977252D02*
X41825000Y-54454748D01*
X43295000Y-54977252D02*
X43295000Y-54454748D01*
%TO.C,GND*%
X32450000Y-56000000D02*
G75*
G02*
X31050000Y-56000000I-700000J0D01*
G01*
X31050000Y-56000000D02*
G75*
G02*
X32450000Y-56000000I700000J0D01*
G01*
%TD*%
M02*
