%TF.GenerationSoftware,KiCad,Pcbnew,9.0.2*%
%TF.CreationDate,2025-08-19T18:25:56-04:00*%
%TF.ProjectId,GymDevice,47796d44-6576-4696-9365-2e6b69636164,rev?*%
%TF.SameCoordinates,Original*%
%TF.FileFunction,Copper,L3,Inr*%
%TF.FilePolarity,Positive*%
%FSLAX46Y46*%
G04 Gerber Fmt 4.6, Leading zero omitted, Abs format (unit mm)*
G04 Created by KiCad (PCBNEW 9.0.2) date 2025-08-19 18:25:56*
%MOMM*%
%LPD*%
G01*
G04 APERTURE LIST*
%TA.AperFunction,ComponentPad*%
%ADD10R,1.700000X1.700000*%
%TD*%
%TA.AperFunction,ComponentPad*%
%ADD11C,1.700000*%
%TD*%
%TA.AperFunction,HeatsinkPad*%
%ADD12O,2.100000X1.000000*%
%TD*%
%TA.AperFunction,HeatsinkPad*%
%ADD13O,1.600000X1.000000*%
%TD*%
%TA.AperFunction,ViaPad*%
%ADD14C,0.600000*%
%TD*%
%TA.AperFunction,Conductor*%
%ADD15C,0.350000*%
%TD*%
%TA.AperFunction,Conductor*%
%ADD16C,0.200000*%
%TD*%
G04 APERTURE END LIST*
D10*
%TO.N,GND*%
%TO.C,J2*%
X87725000Y-47300000D03*
D11*
%TO.N,/3V3*%
X87725000Y-44760000D03*
%TO.N,/SCL*%
X87725000Y-42220000D03*
%TO.N,/SDA*%
X87725000Y-39680000D03*
%TD*%
D10*
%TO.N,/3V3*%
%TO.C,J5*%
X79790000Y-27500000D03*
D11*
%TO.N,GND*%
X77250000Y-27500000D03*
%TO.N,/SWDIO*%
X74710000Y-27500000D03*
%TO.N,/SWCLK*%
X72170000Y-27500000D03*
%TO.N,/NSRT*%
X69630000Y-27500000D03*
%TD*%
D12*
%TO.N,GND*%
%TO.C,J4*%
X33130000Y-44396000D03*
D13*
X28950000Y-44396000D03*
D12*
X33130000Y-53036000D03*
D13*
X28950000Y-53036000D03*
%TD*%
D10*
%TO.N,/3V3*%
%TO.C,J3*%
X74870000Y-57500000D03*
D11*
%TO.N,GND*%
X72330000Y-57500000D03*
%TO.N,/SCL*%
X69790000Y-57500000D03*
%TO.N,/SDA*%
X67250000Y-57500000D03*
%TO.N,/XDA*%
X64710000Y-57500000D03*
%TO.N,/XCL*%
X62170000Y-57500000D03*
%TO.N,/ADO*%
X59630000Y-57500000D03*
%TO.N,/INT*%
X57090000Y-57500000D03*
%TD*%
D14*
%TO.N,GND*%
X63000000Y-31500000D03*
X57000000Y-35000000D03*
X40500000Y-58500000D03*
X51500000Y-26250000D03*
X40750000Y-49500000D03*
X58000000Y-34250000D03*
X37250000Y-36250000D03*
X40250000Y-44500000D03*
X78750000Y-39750000D03*
X78500000Y-31250000D03*
X81250000Y-58500000D03*
X31000000Y-42500000D03*
X62000000Y-47500000D03*
X29000000Y-55000000D03*
X35750000Y-26500000D03*
X77500000Y-30250000D03*
X84500000Y-58500000D03*
X61250000Y-48250000D03*
X40750000Y-46500000D03*
X56500000Y-51000000D03*
X56250000Y-39750000D03*
X81000000Y-44000000D03*
X47750000Y-26500000D03*
X62250000Y-32750000D03*
X61000000Y-26250000D03*
X38750000Y-58750000D03*
X41750000Y-44000000D03*
X88500000Y-50000000D03*
X70750000Y-53500000D03*
X60500000Y-27750000D03*
X47000000Y-58250000D03*
X30250000Y-59000000D03*
X57750000Y-50250000D03*
X58250000Y-39250000D03*
X47250000Y-34000000D03*
X76750000Y-49000000D03*
X87500000Y-49750000D03*
X39500000Y-48000000D03*
X58602298Y-54602298D03*
X35250000Y-40750000D03*
X60000000Y-55000000D03*
X60250000Y-45500000D03*
X33000000Y-42500000D03*
X74000000Y-43500000D03*
X42500000Y-57500000D03*
X77500000Y-37750000D03*
X41000000Y-37000000D03*
X47750000Y-32750000D03*
X67250000Y-35500000D03*
X44000000Y-43000000D03*
X33250000Y-55250000D03*
X38500000Y-57750000D03*
X70990507Y-51240506D03*
X41250000Y-38250000D03*
X79500000Y-30000000D03*
X43500000Y-27750000D03*
X78500000Y-57250000D03*
X55500000Y-51750000D03*
X77118211Y-49868202D03*
X77000000Y-37250000D03*
X31250000Y-55000000D03*
X74250000Y-41500000D03*
X49500000Y-49750000D03*
X64250000Y-51575000D03*
X73750000Y-55000000D03*
X72750000Y-49000000D03*
X79000000Y-40500000D03*
X37000000Y-37500000D03*
X80000000Y-45000000D03*
X68500000Y-34000000D03*
X45500000Y-55750000D03*
X57750000Y-26250000D03*
X70000000Y-39500000D03*
X74500000Y-55500000D03*
X36000000Y-44750000D03*
X29000000Y-42500000D03*
X36000000Y-53250000D03*
X62250000Y-52850000D03*
X67250000Y-37750000D03*
X55750000Y-53000000D03*
X49250000Y-27750000D03*
X47750000Y-59000000D03*
X44750000Y-26500000D03*
X47625707Y-45124293D03*
X46000000Y-34500000D03*
X43000000Y-41500000D03*
X66000000Y-26250000D03*
X49500000Y-43750000D03*
X58250000Y-40750000D03*
X89000000Y-51250000D03*
X80000000Y-56000000D03*
%TO.N,/VBUS*%
X42560000Y-50216000D03*
X38500000Y-39000000D03*
%TO.N,/VBAT*%
X51500000Y-46500000D03*
X53500000Y-41250000D03*
X42250000Y-34250000D03*
X38000000Y-34000000D03*
%TO.N,/3V3*%
X61500000Y-49500000D03*
X54000000Y-58250000D03*
X76750000Y-52250000D03*
X60750000Y-36250000D03*
X72000000Y-39000000D03*
X83500000Y-29500000D03*
X83500000Y-45510000D03*
X76000000Y-43000000D03*
%TO.N,/NSRT*%
X70250000Y-35000000D03*
X68000000Y-30250000D03*
%TO.N,/SWDIO*%
X75750000Y-31250000D03*
X69337500Y-51412500D03*
%TO.N,/SWCLK*%
X73000000Y-31250000D03*
X74500000Y-47162500D03*
%TO.N,Net-(U3-PA9)*%
X61500000Y-29750000D03*
X67000000Y-51500000D03*
%TO.N,/SCL*%
X76000000Y-46250000D03*
X83975000Y-43010000D03*
X69170000Y-53750000D03*
%TO.N,/SDA*%
X83975000Y-40260000D03*
X66420000Y-54000000D03*
X76150000Y-45000000D03*
%TD*%
D15*
%TO.N,/VBUS*%
X42750000Y-50026000D02*
X42560000Y-50216000D01*
X38500000Y-39000000D02*
X42750000Y-43250000D01*
X42750000Y-43250000D02*
X42750000Y-50026000D01*
%TO.N,/VBAT*%
X42250000Y-38793991D02*
X47603005Y-44146995D01*
X42250000Y-34250000D02*
X42250000Y-38793991D01*
X50500000Y-41250000D02*
X53500000Y-41250000D01*
X47603005Y-44146995D02*
X50500000Y-41250000D01*
X49956009Y-46500000D02*
X51500000Y-46500000D01*
X42000000Y-34000000D02*
X42250000Y-34250000D01*
X38000000Y-34000000D02*
X42000000Y-34000000D01*
X47603005Y-44146995D02*
X49956009Y-46500000D01*
%TO.N,/3V3*%
X59000000Y-38000000D02*
X60750000Y-36250000D01*
X72781009Y-46250000D02*
X76000000Y-43031009D01*
X76000000Y-43031009D02*
X76000000Y-43000000D01*
X54000000Y-58250000D02*
X56250000Y-56000000D01*
D16*
X60000000Y-52250000D02*
X59000000Y-53250000D01*
D15*
X61250000Y-51000000D02*
X63000000Y-49250000D01*
D16*
X59000000Y-53250000D02*
X56250000Y-56000000D01*
D15*
X63000000Y-49250000D02*
X66000000Y-46250000D01*
X82475000Y-45510000D02*
X75735000Y-52250000D01*
X61250000Y-51000000D02*
X61750000Y-50500000D01*
X83500000Y-29500000D02*
X81500000Y-29500000D01*
X74500000Y-52250000D02*
X62750000Y-52250000D01*
D16*
X75735000Y-52250000D02*
X74500000Y-52250000D01*
D15*
X56250000Y-56000000D02*
X61250000Y-51000000D01*
X72250000Y-46250000D02*
X72781009Y-46250000D01*
X62750000Y-48250000D02*
X62750000Y-49000000D01*
X81500000Y-29500000D02*
X70500000Y-40500000D01*
X83500000Y-45510000D02*
X82475000Y-45510000D01*
X62750000Y-48250000D02*
X70500000Y-40500000D01*
X61750000Y-49750000D02*
X61500000Y-49500000D01*
X66000000Y-46250000D02*
X72250000Y-46250000D01*
X59000000Y-53250000D02*
X59000000Y-38000000D01*
X61750000Y-50500000D02*
X61750000Y-49750000D01*
D16*
X70500000Y-40500000D02*
X72000000Y-39000000D01*
X62750000Y-52250000D02*
X60000000Y-52250000D01*
D15*
X62750000Y-49000000D02*
X63000000Y-49250000D01*
X76750000Y-52250000D02*
X74500000Y-52250000D01*
%TD*%
M02*
