M48
; DRILL file {KiCad 9.0.2} date 2025-08-19T18:26:07-0400
; FORMAT={-:-/ absolute / metric / decimal}
; #@! TF.CreationDate,2025-08-19T18:26:07-04:00
; #@! TF.GenerationSoftware,Kicad,Pcbnew,9.0.2
; #@! TF.FileFunction,Plated,1,4,PTH
FMAT,2
METRIC
; #@! TA.AperFunction,Plated,PTH,ViaDrill
T1C0.300
; #@! TA.AperFunction,Plated,PTH,ComponentDrill
T2C0.600
; #@! TA.AperFunction,Plated,PTH,ComponentDrill
T3C1.000
%
G90
G05
T1
X29.0Y-42.5
X29.0Y-55.0
X30.25Y-59.0
X31.0Y-42.5
X31.25Y-55.0
X33.0Y-42.5
X33.25Y-55.25
X35.25Y-40.75
X35.75Y-26.5
X36.0Y-44.75
X36.0Y-53.25
X37.0Y-37.5
X37.25Y-36.25
X38.0Y-34.0
X38.5Y-39.0
X38.5Y-57.75
X38.75Y-58.75
X39.5Y-48.0
X40.25Y-44.5
X40.5Y-58.5
X40.75Y-46.5
X40.75Y-49.5
X41.0Y-37.0
X41.25Y-38.25
X41.75Y-44.0
X42.25Y-34.25
X42.5Y-57.5
X42.56Y-50.216
X43.0Y-41.5
X43.5Y-27.75
X44.0Y-43.0
X44.75Y-26.5
X45.5Y-55.75
X46.0Y-34.5
X47.0Y-58.25
X47.25Y-34.0
X47.626Y-45.124
X47.75Y-26.5
X47.75Y-32.75
X47.75Y-59.0
X49.25Y-27.75
X49.5Y-43.75
X49.5Y-49.75
X51.5Y-26.25
X51.5Y-46.5
X53.5Y-41.25
X54.0Y-58.25
X55.5Y-51.75
X55.75Y-53.0
X56.25Y-39.75
X56.5Y-51.0
X57.0Y-35.0
X57.75Y-26.25
X57.75Y-50.25
X58.0Y-34.25
X58.25Y-39.25
X58.25Y-40.75
X58.602Y-54.602
X60.0Y-55.0
X60.25Y-45.5
X60.5Y-27.75
X60.75Y-36.25
X61.0Y-26.25
X61.25Y-48.25
X61.5Y-29.75
X61.5Y-49.5
X62.0Y-47.5
X62.25Y-32.75
X62.25Y-52.85
X63.0Y-31.5
X64.25Y-51.575
X66.0Y-26.25
X66.42Y-54.0
X67.0Y-51.5
X67.25Y-35.5
X67.25Y-37.75
X68.0Y-30.25
X68.5Y-34.0
X69.17Y-53.75
X69.337Y-51.412
X70.0Y-39.5
X70.25Y-35.0
X70.75Y-53.5
X70.991Y-51.241
X72.0Y-39.0
X72.75Y-49.0
X73.0Y-31.25
X73.75Y-55.0
X74.0Y-43.5
X74.25Y-41.5
X74.5Y-47.162
X74.5Y-55.5
X75.75Y-31.25
X76.0Y-43.0
X76.0Y-46.25
X76.15Y-45.0
X76.75Y-49.0
X76.75Y-52.25
X77.0Y-37.25
X77.118Y-49.868
X77.5Y-30.25
X77.5Y-37.75
X78.5Y-31.25
X78.5Y-57.25
X78.75Y-39.75
X79.0Y-40.5
X79.5Y-30.0
X80.0Y-45.0
X80.0Y-56.0
X81.0Y-44.0
X81.25Y-58.5
X83.5Y-29.5
X83.5Y-45.51
X83.975Y-40.26
X83.975Y-43.01
X84.5Y-58.5
X87.5Y-49.75
X88.5Y-50.0
X89.0Y-51.25
T3
X57.09Y-57.5
X59.63Y-57.5
X62.17Y-57.5
X64.71Y-57.5
X67.25Y-57.5
X69.63Y-27.5
X69.79Y-57.5
X72.17Y-27.5
X72.33Y-57.5
X74.71Y-27.5
X74.87Y-57.5
X77.25Y-27.5
X79.79Y-27.5
X87.725Y-39.68
X87.725Y-42.22
X87.725Y-44.76
X87.725Y-47.3
T2
G00X29.25Y-44.396
M15
G01X28.65Y-44.396
M16
G05
G00X29.25Y-53.036
M15
G01X28.65Y-53.036
M16
G05
G00X33.68Y-44.396
M15
G01X32.58Y-44.396
M16
G05
G00X33.68Y-53.036
M15
G01X32.58Y-53.036
M16
G05
M30
