%TF.GenerationSoftware,KiCad,Pcbnew,9.0.2*%
%TF.CreationDate,2025-08-19T18:25:56-04:00*%
%TF.ProjectId,GymDevice,47796d44-6576-4696-9365-2e6b69636164,rev?*%
%TF.SameCoordinates,Original*%
%TF.FileFunction,Copper,L4,Bot*%
%TF.FilePolarity,Positive*%
%FSLAX46Y46*%
G04 Gerber Fmt 4.6, Leading zero omitted, Abs format (unit mm)*
G04 Created by KiCad (PCBNEW 9.0.2) date 2025-08-19 18:25:56*
%MOMM*%
%LPD*%
G01*
G04 APERTURE LIST*
%TA.AperFunction,ComponentPad*%
%ADD10R,1.700000X1.700000*%
%TD*%
%TA.AperFunction,ComponentPad*%
%ADD11C,1.700000*%
%TD*%
%TA.AperFunction,HeatsinkPad*%
%ADD12O,2.100000X1.000000*%
%TD*%
%TA.AperFunction,HeatsinkPad*%
%ADD13O,1.600000X1.000000*%
%TD*%
%TA.AperFunction,ViaPad*%
%ADD14C,0.600000*%
%TD*%
%TA.AperFunction,Conductor*%
%ADD15C,0.200000*%
%TD*%
G04 APERTURE END LIST*
D10*
%TO.P,J2,1,Pin_1*%
%TO.N,GND*%
X87725000Y-47300000D03*
D11*
%TO.P,J2,2,Pin_2*%
%TO.N,/3V3*%
X87725000Y-44760000D03*
%TO.P,J2,3,Pin_3*%
%TO.N,/SCL*%
X87725000Y-42220000D03*
%TO.P,J2,4,Pin_4*%
%TO.N,/SDA*%
X87725000Y-39680000D03*
%TD*%
D10*
%TO.P,J5,1,Pin_1*%
%TO.N,/3V3*%
X79790000Y-27500000D03*
D11*
%TO.P,J5,2,Pin_2*%
%TO.N,GND*%
X77250000Y-27500000D03*
%TO.P,J5,3,Pin_3*%
%TO.N,/SWDIO*%
X74710000Y-27500000D03*
%TO.P,J5,4,Pin_4*%
%TO.N,/SWCLK*%
X72170000Y-27500000D03*
%TO.P,J5,5,Pin_5*%
%TO.N,/NSRT*%
X69630000Y-27500000D03*
%TD*%
D12*
%TO.P,J4,S1,SHIELD*%
%TO.N,GND*%
X33130000Y-44396000D03*
D13*
X28950000Y-44396000D03*
D12*
X33130000Y-53036000D03*
D13*
X28950000Y-53036000D03*
%TD*%
D10*
%TO.P,J3,1,Pin_1*%
%TO.N,/3V3*%
X74870000Y-57500000D03*
D11*
%TO.P,J3,2,Pin_2*%
%TO.N,GND*%
X72330000Y-57500000D03*
%TO.P,J3,3,Pin_3*%
%TO.N,/SCL*%
X69790000Y-57500000D03*
%TO.P,J3,4,Pin_4*%
%TO.N,/SDA*%
X67250000Y-57500000D03*
%TO.P,J3,5,Pin_5*%
%TO.N,/XDA*%
X64710000Y-57500000D03*
%TO.P,J3,6,Pin_6*%
%TO.N,/XCL*%
X62170000Y-57500000D03*
%TO.P,J3,7,Pin_7*%
%TO.N,/ADO*%
X59630000Y-57500000D03*
%TO.P,J3,8,Pin_8*%
%TO.N,/INT*%
X57090000Y-57500000D03*
%TD*%
D14*
%TO.N,GND*%
X63000000Y-31500000D03*
X57000000Y-35000000D03*
X40500000Y-58500000D03*
X51500000Y-26250000D03*
X40750000Y-49500000D03*
X58000000Y-34250000D03*
X37250000Y-36250000D03*
X40250000Y-44500000D03*
X78750000Y-39750000D03*
X78500000Y-31250000D03*
X81250000Y-58500000D03*
X31000000Y-42500000D03*
X62000000Y-47500000D03*
X29000000Y-55000000D03*
X35750000Y-26500000D03*
X77500000Y-30250000D03*
X84500000Y-58500000D03*
X61250000Y-48250000D03*
X40750000Y-46500000D03*
X56500000Y-51000000D03*
X56250000Y-39750000D03*
X81000000Y-44000000D03*
X47750000Y-26500000D03*
X62250000Y-32750000D03*
X61000000Y-26250000D03*
X38750000Y-58750000D03*
X41750000Y-44000000D03*
X88500000Y-50000000D03*
X70750000Y-53500000D03*
X60500000Y-27750000D03*
X47000000Y-58250000D03*
X30250000Y-59000000D03*
X57750000Y-50250000D03*
X58250000Y-39250000D03*
X47250000Y-34000000D03*
X76750000Y-49000000D03*
X87500000Y-49750000D03*
X39500000Y-48000000D03*
X58602298Y-54602298D03*
X35250000Y-40750000D03*
X60000000Y-55000000D03*
X60250000Y-45500000D03*
X33000000Y-42500000D03*
X74000000Y-43500000D03*
X42500000Y-57500000D03*
X77500000Y-37750000D03*
X41000000Y-37000000D03*
X47750000Y-32750000D03*
X67250000Y-35500000D03*
X44000000Y-43000000D03*
X33250000Y-55250000D03*
X38500000Y-57750000D03*
X70990507Y-51240506D03*
X41250000Y-38250000D03*
X79500000Y-30000000D03*
X43500000Y-27750000D03*
X78500000Y-57250000D03*
X55500000Y-51750000D03*
X77118211Y-49868202D03*
X77000000Y-37250000D03*
X31250000Y-55000000D03*
X74250000Y-41500000D03*
X49500000Y-49750000D03*
X64250000Y-51575000D03*
X73750000Y-55000000D03*
X72750000Y-49000000D03*
X79000000Y-40500000D03*
X37000000Y-37500000D03*
X80000000Y-45000000D03*
X68500000Y-34000000D03*
X45500000Y-55750000D03*
X57750000Y-26250000D03*
X70000000Y-39500000D03*
X74500000Y-55500000D03*
X36000000Y-44750000D03*
X29000000Y-42500000D03*
X36000000Y-53250000D03*
X62250000Y-52850000D03*
X67250000Y-37750000D03*
X55750000Y-53000000D03*
X49250000Y-27750000D03*
X47750000Y-59000000D03*
X44750000Y-26500000D03*
X47625707Y-45124293D03*
X46000000Y-34500000D03*
X43000000Y-41500000D03*
X66000000Y-26250000D03*
X49500000Y-43750000D03*
X58250000Y-40750000D03*
X89000000Y-51250000D03*
X80000000Y-56000000D03*
%TO.N,/VBUS*%
X42560000Y-50216000D03*
X38500000Y-39000000D03*
%TO.N,/VBAT*%
X51500000Y-46500000D03*
X53500000Y-41250000D03*
X42250000Y-34250000D03*
X38000000Y-34000000D03*
%TO.N,/3V3*%
X61500000Y-49500000D03*
X54000000Y-58250000D03*
X76750000Y-52250000D03*
X60750000Y-36250000D03*
X72000000Y-39000000D03*
X83500000Y-29500000D03*
X83500000Y-45510000D03*
X76000000Y-43000000D03*
%TO.N,/NSRT*%
X70250000Y-35000000D03*
X68000000Y-30250000D03*
%TO.N,/SWDIO*%
X75750000Y-31250000D03*
X69337500Y-51412500D03*
%TO.N,/SWCLK*%
X73000000Y-31250000D03*
X74500000Y-47162500D03*
%TO.N,Net-(U3-PA9)*%
X61500000Y-29750000D03*
X67000000Y-51500000D03*
%TO.N,/SCL*%
X76000000Y-46250000D03*
X83975000Y-43010000D03*
X69170000Y-53750000D03*
%TO.N,/SDA*%
X83975000Y-40260000D03*
X66420000Y-54000000D03*
X76150000Y-45000000D03*
%TD*%
D15*
%TO.N,/NSRT*%
X70250000Y-35000000D02*
X70250000Y-32500000D01*
X70250000Y-32500000D02*
X68000000Y-30250000D01*
%TO.N,/SWDIO*%
X75814943Y-31250000D02*
X84576000Y-40011057D01*
X68500000Y-54750000D02*
X68000000Y-54250000D01*
X70000000Y-54500000D02*
X69750000Y-54750000D01*
X75750000Y-31250000D02*
X75814943Y-31250000D01*
X84576000Y-43258943D02*
X73334943Y-54500000D01*
X69750000Y-54750000D02*
X68500000Y-54750000D01*
X73334943Y-54500000D02*
X70000000Y-54500000D01*
X68000000Y-54250000D02*
X68000000Y-52750000D01*
X68000000Y-52750000D02*
X69337500Y-51412500D01*
X84576000Y-40011057D02*
X84576000Y-43258943D01*
%TO.N,/SWCLK*%
X73000000Y-45662500D02*
X74500000Y-47162500D01*
X73000000Y-31250000D02*
X73000000Y-45662500D01*
%TO.N,Net-(U3-PA9)*%
X67000000Y-51500000D02*
X61500000Y-46000000D01*
X61500000Y-46000000D02*
X61500000Y-29750000D01*
%TO.N,/SCL*%
X69329543Y-53750000D02*
X69170000Y-53750000D01*
X83975000Y-43010000D02*
X79240000Y-43010000D01*
X76000000Y-46250000D02*
X76000000Y-47079543D01*
X76000000Y-47079543D02*
X69329543Y-53750000D01*
X79240000Y-43010000D02*
X76000000Y-46250000D01*
%TO.N,/SDA*%
X75101000Y-47411443D02*
X74748943Y-47763500D01*
X72136557Y-47763500D02*
X66420000Y-53480057D01*
X74748943Y-47763500D02*
X72136557Y-47763500D01*
X75101000Y-46049000D02*
X75101000Y-47411443D01*
X76150000Y-45000000D02*
X75101000Y-46049000D01*
X76150000Y-45000000D02*
X80890000Y-40260000D01*
X80890000Y-40260000D02*
X83975000Y-40260000D01*
X66420000Y-53480057D02*
X66420000Y-54000000D01*
%TD*%
%TA.AperFunction,Conductor*%
%TO.N,GND*%
G36*
X83142885Y-43630185D02*
G01*
X83188640Y-43682989D01*
X83198584Y-43752147D01*
X83169559Y-43815703D01*
X83163527Y-43822181D01*
X73122527Y-53863181D01*
X73061204Y-53896666D01*
X73034846Y-53899500D01*
X70328640Y-53899500D01*
X70261601Y-53879815D01*
X70215846Y-53827011D01*
X70205902Y-53757853D01*
X70234927Y-53694297D01*
X70240959Y-53687819D01*
X73229416Y-50699362D01*
X76480520Y-47448259D01*
X76559577Y-47311327D01*
X76600501Y-47158600D01*
X76600501Y-47000485D01*
X76600501Y-46992890D01*
X76600500Y-46992872D01*
X76600500Y-46829765D01*
X76620185Y-46762726D01*
X76621398Y-46760874D01*
X76709390Y-46629185D01*
X76709390Y-46629184D01*
X76709394Y-46629179D01*
X76769737Y-46483497D01*
X76797758Y-46342627D01*
X76800638Y-46328150D01*
X76833023Y-46266239D01*
X76834518Y-46264716D01*
X79452416Y-43646819D01*
X79513739Y-43613334D01*
X79540097Y-43610500D01*
X83075846Y-43610500D01*
X83142885Y-43630185D01*
G37*
%TD.AperFunction*%
%TA.AperFunction,Conductor*%
G36*
X73633984Y-48383685D02*
G01*
X73679739Y-48436489D01*
X73689683Y-48505647D01*
X73660658Y-48569203D01*
X73654626Y-48575681D01*
X70148313Y-52081993D01*
X70086990Y-52115478D01*
X70035984Y-52111830D01*
X70042345Y-52151085D01*
X70014460Y-52215149D01*
X70006993Y-52223313D01*
X69317126Y-52913181D01*
X69255803Y-52946666D01*
X69229445Y-52949500D01*
X69091153Y-52949500D01*
X68941046Y-52979358D01*
X68871454Y-52973131D01*
X68816277Y-52930268D01*
X68793033Y-52864378D01*
X68809101Y-52796381D01*
X68829169Y-52770065D01*
X69352164Y-52247071D01*
X69413485Y-52213588D01*
X69415652Y-52213137D01*
X69416341Y-52213000D01*
X69416342Y-52213000D01*
X69570997Y-52182237D01*
X69716679Y-52121894D01*
X69847789Y-52034289D01*
X69847790Y-52034287D01*
X69850421Y-52032530D01*
X69917098Y-52011652D01*
X69942739Y-52018686D01*
X69936948Y-52003158D01*
X69951800Y-51934885D01*
X69957530Y-51925421D01*
X69959289Y-51922789D01*
X70046894Y-51791679D01*
X70107237Y-51645997D01*
X70138000Y-51491342D01*
X70138000Y-51333658D01*
X70138000Y-51333655D01*
X70137999Y-51333653D01*
X70107238Y-51179010D01*
X70107237Y-51179003D01*
X70093354Y-51145487D01*
X70046897Y-51033327D01*
X70046890Y-51033314D01*
X69970882Y-50919560D01*
X69950004Y-50852882D01*
X69968489Y-50785502D01*
X69986299Y-50762992D01*
X72348973Y-48400319D01*
X72410296Y-48366834D01*
X72436654Y-48364000D01*
X73566945Y-48364000D01*
X73633984Y-48383685D01*
G37*
%TD.AperFunction*%
%TA.AperFunction,Conductor*%
G36*
X89442539Y-25520185D02*
G01*
X89488294Y-25572989D01*
X89499500Y-25624500D01*
X89499500Y-59375500D01*
X89479815Y-59442539D01*
X89427011Y-59488294D01*
X89375500Y-59499500D01*
X25624500Y-59499500D01*
X25557461Y-59479815D01*
X25511706Y-59427011D01*
X25500500Y-59375500D01*
X25500500Y-57393713D01*
X26149500Y-57393713D01*
X26149500Y-57606287D01*
X26182754Y-57816243D01*
X26200485Y-57870814D01*
X26248444Y-58018414D01*
X26344951Y-58207820D01*
X26469890Y-58379786D01*
X26620213Y-58530109D01*
X26792179Y-58655048D01*
X26792181Y-58655049D01*
X26792184Y-58655051D01*
X26981588Y-58751557D01*
X27183757Y-58817246D01*
X27393713Y-58850500D01*
X27393714Y-58850500D01*
X27606286Y-58850500D01*
X27606287Y-58850500D01*
X27816243Y-58817246D01*
X28018412Y-58751557D01*
X28207816Y-58655051D01*
X28294138Y-58592335D01*
X28379786Y-58530109D01*
X28379788Y-58530106D01*
X28379792Y-58530104D01*
X28530104Y-58379792D01*
X28530106Y-58379788D01*
X28530109Y-58379786D01*
X28588346Y-58299628D01*
X28655051Y-58207816D01*
X28673732Y-58171153D01*
X53199500Y-58171153D01*
X53199500Y-58328846D01*
X53230261Y-58483489D01*
X53230264Y-58483501D01*
X53290602Y-58629172D01*
X53290609Y-58629185D01*
X53378210Y-58760288D01*
X53378213Y-58760292D01*
X53489707Y-58871786D01*
X53489711Y-58871789D01*
X53620814Y-58959390D01*
X53620827Y-58959397D01*
X53766498Y-59019735D01*
X53766503Y-59019737D01*
X53921153Y-59050499D01*
X53921156Y-59050500D01*
X53921158Y-59050500D01*
X54078844Y-59050500D01*
X54078845Y-59050499D01*
X54233497Y-59019737D01*
X54379179Y-58959394D01*
X54510289Y-58871789D01*
X54621789Y-58760289D01*
X54709394Y-58629179D01*
X54769737Y-58483497D01*
X54800500Y-58328842D01*
X54800500Y-58171158D01*
X54800500Y-58171155D01*
X54800499Y-58171153D01*
X54770117Y-58018414D01*
X54769737Y-58016503D01*
X54748787Y-57965925D01*
X54709397Y-57870827D01*
X54709390Y-57870814D01*
X54621789Y-57739711D01*
X54621786Y-57739707D01*
X54510292Y-57628213D01*
X54510288Y-57628210D01*
X54379185Y-57540609D01*
X54379172Y-57540602D01*
X54289361Y-57503402D01*
X54233501Y-57480264D01*
X54233489Y-57480261D01*
X54078845Y-57449500D01*
X54078842Y-57449500D01*
X53921158Y-57449500D01*
X53921155Y-57449500D01*
X53766510Y-57480261D01*
X53766498Y-57480264D01*
X53620827Y-57540602D01*
X53620814Y-57540609D01*
X53489711Y-57628210D01*
X53489707Y-57628213D01*
X53378213Y-57739707D01*
X53378210Y-57739711D01*
X53290609Y-57870814D01*
X53290602Y-57870827D01*
X53230264Y-58016498D01*
X53230261Y-58016510D01*
X53199500Y-58171153D01*
X28673732Y-58171153D01*
X28751557Y-58018412D01*
X28817246Y-57816243D01*
X28850500Y-57606287D01*
X28850500Y-57393713D01*
X55739500Y-57393713D01*
X55739500Y-57606287D01*
X55772754Y-57816243D01*
X55790485Y-57870814D01*
X55838444Y-58018414D01*
X55934951Y-58207820D01*
X56059890Y-58379786D01*
X56210213Y-58530109D01*
X56382179Y-58655048D01*
X56382181Y-58655049D01*
X56382184Y-58655051D01*
X56571588Y-58751557D01*
X56773757Y-58817246D01*
X56983713Y-58850500D01*
X56983714Y-58850500D01*
X57196286Y-58850500D01*
X57196287Y-58850500D01*
X57406243Y-58817246D01*
X57608412Y-58751557D01*
X57797816Y-58655051D01*
X57884138Y-58592335D01*
X57969786Y-58530109D01*
X57969788Y-58530106D01*
X57969792Y-58530104D01*
X58120104Y-58379792D01*
X58120106Y-58379788D01*
X58120109Y-58379786D01*
X58245048Y-58207820D01*
X58245049Y-58207819D01*
X58245051Y-58207816D01*
X58249514Y-58199054D01*
X58297488Y-58148259D01*
X58365308Y-58131463D01*
X58431444Y-58153999D01*
X58470486Y-58199056D01*
X58474951Y-58207820D01*
X58599890Y-58379786D01*
X58750213Y-58530109D01*
X58922179Y-58655048D01*
X58922181Y-58655049D01*
X58922184Y-58655051D01*
X59111588Y-58751557D01*
X59313757Y-58817246D01*
X59523713Y-58850500D01*
X59523714Y-58850500D01*
X59736286Y-58850500D01*
X59736287Y-58850500D01*
X59946243Y-58817246D01*
X60148412Y-58751557D01*
X60337816Y-58655051D01*
X60424138Y-58592335D01*
X60509786Y-58530109D01*
X60509788Y-58530106D01*
X60509792Y-58530104D01*
X60660104Y-58379792D01*
X60660106Y-58379788D01*
X60660109Y-58379786D01*
X60785048Y-58207820D01*
X60785049Y-58207819D01*
X60785051Y-58207816D01*
X60789514Y-58199054D01*
X60837488Y-58148259D01*
X60905308Y-58131463D01*
X60971444Y-58153999D01*
X61010486Y-58199056D01*
X61014951Y-58207820D01*
X61139890Y-58379786D01*
X61290213Y-58530109D01*
X61462179Y-58655048D01*
X61462181Y-58655049D01*
X61462184Y-58655051D01*
X61651588Y-58751557D01*
X61853757Y-58817246D01*
X62063713Y-58850500D01*
X62063714Y-58850500D01*
X62276286Y-58850500D01*
X62276287Y-58850500D01*
X62486243Y-58817246D01*
X62688412Y-58751557D01*
X62877816Y-58655051D01*
X62964138Y-58592335D01*
X63049786Y-58530109D01*
X63049788Y-58530106D01*
X63049792Y-58530104D01*
X63200104Y-58379792D01*
X63200106Y-58379788D01*
X63200109Y-58379786D01*
X63325048Y-58207820D01*
X63325049Y-58207819D01*
X63325051Y-58207816D01*
X63329514Y-58199054D01*
X63377488Y-58148259D01*
X63445308Y-58131463D01*
X63511444Y-58153999D01*
X63550486Y-58199056D01*
X63554951Y-58207820D01*
X63679890Y-58379786D01*
X63830213Y-58530109D01*
X64002179Y-58655048D01*
X64002181Y-58655049D01*
X64002184Y-58655051D01*
X64191588Y-58751557D01*
X64393757Y-58817246D01*
X64603713Y-58850500D01*
X64603714Y-58850500D01*
X64816286Y-58850500D01*
X64816287Y-58850500D01*
X65026243Y-58817246D01*
X65228412Y-58751557D01*
X65417816Y-58655051D01*
X65504138Y-58592335D01*
X65589786Y-58530109D01*
X65589788Y-58530106D01*
X65589792Y-58530104D01*
X65740104Y-58379792D01*
X65740106Y-58379788D01*
X65740109Y-58379786D01*
X65865048Y-58207820D01*
X65865049Y-58207819D01*
X65865051Y-58207816D01*
X65869514Y-58199054D01*
X65917488Y-58148259D01*
X65985308Y-58131463D01*
X66051444Y-58153999D01*
X66090486Y-58199056D01*
X66094951Y-58207820D01*
X66219890Y-58379786D01*
X66370213Y-58530109D01*
X66542179Y-58655048D01*
X66542181Y-58655049D01*
X66542184Y-58655051D01*
X66731588Y-58751557D01*
X66933757Y-58817246D01*
X67143713Y-58850500D01*
X67143714Y-58850500D01*
X67356286Y-58850500D01*
X67356287Y-58850500D01*
X67566243Y-58817246D01*
X67768412Y-58751557D01*
X67957816Y-58655051D01*
X68044138Y-58592335D01*
X68129786Y-58530109D01*
X68129788Y-58530106D01*
X68129792Y-58530104D01*
X68280104Y-58379792D01*
X68280106Y-58379788D01*
X68280109Y-58379786D01*
X68405048Y-58207820D01*
X68405049Y-58207819D01*
X68405051Y-58207816D01*
X68409514Y-58199054D01*
X68457488Y-58148259D01*
X68525308Y-58131463D01*
X68591444Y-58153999D01*
X68630486Y-58199056D01*
X68634951Y-58207820D01*
X68759890Y-58379786D01*
X68910213Y-58530109D01*
X69082179Y-58655048D01*
X69082181Y-58655049D01*
X69082184Y-58655051D01*
X69271588Y-58751557D01*
X69473757Y-58817246D01*
X69683713Y-58850500D01*
X69683714Y-58850500D01*
X69896286Y-58850500D01*
X69896287Y-58850500D01*
X70106243Y-58817246D01*
X70308412Y-58751557D01*
X70497816Y-58655051D01*
X70584138Y-58592335D01*
X70669786Y-58530109D01*
X70669788Y-58530106D01*
X70669792Y-58530104D01*
X70820104Y-58379792D01*
X70820106Y-58379788D01*
X70820109Y-58379786D01*
X70887515Y-58287007D01*
X70945051Y-58207816D01*
X70949793Y-58198508D01*
X70997763Y-58147711D01*
X71065583Y-58130911D01*
X71131719Y-58153445D01*
X71170763Y-58198500D01*
X71175373Y-58207547D01*
X71214728Y-58261716D01*
X71847037Y-57629408D01*
X71864075Y-57692993D01*
X71929901Y-57807007D01*
X72022993Y-57900099D01*
X72137007Y-57965925D01*
X72200590Y-57982962D01*
X71568282Y-58615269D01*
X71568282Y-58615270D01*
X71622449Y-58654624D01*
X71811782Y-58751095D01*
X72013870Y-58816757D01*
X72223754Y-58850000D01*
X72436246Y-58850000D01*
X72646127Y-58816757D01*
X72646130Y-58816757D01*
X72848217Y-58751095D01*
X73037554Y-58654622D01*
X73091716Y-58615270D01*
X73091717Y-58615270D01*
X72459408Y-57982962D01*
X72522993Y-57965925D01*
X72637007Y-57900099D01*
X72730099Y-57807007D01*
X72795925Y-57692993D01*
X72812962Y-57629408D01*
X73483181Y-58299628D01*
X73516666Y-58360951D01*
X73519500Y-58387300D01*
X73519500Y-58397865D01*
X73519501Y-58397876D01*
X73525908Y-58457483D01*
X73576202Y-58592328D01*
X73576206Y-58592335D01*
X73662452Y-58707544D01*
X73662455Y-58707547D01*
X73777664Y-58793793D01*
X73777671Y-58793797D01*
X73912517Y-58844091D01*
X73912516Y-58844091D01*
X73919444Y-58844835D01*
X73972127Y-58850500D01*
X75767872Y-58850499D01*
X75827483Y-58844091D01*
X75962331Y-58793796D01*
X76077546Y-58707546D01*
X76163796Y-58592331D01*
X76214091Y-58457483D01*
X76220500Y-58397873D01*
X76220499Y-57393713D01*
X86149500Y-57393713D01*
X86149500Y-57606287D01*
X86182754Y-57816243D01*
X86200485Y-57870814D01*
X86248444Y-58018414D01*
X86344951Y-58207820D01*
X86469890Y-58379786D01*
X86620213Y-58530109D01*
X86792179Y-58655048D01*
X86792181Y-58655049D01*
X86792184Y-58655051D01*
X86981588Y-58751557D01*
X87183757Y-58817246D01*
X87393713Y-58850500D01*
X87393714Y-58850500D01*
X87606286Y-58850500D01*
X87606287Y-58850500D01*
X87816243Y-58817246D01*
X88018412Y-58751557D01*
X88207816Y-58655051D01*
X88294138Y-58592335D01*
X88379786Y-58530109D01*
X88379788Y-58530106D01*
X88379792Y-58530104D01*
X88530104Y-58379792D01*
X88530106Y-58379788D01*
X88530109Y-58379786D01*
X88655048Y-58207820D01*
X88655049Y-58207819D01*
X88655051Y-58207816D01*
X88751557Y-58018412D01*
X88817246Y-57816243D01*
X88850500Y-57606287D01*
X88850500Y-57393713D01*
X88817246Y-57183757D01*
X88751557Y-56981588D01*
X88655051Y-56792184D01*
X88655049Y-56792181D01*
X88655048Y-56792179D01*
X88530109Y-56620213D01*
X88379786Y-56469890D01*
X88207820Y-56344951D01*
X88018414Y-56248444D01*
X88018413Y-56248443D01*
X88018412Y-56248443D01*
X87816243Y-56182754D01*
X87816241Y-56182753D01*
X87816240Y-56182753D01*
X87654957Y-56157208D01*
X87606287Y-56149500D01*
X87393713Y-56149500D01*
X87345042Y-56157208D01*
X87183760Y-56182753D01*
X86981585Y-56248444D01*
X86792179Y-56344951D01*
X86620213Y-56469890D01*
X86469890Y-56620213D01*
X86344951Y-56792179D01*
X86248444Y-56981585D01*
X86182753Y-57183760D01*
X86181291Y-57192993D01*
X86149500Y-57393713D01*
X76220499Y-57393713D01*
X76220499Y-56602128D01*
X76214091Y-56542517D01*
X76163796Y-56407669D01*
X76163795Y-56407668D01*
X76163793Y-56407664D01*
X76077547Y-56292455D01*
X76077544Y-56292452D01*
X75962335Y-56206206D01*
X75962328Y-56206202D01*
X75827482Y-56155908D01*
X75827483Y-56155908D01*
X75767883Y-56149501D01*
X75767881Y-56149500D01*
X75767873Y-56149500D01*
X75767864Y-56149500D01*
X73972129Y-56149500D01*
X73972123Y-56149501D01*
X73912516Y-56155908D01*
X73777671Y-56206202D01*
X73777664Y-56206206D01*
X73662455Y-56292452D01*
X73662452Y-56292455D01*
X73576206Y-56407664D01*
X73576202Y-56407671D01*
X73525908Y-56542517D01*
X73519501Y-56602116D01*
X73519501Y-56602123D01*
X73519500Y-56602135D01*
X73519500Y-56612690D01*
X73499815Y-56679729D01*
X73483181Y-56700371D01*
X72812962Y-57370590D01*
X72795925Y-57307007D01*
X72730099Y-57192993D01*
X72637007Y-57099901D01*
X72522993Y-57034075D01*
X72459409Y-57017037D01*
X73091716Y-56384728D01*
X73037550Y-56345375D01*
X72848217Y-56248904D01*
X72646129Y-56183242D01*
X72436246Y-56150000D01*
X72223754Y-56150000D01*
X72013872Y-56183242D01*
X72013869Y-56183242D01*
X71811782Y-56248904D01*
X71622439Y-56345380D01*
X71568282Y-56384727D01*
X71568282Y-56384728D01*
X72200591Y-57017037D01*
X72137007Y-57034075D01*
X72022993Y-57099901D01*
X71929901Y-57192993D01*
X71864075Y-57307007D01*
X71847037Y-57370591D01*
X71214728Y-56738282D01*
X71214727Y-56738282D01*
X71175380Y-56792440D01*
X71175376Y-56792446D01*
X71170760Y-56801505D01*
X71122781Y-56852297D01*
X71054959Y-56869087D01*
X70988826Y-56846543D01*
X70949794Y-56801493D01*
X70945051Y-56792184D01*
X70945049Y-56792181D01*
X70945048Y-56792179D01*
X70820109Y-56620213D01*
X70669786Y-56469890D01*
X70497820Y-56344951D01*
X70308414Y-56248444D01*
X70308413Y-56248443D01*
X70308412Y-56248443D01*
X70106243Y-56182754D01*
X70106241Y-56182753D01*
X70106240Y-56182753D01*
X69944957Y-56157208D01*
X69896287Y-56149500D01*
X69683713Y-56149500D01*
X69635042Y-56157208D01*
X69473760Y-56182753D01*
X69271585Y-56248444D01*
X69082179Y-56344951D01*
X68910213Y-56469890D01*
X68759890Y-56620213D01*
X68634949Y-56792182D01*
X68630484Y-56800946D01*
X68582509Y-56851742D01*
X68514688Y-56868536D01*
X68448553Y-56845998D01*
X68409516Y-56800946D01*
X68405050Y-56792182D01*
X68280109Y-56620213D01*
X68129786Y-56469890D01*
X67957820Y-56344951D01*
X67768414Y-56248444D01*
X67768413Y-56248443D01*
X67768412Y-56248443D01*
X67566243Y-56182754D01*
X67566241Y-56182753D01*
X67566240Y-56182753D01*
X67404957Y-56157208D01*
X67356287Y-56149500D01*
X67143713Y-56149500D01*
X67095042Y-56157208D01*
X66933760Y-56182753D01*
X66731585Y-56248444D01*
X66542179Y-56344951D01*
X66370213Y-56469890D01*
X66219890Y-56620213D01*
X66094949Y-56792182D01*
X66090484Y-56800946D01*
X66042509Y-56851742D01*
X65974688Y-56868536D01*
X65908553Y-56845998D01*
X65869516Y-56800946D01*
X65865050Y-56792182D01*
X65740109Y-56620213D01*
X65589786Y-56469890D01*
X65417820Y-56344951D01*
X65228414Y-56248444D01*
X65228413Y-56248443D01*
X65228412Y-56248443D01*
X65026243Y-56182754D01*
X65026241Y-56182753D01*
X65026240Y-56182753D01*
X64864957Y-56157208D01*
X64816287Y-56149500D01*
X64603713Y-56149500D01*
X64555042Y-56157208D01*
X64393760Y-56182753D01*
X64191585Y-56248444D01*
X64002179Y-56344951D01*
X63830213Y-56469890D01*
X63679890Y-56620213D01*
X63554949Y-56792182D01*
X63550484Y-56800946D01*
X63502509Y-56851742D01*
X63434688Y-56868536D01*
X63368553Y-56845998D01*
X63329516Y-56800946D01*
X63325050Y-56792182D01*
X63200109Y-56620213D01*
X63049786Y-56469890D01*
X62877820Y-56344951D01*
X62688414Y-56248444D01*
X62688413Y-56248443D01*
X62688412Y-56248443D01*
X62486243Y-56182754D01*
X62486241Y-56182753D01*
X62486240Y-56182753D01*
X62324957Y-56157208D01*
X62276287Y-56149500D01*
X62063713Y-56149500D01*
X62015042Y-56157208D01*
X61853760Y-56182753D01*
X61651585Y-56248444D01*
X61462179Y-56344951D01*
X61290213Y-56469890D01*
X61139890Y-56620213D01*
X61014949Y-56792182D01*
X61010484Y-56800946D01*
X60962509Y-56851742D01*
X60894688Y-56868536D01*
X60828553Y-56845998D01*
X60789516Y-56800946D01*
X60785050Y-56792182D01*
X60660109Y-56620213D01*
X60509786Y-56469890D01*
X60337820Y-56344951D01*
X60148414Y-56248444D01*
X60148413Y-56248443D01*
X60148412Y-56248443D01*
X59946243Y-56182754D01*
X59946241Y-56182753D01*
X59946240Y-56182753D01*
X59784957Y-56157208D01*
X59736287Y-56149500D01*
X59523713Y-56149500D01*
X59475042Y-56157208D01*
X59313760Y-56182753D01*
X59111585Y-56248444D01*
X58922179Y-56344951D01*
X58750213Y-56469890D01*
X58599890Y-56620213D01*
X58474949Y-56792182D01*
X58470484Y-56800946D01*
X58422509Y-56851742D01*
X58354688Y-56868536D01*
X58288553Y-56845998D01*
X58249516Y-56800946D01*
X58245050Y-56792182D01*
X58120109Y-56620213D01*
X57969786Y-56469890D01*
X57797820Y-56344951D01*
X57608414Y-56248444D01*
X57608413Y-56248443D01*
X57608412Y-56248443D01*
X57406243Y-56182754D01*
X57406241Y-56182753D01*
X57406240Y-56182753D01*
X57244957Y-56157208D01*
X57196287Y-56149500D01*
X56983713Y-56149500D01*
X56935042Y-56157208D01*
X56773760Y-56182753D01*
X56571585Y-56248444D01*
X56382179Y-56344951D01*
X56210213Y-56469890D01*
X56059890Y-56620213D01*
X55934951Y-56792179D01*
X55838444Y-56981585D01*
X55772753Y-57183760D01*
X55771291Y-57192993D01*
X55739500Y-57393713D01*
X28850500Y-57393713D01*
X28817246Y-57183757D01*
X28751557Y-56981588D01*
X28655051Y-56792184D01*
X28655049Y-56792181D01*
X28655048Y-56792179D01*
X28530109Y-56620213D01*
X28379786Y-56469890D01*
X28207820Y-56344951D01*
X28018414Y-56248444D01*
X28018413Y-56248443D01*
X28018412Y-56248443D01*
X27816243Y-56182754D01*
X27816241Y-56182753D01*
X27816240Y-56182753D01*
X27654957Y-56157208D01*
X27606287Y-56149500D01*
X27393713Y-56149500D01*
X27345042Y-56157208D01*
X27183760Y-56182753D01*
X26981585Y-56248444D01*
X26792179Y-56344951D01*
X26620213Y-56469890D01*
X26469890Y-56620213D01*
X26344951Y-56792179D01*
X26248444Y-56981585D01*
X26182753Y-57183760D01*
X26181291Y-57192993D01*
X26149500Y-57393713D01*
X25500500Y-57393713D01*
X25500500Y-52786000D01*
X27680138Y-52786000D01*
X28483012Y-52786000D01*
X28465795Y-52795940D01*
X28409940Y-52851795D01*
X28370444Y-52920204D01*
X28350000Y-52996504D01*
X28350000Y-53075496D01*
X28370444Y-53151796D01*
X28409940Y-53220205D01*
X28465795Y-53276060D01*
X28483012Y-53286000D01*
X27680138Y-53286000D01*
X27688430Y-53327690D01*
X27688430Y-53327692D01*
X27763807Y-53509671D01*
X27763814Y-53509684D01*
X27873248Y-53673462D01*
X27873251Y-53673466D01*
X28012533Y-53812748D01*
X28012537Y-53812751D01*
X28176315Y-53922185D01*
X28176328Y-53922192D01*
X28358306Y-53997569D01*
X28358318Y-53997572D01*
X28551504Y-54035999D01*
X28551508Y-54036000D01*
X28700000Y-54036000D01*
X28700000Y-53336000D01*
X29200000Y-53336000D01*
X29200000Y-54036000D01*
X29348492Y-54036000D01*
X29348495Y-54035999D01*
X29541681Y-53997572D01*
X29541693Y-53997569D01*
X29723671Y-53922192D01*
X29723684Y-53922185D01*
X29887462Y-53812751D01*
X29887466Y-53812748D01*
X30026748Y-53673466D01*
X30026751Y-53673462D01*
X30136185Y-53509684D01*
X30136192Y-53509671D01*
X30211569Y-53327692D01*
X30211569Y-53327690D01*
X30219862Y-53286000D01*
X29416988Y-53286000D01*
X29434205Y-53276060D01*
X29490060Y-53220205D01*
X29529556Y-53151796D01*
X29550000Y-53075496D01*
X29550000Y-52996504D01*
X29529556Y-52920204D01*
X29490060Y-52851795D01*
X29434205Y-52795940D01*
X29416988Y-52786000D01*
X30219862Y-52786000D01*
X31610138Y-52786000D01*
X32413012Y-52786000D01*
X32395795Y-52795940D01*
X32339940Y-52851795D01*
X32300444Y-52920204D01*
X32280000Y-52996504D01*
X32280000Y-53075496D01*
X32300444Y-53151796D01*
X32339940Y-53220205D01*
X32395795Y-53276060D01*
X32413012Y-53286000D01*
X31610138Y-53286000D01*
X31618430Y-53327690D01*
X31618430Y-53327692D01*
X31693807Y-53509671D01*
X31693814Y-53509684D01*
X31803248Y-53673462D01*
X31803251Y-53673466D01*
X31942533Y-53812748D01*
X31942537Y-53812751D01*
X32106315Y-53922185D01*
X32106328Y-53922192D01*
X32288306Y-53997569D01*
X32288318Y-53997572D01*
X32481504Y-54035999D01*
X32481508Y-54036000D01*
X32880000Y-54036000D01*
X32880000Y-53336000D01*
X33380000Y-53336000D01*
X33380000Y-54036000D01*
X33778492Y-54036000D01*
X33778495Y-54035999D01*
X33971681Y-53997572D01*
X33971693Y-53997569D01*
X34153671Y-53922192D01*
X34153684Y-53922185D01*
X34317462Y-53812751D01*
X34317466Y-53812748D01*
X34456748Y-53673466D01*
X34456751Y-53673462D01*
X34566185Y-53509684D01*
X34566192Y-53509671D01*
X34641569Y-53327692D01*
X34641569Y-53327690D01*
X34649862Y-53286000D01*
X33846988Y-53286000D01*
X33864205Y-53276060D01*
X33920060Y-53220205D01*
X33959556Y-53151796D01*
X33980000Y-53075496D01*
X33980000Y-52996504D01*
X33959556Y-52920204D01*
X33920060Y-52851795D01*
X33864205Y-52795940D01*
X33846988Y-52786000D01*
X34649862Y-52786000D01*
X34641569Y-52744309D01*
X34641569Y-52744307D01*
X34566192Y-52562328D01*
X34566185Y-52562315D01*
X34456751Y-52398537D01*
X34456748Y-52398533D01*
X34317466Y-52259251D01*
X34317462Y-52259248D01*
X34153684Y-52149814D01*
X34153671Y-52149807D01*
X33971693Y-52074430D01*
X33971681Y-52074427D01*
X33778495Y-52036000D01*
X33380000Y-52036000D01*
X33380000Y-52736000D01*
X32880000Y-52736000D01*
X32880000Y-52180463D01*
X32899685Y-52113424D01*
X32942000Y-52073076D01*
X32953365Y-52066515D01*
X33060515Y-51959365D01*
X33074649Y-51934885D01*
X33081721Y-51922637D01*
X33136279Y-51828138D01*
X33136281Y-51828135D01*
X33175500Y-51681766D01*
X33175500Y-51530234D01*
X33136281Y-51383865D01*
X33060515Y-51252635D01*
X32953365Y-51145485D01*
X32887750Y-51107602D01*
X32822136Y-51069719D01*
X32748950Y-51050109D01*
X32675766Y-51030500D01*
X32524234Y-51030500D01*
X32377863Y-51069719D01*
X32246635Y-51145485D01*
X32246632Y-51145487D01*
X32139487Y-51252632D01*
X32139485Y-51252635D01*
X32063719Y-51383863D01*
X32024500Y-51530234D01*
X32024500Y-51681765D01*
X32063719Y-51828136D01*
X32088360Y-51870814D01*
X32139485Y-51959365D01*
X32139487Y-51959367D01*
X32144432Y-51965811D01*
X32141612Y-51967974D01*
X32167302Y-52015020D01*
X32162318Y-52084712D01*
X32120446Y-52140645D01*
X32111379Y-52146416D01*
X32111387Y-52146427D01*
X31942536Y-52259248D01*
X31803251Y-52398533D01*
X31803248Y-52398537D01*
X31693814Y-52562315D01*
X31693807Y-52562328D01*
X31618430Y-52744307D01*
X31618430Y-52744309D01*
X31610138Y-52786000D01*
X30219862Y-52786000D01*
X30211569Y-52744309D01*
X30211569Y-52744307D01*
X30136192Y-52562328D01*
X30136185Y-52562315D01*
X30026751Y-52398537D01*
X30026748Y-52398533D01*
X29887466Y-52259251D01*
X29887462Y-52259248D01*
X29723684Y-52149814D01*
X29723671Y-52149807D01*
X29541693Y-52074430D01*
X29541681Y-52074427D01*
X29348495Y-52036000D01*
X29200000Y-52036000D01*
X29200000Y-52736000D01*
X28700000Y-52736000D01*
X28700000Y-52036000D01*
X28551504Y-52036000D01*
X28358318Y-52074427D01*
X28358306Y-52074430D01*
X28176328Y-52149807D01*
X28176315Y-52149814D01*
X28012537Y-52259248D01*
X28012533Y-52259251D01*
X27873251Y-52398533D01*
X27873248Y-52398537D01*
X27763814Y-52562315D01*
X27763807Y-52562328D01*
X27688430Y-52744307D01*
X27688430Y-52744309D01*
X27680138Y-52786000D01*
X25500500Y-52786000D01*
X25500500Y-50137153D01*
X41759500Y-50137153D01*
X41759500Y-50294846D01*
X41790261Y-50449489D01*
X41790264Y-50449501D01*
X41850602Y-50595172D01*
X41850609Y-50595185D01*
X41938210Y-50726288D01*
X41938213Y-50726292D01*
X42049707Y-50837786D01*
X42049711Y-50837789D01*
X42180814Y-50925390D01*
X42180827Y-50925397D01*
X42326498Y-50985735D01*
X42326503Y-50985737D01*
X42481153Y-51016499D01*
X42481156Y-51016500D01*
X42481158Y-51016500D01*
X42638844Y-51016500D01*
X42638845Y-51016499D01*
X42793497Y-50985737D01*
X42939179Y-50925394D01*
X43070289Y-50837789D01*
X43181789Y-50726289D01*
X43269394Y-50595179D01*
X43329737Y-50449497D01*
X43360500Y-50294842D01*
X43360500Y-50137158D01*
X43360500Y-50137155D01*
X43360499Y-50137153D01*
X43357442Y-50121786D01*
X43329737Y-49982503D01*
X43286942Y-49879185D01*
X43269397Y-49836827D01*
X43269390Y-49836814D01*
X43181789Y-49705711D01*
X43181786Y-49705707D01*
X43070292Y-49594213D01*
X43070288Y-49594210D01*
X42956484Y-49518168D01*
X42939183Y-49506608D01*
X42939172Y-49506602D01*
X42793501Y-49446264D01*
X42793489Y-49446261D01*
X42667264Y-49421153D01*
X60699500Y-49421153D01*
X60699500Y-49578846D01*
X60730261Y-49733489D01*
X60730264Y-49733501D01*
X60790602Y-49879172D01*
X60790609Y-49879185D01*
X60878210Y-50010288D01*
X60878213Y-50010292D01*
X60989707Y-50121786D01*
X60989711Y-50121789D01*
X61120814Y-50209390D01*
X61120827Y-50209397D01*
X61266498Y-50269735D01*
X61266503Y-50269737D01*
X61392714Y-50294842D01*
X61421153Y-50300499D01*
X61421156Y-50300500D01*
X61421158Y-50300500D01*
X61578844Y-50300500D01*
X61578845Y-50300499D01*
X61733497Y-50269737D01*
X61879179Y-50209394D01*
X62010289Y-50121789D01*
X62121789Y-50010289D01*
X62209394Y-49879179D01*
X62269737Y-49733497D01*
X62300500Y-49578842D01*
X62300500Y-49421158D01*
X62300500Y-49421155D01*
X62300499Y-49421153D01*
X62269738Y-49266510D01*
X62269737Y-49266503D01*
X62269735Y-49266498D01*
X62209397Y-49120827D01*
X62209390Y-49120814D01*
X62121789Y-48989711D01*
X62121786Y-48989707D01*
X62010292Y-48878213D01*
X62010288Y-48878210D01*
X61879185Y-48790609D01*
X61879172Y-48790602D01*
X61733501Y-48730264D01*
X61733489Y-48730261D01*
X61578845Y-48699500D01*
X61578842Y-48699500D01*
X61421158Y-48699500D01*
X61421155Y-48699500D01*
X61266510Y-48730261D01*
X61266498Y-48730264D01*
X61120827Y-48790602D01*
X61120814Y-48790609D01*
X60989711Y-48878210D01*
X60989707Y-48878213D01*
X60878213Y-48989707D01*
X60878210Y-48989711D01*
X60790609Y-49120814D01*
X60790602Y-49120827D01*
X60730264Y-49266498D01*
X60730261Y-49266510D01*
X60699500Y-49421153D01*
X42667264Y-49421153D01*
X42638845Y-49415500D01*
X42638842Y-49415500D01*
X42481158Y-49415500D01*
X42481155Y-49415500D01*
X42326510Y-49446261D01*
X42326498Y-49446264D01*
X42180827Y-49506602D01*
X42180814Y-49506609D01*
X42049711Y-49594210D01*
X42049707Y-49594213D01*
X41938213Y-49705707D01*
X41938210Y-49705711D01*
X41850609Y-49836814D01*
X41850602Y-49836827D01*
X41790264Y-49982498D01*
X41790261Y-49982510D01*
X41759500Y-50137153D01*
X25500500Y-50137153D01*
X25500500Y-46421153D01*
X50699500Y-46421153D01*
X50699500Y-46578846D01*
X50730261Y-46733489D01*
X50730264Y-46733501D01*
X50790602Y-46879172D01*
X50790609Y-46879185D01*
X50878210Y-47010288D01*
X50878213Y-47010292D01*
X50989707Y-47121786D01*
X50989711Y-47121789D01*
X51120814Y-47209390D01*
X51120827Y-47209397D01*
X51266498Y-47269735D01*
X51266503Y-47269737D01*
X51421153Y-47300499D01*
X51421156Y-47300500D01*
X51421158Y-47300500D01*
X51578844Y-47300500D01*
X51578845Y-47300499D01*
X51733497Y-47269737D01*
X51879179Y-47209394D01*
X52010289Y-47121789D01*
X52121789Y-47010289D01*
X52209394Y-46879179D01*
X52269737Y-46733497D01*
X52300500Y-46578842D01*
X52300500Y-46421158D01*
X52300500Y-46421155D01*
X52300499Y-46421153D01*
X52290069Y-46368717D01*
X52269737Y-46266503D01*
X52255358Y-46231789D01*
X52209397Y-46120827D01*
X52209390Y-46120814D01*
X52121789Y-45989711D01*
X52121786Y-45989707D01*
X52010292Y-45878213D01*
X52010288Y-45878210D01*
X51879185Y-45790609D01*
X51879172Y-45790602D01*
X51733501Y-45730264D01*
X51733489Y-45730261D01*
X51578845Y-45699500D01*
X51578842Y-45699500D01*
X51421158Y-45699500D01*
X51421155Y-45699500D01*
X51266510Y-45730261D01*
X51266498Y-45730264D01*
X51120827Y-45790602D01*
X51120814Y-45790609D01*
X50989711Y-45878210D01*
X50989707Y-45878213D01*
X50878213Y-45989707D01*
X50878210Y-45989711D01*
X50790609Y-46120814D01*
X50790602Y-46120827D01*
X50730264Y-46266498D01*
X50730261Y-46266510D01*
X50699500Y-46421153D01*
X25500500Y-46421153D01*
X25500500Y-44146000D01*
X27680138Y-44146000D01*
X28483012Y-44146000D01*
X28465795Y-44155940D01*
X28409940Y-44211795D01*
X28370444Y-44280204D01*
X28350000Y-44356504D01*
X28350000Y-44435496D01*
X28370444Y-44511796D01*
X28409940Y-44580205D01*
X28465795Y-44636060D01*
X28483012Y-44646000D01*
X27680138Y-44646000D01*
X27688430Y-44687690D01*
X27688430Y-44687692D01*
X27763807Y-44869671D01*
X27763814Y-44869684D01*
X27873248Y-45033462D01*
X27873251Y-45033466D01*
X28012533Y-45172748D01*
X28012537Y-45172751D01*
X28176315Y-45282185D01*
X28176328Y-45282192D01*
X28358306Y-45357569D01*
X28358318Y-45357572D01*
X28551504Y-45395999D01*
X28551508Y-45396000D01*
X28700000Y-45396000D01*
X28700000Y-44696000D01*
X29200000Y-44696000D01*
X29200000Y-45396000D01*
X29348492Y-45396000D01*
X29348495Y-45395999D01*
X29541681Y-45357572D01*
X29541693Y-45357569D01*
X29723671Y-45282192D01*
X29723684Y-45282185D01*
X29887462Y-45172751D01*
X29887466Y-45172748D01*
X30026748Y-45033466D01*
X30026751Y-45033462D01*
X30136185Y-44869684D01*
X30136192Y-44869671D01*
X30211569Y-44687692D01*
X30211569Y-44687690D01*
X30219862Y-44646000D01*
X29416988Y-44646000D01*
X29434205Y-44636060D01*
X29490060Y-44580205D01*
X29529556Y-44511796D01*
X29550000Y-44435496D01*
X29550000Y-44356504D01*
X29529556Y-44280204D01*
X29490060Y-44211795D01*
X29434205Y-44155940D01*
X29416988Y-44146000D01*
X30219862Y-44146000D01*
X31610138Y-44146000D01*
X32413012Y-44146000D01*
X32395795Y-44155940D01*
X32339940Y-44211795D01*
X32300444Y-44280204D01*
X32280000Y-44356504D01*
X32280000Y-44435496D01*
X32300444Y-44511796D01*
X32339940Y-44580205D01*
X32395795Y-44636060D01*
X32413012Y-44646000D01*
X31610138Y-44646000D01*
X31618430Y-44687690D01*
X31618430Y-44687692D01*
X31693807Y-44869671D01*
X31693814Y-44869684D01*
X31803248Y-45033462D01*
X31803251Y-45033466D01*
X31942533Y-45172748D01*
X31942537Y-45172751D01*
X32111387Y-45285574D01*
X32110430Y-45287005D01*
X32154425Y-45330211D01*
X32169895Y-45398346D01*
X32146072Y-45464029D01*
X32144309Y-45466094D01*
X32144432Y-45466189D01*
X32139485Y-45472635D01*
X32063719Y-45603863D01*
X32043243Y-45680282D01*
X32024500Y-45750234D01*
X32024500Y-45901766D01*
X32034922Y-45940662D01*
X32063719Y-46048136D01*
X32089513Y-46092812D01*
X32139485Y-46179365D01*
X32246635Y-46286515D01*
X32377865Y-46362281D01*
X32524234Y-46401500D01*
X32524236Y-46401500D01*
X32675764Y-46401500D01*
X32675766Y-46401500D01*
X32822135Y-46362281D01*
X32953365Y-46286515D01*
X33060515Y-46179365D01*
X33136281Y-46048135D01*
X33175500Y-45901766D01*
X33175500Y-45750234D01*
X33136281Y-45603865D01*
X33060515Y-45472635D01*
X32953365Y-45365485D01*
X32941998Y-45358922D01*
X32893783Y-45308354D01*
X32880000Y-45251536D01*
X32880000Y-44696000D01*
X33380000Y-44696000D01*
X33380000Y-45396000D01*
X33778492Y-45396000D01*
X33778495Y-45395999D01*
X33971681Y-45357572D01*
X33971693Y-45357569D01*
X34153671Y-45282192D01*
X34153684Y-45282185D01*
X34317462Y-45172751D01*
X34317466Y-45172748D01*
X34456748Y-45033466D01*
X34456751Y-45033462D01*
X34566185Y-44869684D01*
X34566192Y-44869671D01*
X34641569Y-44687692D01*
X34641569Y-44687690D01*
X34649862Y-44646000D01*
X33846988Y-44646000D01*
X33864205Y-44636060D01*
X33920060Y-44580205D01*
X33959556Y-44511796D01*
X33980000Y-44435496D01*
X33980000Y-44356504D01*
X33959556Y-44280204D01*
X33920060Y-44211795D01*
X33864205Y-44155940D01*
X33846988Y-44146000D01*
X34649862Y-44146000D01*
X34641569Y-44104309D01*
X34641569Y-44104307D01*
X34566192Y-43922328D01*
X34566185Y-43922315D01*
X34456751Y-43758537D01*
X34456748Y-43758533D01*
X34317466Y-43619251D01*
X34317462Y-43619248D01*
X34153684Y-43509814D01*
X34153671Y-43509807D01*
X33971693Y-43434430D01*
X33971681Y-43434427D01*
X33778495Y-43396000D01*
X33380000Y-43396000D01*
X33380000Y-44096000D01*
X32880000Y-44096000D01*
X32880000Y-43396000D01*
X32481504Y-43396000D01*
X32288318Y-43434427D01*
X32288306Y-43434430D01*
X32106328Y-43509807D01*
X32106315Y-43509814D01*
X31942537Y-43619248D01*
X31942533Y-43619251D01*
X31803251Y-43758533D01*
X31803248Y-43758537D01*
X31693814Y-43922315D01*
X31693807Y-43922328D01*
X31618430Y-44104307D01*
X31618430Y-44104309D01*
X31610138Y-44146000D01*
X30219862Y-44146000D01*
X30211569Y-44104309D01*
X30211569Y-44104307D01*
X30136192Y-43922328D01*
X30136185Y-43922315D01*
X30026751Y-43758537D01*
X30026748Y-43758533D01*
X29887466Y-43619251D01*
X29887462Y-43619248D01*
X29723684Y-43509814D01*
X29723671Y-43509807D01*
X29541693Y-43434430D01*
X29541681Y-43434427D01*
X29348495Y-43396000D01*
X29200000Y-43396000D01*
X29200000Y-44096000D01*
X28700000Y-44096000D01*
X28700000Y-43396000D01*
X28551504Y-43396000D01*
X28358318Y-43434427D01*
X28358306Y-43434430D01*
X28176328Y-43509807D01*
X28176315Y-43509814D01*
X28012537Y-43619248D01*
X28012533Y-43619251D01*
X27873251Y-43758533D01*
X27873248Y-43758537D01*
X27763814Y-43922315D01*
X27763807Y-43922328D01*
X27688430Y-44104307D01*
X27688430Y-44104309D01*
X27680138Y-44146000D01*
X25500500Y-44146000D01*
X25500500Y-41171153D01*
X52699500Y-41171153D01*
X52699500Y-41328846D01*
X52730261Y-41483489D01*
X52730264Y-41483501D01*
X52790602Y-41629172D01*
X52790609Y-41629185D01*
X52878210Y-41760288D01*
X52878213Y-41760292D01*
X52989707Y-41871786D01*
X52989711Y-41871789D01*
X53120814Y-41959390D01*
X53120827Y-41959397D01*
X53266498Y-42019735D01*
X53266503Y-42019737D01*
X53421153Y-42050499D01*
X53421156Y-42050500D01*
X53421158Y-42050500D01*
X53578844Y-42050500D01*
X53578845Y-42050499D01*
X53733497Y-42019737D01*
X53879179Y-41959394D01*
X54010289Y-41871789D01*
X54121789Y-41760289D01*
X54209394Y-41629179D01*
X54269737Y-41483497D01*
X54300500Y-41328842D01*
X54300500Y-41171158D01*
X54300500Y-41171155D01*
X54300499Y-41171153D01*
X54296198Y-41149529D01*
X54269737Y-41016503D01*
X54250224Y-40969394D01*
X54209397Y-40870827D01*
X54209390Y-40870814D01*
X54121789Y-40739711D01*
X54121786Y-40739707D01*
X54010292Y-40628213D01*
X54010288Y-40628210D01*
X53879185Y-40540609D01*
X53879172Y-40540602D01*
X53733501Y-40480264D01*
X53733489Y-40480261D01*
X53578845Y-40449500D01*
X53578842Y-40449500D01*
X53421158Y-40449500D01*
X53421155Y-40449500D01*
X53266510Y-40480261D01*
X53266498Y-40480264D01*
X53120827Y-40540602D01*
X53120814Y-40540609D01*
X52989711Y-40628210D01*
X52989707Y-40628213D01*
X52878213Y-40739707D01*
X52878210Y-40739711D01*
X52790609Y-40870814D01*
X52790602Y-40870827D01*
X52730264Y-41016498D01*
X52730261Y-41016510D01*
X52699500Y-41171153D01*
X25500500Y-41171153D01*
X25500500Y-38921153D01*
X37699500Y-38921153D01*
X37699500Y-39078846D01*
X37730261Y-39233489D01*
X37730264Y-39233501D01*
X37790602Y-39379172D01*
X37790609Y-39379185D01*
X37878210Y-39510288D01*
X37878213Y-39510292D01*
X37989707Y-39621786D01*
X37989711Y-39621789D01*
X38120814Y-39709390D01*
X38120827Y-39709397D01*
X38266498Y-39769735D01*
X38266503Y-39769737D01*
X38396982Y-39795691D01*
X38421153Y-39800499D01*
X38421156Y-39800500D01*
X38421158Y-39800500D01*
X38578844Y-39800500D01*
X38578845Y-39800499D01*
X38733497Y-39769737D01*
X38879179Y-39709394D01*
X39010289Y-39621789D01*
X39121789Y-39510289D01*
X39209394Y-39379179D01*
X39269737Y-39233497D01*
X39300500Y-39078842D01*
X39300500Y-38921158D01*
X39300500Y-38921155D01*
X39300499Y-38921153D01*
X39269738Y-38766510D01*
X39269737Y-38766503D01*
X39269735Y-38766498D01*
X39209397Y-38620827D01*
X39209390Y-38620814D01*
X39121789Y-38489711D01*
X39121786Y-38489707D01*
X39010292Y-38378213D01*
X39010288Y-38378210D01*
X38879185Y-38290609D01*
X38879172Y-38290602D01*
X38733501Y-38230264D01*
X38733489Y-38230261D01*
X38578845Y-38199500D01*
X38578842Y-38199500D01*
X38421158Y-38199500D01*
X38421155Y-38199500D01*
X38266510Y-38230261D01*
X38266498Y-38230264D01*
X38120827Y-38290602D01*
X38120814Y-38290609D01*
X37989711Y-38378210D01*
X37989707Y-38378213D01*
X37878213Y-38489707D01*
X37878210Y-38489711D01*
X37790609Y-38620814D01*
X37790602Y-38620827D01*
X37730264Y-38766498D01*
X37730261Y-38766510D01*
X37699500Y-38921153D01*
X25500500Y-38921153D01*
X25500500Y-36171153D01*
X59949500Y-36171153D01*
X59949500Y-36328846D01*
X59980261Y-36483489D01*
X59980264Y-36483501D01*
X60040602Y-36629172D01*
X60040609Y-36629185D01*
X60128210Y-36760288D01*
X60128213Y-36760292D01*
X60239707Y-36871786D01*
X60239711Y-36871789D01*
X60370814Y-36959390D01*
X60370827Y-36959397D01*
X60516498Y-37019735D01*
X60516503Y-37019737D01*
X60671153Y-37050499D01*
X60671156Y-37050500D01*
X60775500Y-37050500D01*
X60842539Y-37070185D01*
X60888294Y-37122989D01*
X60899500Y-37174500D01*
X60899500Y-45913330D01*
X60899499Y-45913348D01*
X60899499Y-46079054D01*
X60899498Y-46079054D01*
X60940424Y-46231789D01*
X60940425Y-46231790D01*
X60958444Y-46262999D01*
X60958445Y-46263000D01*
X61019477Y-46368712D01*
X61019481Y-46368717D01*
X61138349Y-46487585D01*
X61138355Y-46487590D01*
X66165425Y-51514660D01*
X66198910Y-51575983D01*
X66199361Y-51578149D01*
X66230261Y-51733491D01*
X66230264Y-51733501D01*
X66290602Y-51879172D01*
X66290609Y-51879185D01*
X66378210Y-52010288D01*
X66378213Y-52010292D01*
X66489707Y-52121786D01*
X66489711Y-52121789D01*
X66625886Y-52212779D01*
X66624574Y-52214742D01*
X66666959Y-52256355D01*
X66682438Y-52324489D01*
X66658624Y-52390175D01*
X66646359Y-52404461D01*
X66051286Y-52999535D01*
X65939481Y-53111339D01*
X65939479Y-53111342D01*
X65903574Y-53173533D01*
X65903573Y-53173535D01*
X65860423Y-53248271D01*
X65860423Y-53248272D01*
X65819499Y-53401000D01*
X65819499Y-53401002D01*
X65819499Y-53420235D01*
X65799814Y-53487274D01*
X65798601Y-53489126D01*
X65710609Y-53620814D01*
X65710602Y-53620827D01*
X65650264Y-53766498D01*
X65650261Y-53766510D01*
X65619500Y-53921153D01*
X65619500Y-54078846D01*
X65650261Y-54233489D01*
X65650264Y-54233501D01*
X65710602Y-54379172D01*
X65710609Y-54379185D01*
X65798210Y-54510288D01*
X65798213Y-54510292D01*
X65909707Y-54621786D01*
X65909711Y-54621789D01*
X66040814Y-54709390D01*
X66040827Y-54709397D01*
X66091826Y-54730521D01*
X66186503Y-54769737D01*
X66341153Y-54800499D01*
X66341156Y-54800500D01*
X66341158Y-54800500D01*
X66498844Y-54800500D01*
X66498845Y-54800499D01*
X66653497Y-54769737D01*
X66799179Y-54709394D01*
X66930289Y-54621789D01*
X67041789Y-54510289D01*
X67129394Y-54379179D01*
X67150155Y-54329057D01*
X67162266Y-54299819D01*
X67206106Y-54245415D01*
X67272400Y-54223350D01*
X67340100Y-54240629D01*
X67387711Y-54291766D01*
X67395025Y-54309786D01*
X67399499Y-54323893D01*
X67399499Y-54329057D01*
X67440423Y-54481785D01*
X67453986Y-54505276D01*
X67460722Y-54516943D01*
X67460724Y-54516949D01*
X67519475Y-54618709D01*
X67519479Y-54618714D01*
X67519480Y-54618716D01*
X67631284Y-54730520D01*
X67631285Y-54730521D01*
X68131284Y-55230520D01*
X68131286Y-55230521D01*
X68131290Y-55230524D01*
X68268209Y-55309573D01*
X68268216Y-55309577D01*
X68420943Y-55350501D01*
X68420945Y-55350501D01*
X68586654Y-55350501D01*
X68586670Y-55350500D01*
X69663331Y-55350500D01*
X69663347Y-55350501D01*
X69670943Y-55350501D01*
X69829054Y-55350501D01*
X69829057Y-55350501D01*
X69981785Y-55309577D01*
X70031904Y-55280639D01*
X70118716Y-55230520D01*
X70212418Y-55136817D01*
X70273739Y-55103334D01*
X70300098Y-55100500D01*
X73248274Y-55100500D01*
X73248290Y-55100501D01*
X73255886Y-55100501D01*
X73413997Y-55100501D01*
X73414000Y-55100501D01*
X73566728Y-55059577D01*
X73616847Y-55030639D01*
X73703659Y-54980520D01*
X73815463Y-54868716D01*
X73815463Y-54868714D01*
X73825671Y-54858507D01*
X73825673Y-54858504D01*
X75939532Y-52744644D01*
X76000853Y-52711161D01*
X76070545Y-52716145D01*
X76123811Y-52756020D01*
X76124347Y-52755581D01*
X76126136Y-52757761D01*
X76126478Y-52758017D01*
X76127304Y-52759184D01*
X76128213Y-52760292D01*
X76239707Y-52871786D01*
X76239711Y-52871789D01*
X76370814Y-52959390D01*
X76370827Y-52959397D01*
X76516498Y-53019735D01*
X76516503Y-53019737D01*
X76621418Y-53040606D01*
X76671153Y-53050499D01*
X76671156Y-53050500D01*
X76671158Y-53050500D01*
X76828844Y-53050500D01*
X76828845Y-53050499D01*
X76983497Y-53019737D01*
X77129179Y-52959394D01*
X77260289Y-52871789D01*
X77371789Y-52760289D01*
X77459394Y-52629179D01*
X77519737Y-52483497D01*
X77550500Y-52328842D01*
X77550500Y-52171158D01*
X77550500Y-52171155D01*
X77550499Y-52171153D01*
X77544756Y-52142281D01*
X77519737Y-52016503D01*
X77496070Y-51959365D01*
X77459397Y-51870827D01*
X77459390Y-51870814D01*
X77371789Y-51739711D01*
X77371786Y-51739707D01*
X77260292Y-51628213D01*
X77255581Y-51624347D01*
X77257000Y-51622617D01*
X77218623Y-51576683D01*
X77209927Y-51507357D01*
X77240091Y-51444334D01*
X77244627Y-51439549D01*
X82685527Y-45998649D01*
X82746848Y-45965166D01*
X82816540Y-45970150D01*
X82872473Y-46012022D01*
X82876310Y-46017444D01*
X82878211Y-46020290D01*
X82989707Y-46131786D01*
X82989711Y-46131789D01*
X83120814Y-46219390D01*
X83120827Y-46219397D01*
X83234541Y-46266498D01*
X83266503Y-46279737D01*
X83406971Y-46307678D01*
X83421153Y-46310499D01*
X83421156Y-46310500D01*
X83421158Y-46310500D01*
X83578844Y-46310500D01*
X83578845Y-46310499D01*
X83733497Y-46279737D01*
X83879179Y-46219394D01*
X84010289Y-46131789D01*
X84121789Y-46020289D01*
X84209394Y-45889179D01*
X84213938Y-45878210D01*
X84250224Y-45790606D01*
X84269737Y-45743497D01*
X84300500Y-45588842D01*
X84300500Y-45431158D01*
X84300500Y-45431155D01*
X84300499Y-45431153D01*
X84293973Y-45398346D01*
X84269737Y-45276503D01*
X84269735Y-45276498D01*
X84209397Y-45130827D01*
X84209390Y-45130814D01*
X84121789Y-44999711D01*
X84121786Y-44999707D01*
X84010290Y-44888211D01*
X84007444Y-44886310D01*
X84006288Y-44884927D01*
X84005581Y-44884347D01*
X84005691Y-44884212D01*
X83962637Y-44832699D01*
X83953928Y-44763374D01*
X83984081Y-44700346D01*
X83988632Y-44695544D01*
X84944713Y-43739464D01*
X84944716Y-43739463D01*
X85056520Y-43627659D01*
X85106639Y-43540847D01*
X85135577Y-43490728D01*
X85176500Y-43338001D01*
X85176500Y-43179886D01*
X85176500Y-40100117D01*
X85176501Y-40100104D01*
X85176501Y-39932001D01*
X85165591Y-39891284D01*
X85135577Y-39779273D01*
X85130072Y-39769738D01*
X85056524Y-39642347D01*
X85056518Y-39642339D01*
X84987892Y-39573713D01*
X86374500Y-39573713D01*
X86374500Y-39786287D01*
X86376751Y-39800499D01*
X86407753Y-39996239D01*
X86473444Y-40198414D01*
X86569951Y-40387820D01*
X86694890Y-40559786D01*
X86845213Y-40710109D01*
X87017182Y-40835050D01*
X87025946Y-40839516D01*
X87076742Y-40887491D01*
X87093536Y-40955312D01*
X87070998Y-41021447D01*
X87025946Y-41060484D01*
X87017182Y-41064949D01*
X86845213Y-41189890D01*
X86694890Y-41340213D01*
X86569951Y-41512179D01*
X86473444Y-41701585D01*
X86407753Y-41903760D01*
X86398942Y-41959394D01*
X86374500Y-42113713D01*
X86374500Y-42326287D01*
X86407754Y-42536243D01*
X86435235Y-42620821D01*
X86473444Y-42738414D01*
X86569951Y-42927820D01*
X86694890Y-43099786D01*
X86845213Y-43250109D01*
X87017182Y-43375050D01*
X87025946Y-43379516D01*
X87076742Y-43427491D01*
X87093536Y-43495312D01*
X87070998Y-43561447D01*
X87025946Y-43600484D01*
X87017182Y-43604949D01*
X86845213Y-43729890D01*
X86694890Y-43880213D01*
X86569951Y-44052179D01*
X86473444Y-44241585D01*
X86407753Y-44443760D01*
X86379711Y-44620814D01*
X86374500Y-44653713D01*
X86374500Y-44866287D01*
X86383191Y-44921158D01*
X86400978Y-45033466D01*
X86407754Y-45076243D01*
X86464710Y-45251536D01*
X86473444Y-45278414D01*
X86569951Y-45467820D01*
X86694890Y-45639786D01*
X86808818Y-45753714D01*
X86842303Y-45815037D01*
X86837319Y-45884729D01*
X86795447Y-45940662D01*
X86764471Y-45957577D01*
X86632912Y-46006646D01*
X86632906Y-46006649D01*
X86517812Y-46092809D01*
X86517809Y-46092812D01*
X86431649Y-46207906D01*
X86431645Y-46207913D01*
X86381403Y-46342620D01*
X86381401Y-46342627D01*
X86375000Y-46402155D01*
X86375000Y-47050000D01*
X87291988Y-47050000D01*
X87259075Y-47107007D01*
X87225000Y-47234174D01*
X87225000Y-47365826D01*
X87259075Y-47492993D01*
X87291988Y-47550000D01*
X86375000Y-47550000D01*
X86375000Y-48197844D01*
X86381401Y-48257372D01*
X86381403Y-48257379D01*
X86431645Y-48392086D01*
X86431649Y-48392093D01*
X86517809Y-48507187D01*
X86517812Y-48507190D01*
X86632906Y-48593350D01*
X86632913Y-48593354D01*
X86767620Y-48643596D01*
X86767627Y-48643598D01*
X86827155Y-48649999D01*
X86827172Y-48650000D01*
X87475000Y-48650000D01*
X87475000Y-47733012D01*
X87532007Y-47765925D01*
X87659174Y-47800000D01*
X87790826Y-47800000D01*
X87917993Y-47765925D01*
X87975000Y-47733012D01*
X87975000Y-48650000D01*
X88622828Y-48650000D01*
X88622844Y-48649999D01*
X88682372Y-48643598D01*
X88682379Y-48643596D01*
X88817086Y-48593354D01*
X88817093Y-48593350D01*
X88932187Y-48507190D01*
X88932190Y-48507187D01*
X89018350Y-48392093D01*
X89018354Y-48392086D01*
X89068596Y-48257379D01*
X89068598Y-48257372D01*
X89074999Y-48197844D01*
X89075000Y-48197827D01*
X89075000Y-47550000D01*
X88158012Y-47550000D01*
X88190925Y-47492993D01*
X88225000Y-47365826D01*
X88225000Y-47234174D01*
X88190925Y-47107007D01*
X88158012Y-47050000D01*
X89075000Y-47050000D01*
X89075000Y-46402172D01*
X89074999Y-46402155D01*
X89068598Y-46342627D01*
X89068596Y-46342620D01*
X89018354Y-46207913D01*
X89018350Y-46207906D01*
X88932190Y-46092812D01*
X88932187Y-46092809D01*
X88817093Y-46006649D01*
X88817088Y-46006646D01*
X88685528Y-45957577D01*
X88629595Y-45915705D01*
X88605178Y-45850241D01*
X88620030Y-45781968D01*
X88641175Y-45753720D01*
X88755104Y-45639792D01*
X88880051Y-45467816D01*
X88976557Y-45278412D01*
X89042246Y-45076243D01*
X89075500Y-44866287D01*
X89075500Y-44653713D01*
X89042246Y-44443757D01*
X88976557Y-44241588D01*
X88880051Y-44052184D01*
X88880049Y-44052181D01*
X88880048Y-44052179D01*
X88755109Y-43880213D01*
X88604786Y-43729890D01*
X88432820Y-43604951D01*
X88432115Y-43604591D01*
X88424054Y-43600485D01*
X88373259Y-43552512D01*
X88356463Y-43484692D01*
X88378999Y-43418556D01*
X88424054Y-43379515D01*
X88432816Y-43375051D01*
X88483814Y-43337999D01*
X88604786Y-43250109D01*
X88604788Y-43250106D01*
X88604792Y-43250104D01*
X88755104Y-43099792D01*
X88755106Y-43099788D01*
X88755109Y-43099786D01*
X88880048Y-42927820D01*
X88880047Y-42927820D01*
X88880051Y-42927816D01*
X88976557Y-42738412D01*
X89042246Y-42536243D01*
X89075500Y-42326287D01*
X89075500Y-42113713D01*
X89042246Y-41903757D01*
X88976557Y-41701588D01*
X88880051Y-41512184D01*
X88880049Y-41512181D01*
X88880048Y-41512179D01*
X88755109Y-41340213D01*
X88604786Y-41189890D01*
X88432820Y-41064951D01*
X88432115Y-41064591D01*
X88424054Y-41060485D01*
X88373259Y-41012512D01*
X88356463Y-40944692D01*
X88378999Y-40878556D01*
X88424054Y-40839515D01*
X88432816Y-40835051D01*
X88454789Y-40819086D01*
X88604786Y-40710109D01*
X88604788Y-40710106D01*
X88604792Y-40710104D01*
X88755104Y-40559792D01*
X88755106Y-40559788D01*
X88755109Y-40559786D01*
X88880048Y-40387820D01*
X88880047Y-40387820D01*
X88880051Y-40387816D01*
X88976557Y-40198412D01*
X89042246Y-39996243D01*
X89075500Y-39786287D01*
X89075500Y-39573713D01*
X89042246Y-39363757D01*
X88976557Y-39161588D01*
X88880051Y-38972184D01*
X88880049Y-38972181D01*
X88880048Y-38972179D01*
X88755109Y-38800213D01*
X88604786Y-38649890D01*
X88432820Y-38524951D01*
X88243414Y-38428444D01*
X88243413Y-38428443D01*
X88243412Y-38428443D01*
X88041243Y-38362754D01*
X88041241Y-38362753D01*
X88041240Y-38362753D01*
X87879957Y-38337208D01*
X87831287Y-38329500D01*
X87618713Y-38329500D01*
X87570042Y-38337208D01*
X87408760Y-38362753D01*
X87206585Y-38428444D01*
X87017179Y-38524951D01*
X86845213Y-38649890D01*
X86694890Y-38800213D01*
X86569951Y-38972179D01*
X86473444Y-39161585D01*
X86407753Y-39363760D01*
X86384545Y-39510289D01*
X86374500Y-39573713D01*
X84987892Y-39573713D01*
X76568447Y-31154268D01*
X76534962Y-31092945D01*
X76534536Y-31090904D01*
X76519737Y-31016503D01*
X76459794Y-30871786D01*
X76459397Y-30870827D01*
X76459390Y-30870814D01*
X76371789Y-30739711D01*
X76371786Y-30739707D01*
X76260292Y-30628213D01*
X76260288Y-30628210D01*
X76129185Y-30540609D01*
X76129172Y-30540602D01*
X75983501Y-30480264D01*
X75983489Y-30480261D01*
X75828845Y-30449500D01*
X75828842Y-30449500D01*
X75671158Y-30449500D01*
X75671155Y-30449500D01*
X75516510Y-30480261D01*
X75516498Y-30480264D01*
X75370827Y-30540602D01*
X75370814Y-30540609D01*
X75239711Y-30628210D01*
X75239707Y-30628213D01*
X75128213Y-30739707D01*
X75128210Y-30739711D01*
X75040609Y-30870814D01*
X75040602Y-30870827D01*
X74980264Y-31016498D01*
X74980261Y-31016510D01*
X74949500Y-31171153D01*
X74949500Y-31328846D01*
X74980261Y-31483489D01*
X74980264Y-31483501D01*
X75040602Y-31629172D01*
X75040609Y-31629185D01*
X75128210Y-31760288D01*
X75128213Y-31760292D01*
X75239707Y-31871786D01*
X75239711Y-31871789D01*
X75370814Y-31959390D01*
X75370827Y-31959397D01*
X75516498Y-32019735D01*
X75516503Y-32019737D01*
X75671153Y-32050499D01*
X75671156Y-32050500D01*
X75671158Y-32050500D01*
X75714846Y-32050500D01*
X75781885Y-32070185D01*
X75802527Y-32086819D01*
X83163526Y-39447819D01*
X83197011Y-39509142D01*
X83192027Y-39578834D01*
X83150155Y-39634767D01*
X83084691Y-39659184D01*
X83075845Y-39659500D01*
X80969057Y-39659500D01*
X80810942Y-39659500D01*
X80658215Y-39700423D01*
X80658214Y-39700423D01*
X80658212Y-39700424D01*
X80658209Y-39700425D01*
X80608096Y-39729359D01*
X80608095Y-39729360D01*
X80564689Y-39754420D01*
X80521285Y-39779479D01*
X80521282Y-39779481D01*
X76984905Y-43315859D01*
X76923582Y-43349344D01*
X76853890Y-43344360D01*
X76797957Y-43302488D01*
X76773540Y-43237024D01*
X76775607Y-43203986D01*
X76800500Y-43078844D01*
X76800500Y-42921155D01*
X76800499Y-42921153D01*
X76769738Y-42766510D01*
X76769737Y-42766503D01*
X76758102Y-42738414D01*
X76709397Y-42620827D01*
X76709390Y-42620814D01*
X76621789Y-42489711D01*
X76621786Y-42489707D01*
X76510292Y-42378213D01*
X76510288Y-42378210D01*
X76379185Y-42290609D01*
X76379172Y-42290602D01*
X76233501Y-42230264D01*
X76233489Y-42230261D01*
X76078845Y-42199500D01*
X76078842Y-42199500D01*
X75921158Y-42199500D01*
X75921155Y-42199500D01*
X75766510Y-42230261D01*
X75766498Y-42230264D01*
X75620827Y-42290602D01*
X75620814Y-42290609D01*
X75489711Y-42378210D01*
X75489707Y-42378213D01*
X75378213Y-42489707D01*
X75378210Y-42489711D01*
X75290609Y-42620814D01*
X75290602Y-42620827D01*
X75230264Y-42766498D01*
X75230261Y-42766510D01*
X75199500Y-42921153D01*
X75199500Y-43078846D01*
X75230261Y-43233489D01*
X75230264Y-43233501D01*
X75290602Y-43379172D01*
X75290609Y-43379185D01*
X75378210Y-43510288D01*
X75378213Y-43510292D01*
X75489707Y-43621786D01*
X75489711Y-43621789D01*
X75620814Y-43709390D01*
X75620827Y-43709397D01*
X75766498Y-43769735D01*
X75766503Y-43769737D01*
X75921153Y-43800499D01*
X75921156Y-43800500D01*
X75921158Y-43800500D01*
X76078844Y-43800500D01*
X76172682Y-43781834D01*
X76203986Y-43775607D01*
X76273578Y-43781834D01*
X76328755Y-43824697D01*
X76352000Y-43890586D01*
X76335933Y-43958583D01*
X76315859Y-43984905D01*
X76135339Y-44165425D01*
X76074016Y-44198910D01*
X76071850Y-44199361D01*
X75916508Y-44230261D01*
X75916498Y-44230264D01*
X75770827Y-44290602D01*
X75770814Y-44290609D01*
X75639711Y-44378210D01*
X75639707Y-44378213D01*
X75528213Y-44489707D01*
X75528210Y-44489711D01*
X75440609Y-44620814D01*
X75440602Y-44620827D01*
X75380264Y-44766498D01*
X75380261Y-44766508D01*
X75349361Y-44921850D01*
X75316976Y-44983761D01*
X75315425Y-44985339D01*
X74620481Y-45680282D01*
X74620479Y-45680284D01*
X74594329Y-45725578D01*
X74583276Y-45744724D01*
X74541423Y-45817215D01*
X74500499Y-45969943D01*
X74500499Y-45969945D01*
X74500499Y-46014402D01*
X74480814Y-46081441D01*
X74428010Y-46127196D01*
X74358852Y-46137140D01*
X74295296Y-46108115D01*
X74288818Y-46102083D01*
X73636819Y-45450084D01*
X73603334Y-45388761D01*
X73600500Y-45362403D01*
X73600500Y-31829765D01*
X73620185Y-31762726D01*
X73621398Y-31760874D01*
X73709390Y-31629185D01*
X73709390Y-31629184D01*
X73709394Y-31629179D01*
X73769737Y-31483497D01*
X73800500Y-31328842D01*
X73800500Y-31171158D01*
X73800500Y-31171155D01*
X73800499Y-31171153D01*
X73769738Y-31016510D01*
X73769737Y-31016503D01*
X73709794Y-30871786D01*
X73709397Y-30870827D01*
X73709390Y-30870814D01*
X73621789Y-30739711D01*
X73621786Y-30739707D01*
X73510292Y-30628213D01*
X73510288Y-30628210D01*
X73379185Y-30540609D01*
X73379172Y-30540602D01*
X73233501Y-30480264D01*
X73233489Y-30480261D01*
X73078845Y-30449500D01*
X73078842Y-30449500D01*
X72921158Y-30449500D01*
X72921155Y-30449500D01*
X72766510Y-30480261D01*
X72766498Y-30480264D01*
X72620827Y-30540602D01*
X72620814Y-30540609D01*
X72489711Y-30628210D01*
X72489707Y-30628213D01*
X72378213Y-30739707D01*
X72378210Y-30739711D01*
X72290609Y-30870814D01*
X72290602Y-30870827D01*
X72230264Y-31016498D01*
X72230261Y-31016510D01*
X72199500Y-31171153D01*
X72199500Y-31328846D01*
X72230261Y-31483489D01*
X72230264Y-31483501D01*
X72290602Y-31629172D01*
X72290609Y-31629185D01*
X72378602Y-31760874D01*
X72399480Y-31827551D01*
X72399500Y-31829765D01*
X72399500Y-38113444D01*
X72379815Y-38180483D01*
X72327011Y-38226238D01*
X72257853Y-38236182D01*
X72239575Y-38231202D01*
X72239324Y-38232031D01*
X72233500Y-38230264D01*
X72233497Y-38230263D01*
X72233492Y-38230262D01*
X72233489Y-38230261D01*
X72078845Y-38199500D01*
X72078842Y-38199500D01*
X71921158Y-38199500D01*
X71921155Y-38199500D01*
X71766510Y-38230261D01*
X71766498Y-38230264D01*
X71620827Y-38290602D01*
X71620814Y-38290609D01*
X71489711Y-38378210D01*
X71489707Y-38378213D01*
X71378213Y-38489707D01*
X71378210Y-38489711D01*
X71290609Y-38620814D01*
X71290602Y-38620827D01*
X71230264Y-38766498D01*
X71230261Y-38766510D01*
X71199500Y-38921153D01*
X71199500Y-39078846D01*
X71230261Y-39233489D01*
X71230264Y-39233501D01*
X71290602Y-39379172D01*
X71290609Y-39379185D01*
X71378210Y-39510288D01*
X71378213Y-39510292D01*
X71489707Y-39621786D01*
X71489711Y-39621789D01*
X71620814Y-39709390D01*
X71620827Y-39709397D01*
X71766498Y-39769735D01*
X71766503Y-39769737D01*
X71896982Y-39795691D01*
X71921153Y-39800499D01*
X71921156Y-39800500D01*
X71921158Y-39800500D01*
X72078844Y-39800500D01*
X72078845Y-39800499D01*
X72233497Y-39769737D01*
X72233509Y-39769731D01*
X72239324Y-39767969D01*
X72240158Y-39770720D01*
X72297359Y-39764497D01*
X72359878Y-39795691D01*
X72395608Y-39855734D01*
X72399500Y-39886555D01*
X72399500Y-45575830D01*
X72399499Y-45575848D01*
X72399499Y-45741554D01*
X72399498Y-45741554D01*
X72408146Y-45773828D01*
X72440423Y-45894285D01*
X72467898Y-45941873D01*
X72519477Y-46031212D01*
X72519481Y-46031217D01*
X72638349Y-46150085D01*
X72638355Y-46150090D01*
X73439584Y-46951319D01*
X73473069Y-47012642D01*
X73468085Y-47082334D01*
X73426213Y-47138267D01*
X73360749Y-47162684D01*
X73351903Y-47163000D01*
X72057497Y-47163000D01*
X72016576Y-47173964D01*
X72016576Y-47173965D01*
X71979308Y-47183951D01*
X71904771Y-47203923D01*
X71904766Y-47203926D01*
X71767847Y-47282975D01*
X71767839Y-47282981D01*
X71656035Y-47394786D01*
X67904461Y-51146359D01*
X67843138Y-51179844D01*
X67773446Y-51174860D01*
X67717513Y-51132988D01*
X67712930Y-51125784D01*
X67712779Y-51125886D01*
X67621789Y-50989711D01*
X67621786Y-50989707D01*
X67510292Y-50878213D01*
X67510288Y-50878210D01*
X67379185Y-50790609D01*
X67379172Y-50790602D01*
X67233501Y-50730264D01*
X67233491Y-50730261D01*
X67078151Y-50699362D01*
X67016241Y-50666977D01*
X67014662Y-50665426D01*
X62136819Y-45787583D01*
X62103334Y-45726260D01*
X62100500Y-45699902D01*
X62100500Y-30329765D01*
X62105403Y-30312848D01*
X62105285Y-30295652D01*
X62118918Y-30266225D01*
X62119724Y-30263447D01*
X62121608Y-30260469D01*
X62121789Y-30260289D01*
X62181348Y-30171153D01*
X67199500Y-30171153D01*
X67199500Y-30328846D01*
X67230261Y-30483489D01*
X67230264Y-30483501D01*
X67290602Y-30629172D01*
X67290609Y-30629185D01*
X67378210Y-30760288D01*
X67378213Y-30760292D01*
X67489707Y-30871786D01*
X67489711Y-30871789D01*
X67620814Y-30959390D01*
X67620827Y-30959397D01*
X67758683Y-31016498D01*
X67766503Y-31019737D01*
X67831147Y-31032595D01*
X67921849Y-31050638D01*
X67983760Y-31083023D01*
X67985339Y-31084574D01*
X69613181Y-32712416D01*
X69646666Y-32773739D01*
X69649500Y-32800097D01*
X69649500Y-34420234D01*
X69629815Y-34487273D01*
X69628602Y-34489125D01*
X69540609Y-34620814D01*
X69540602Y-34620827D01*
X69480264Y-34766498D01*
X69480261Y-34766510D01*
X69449500Y-34921153D01*
X69449500Y-35078846D01*
X69480261Y-35233489D01*
X69480264Y-35233501D01*
X69540602Y-35379172D01*
X69540609Y-35379185D01*
X69628210Y-35510288D01*
X69628213Y-35510292D01*
X69739707Y-35621786D01*
X69739711Y-35621789D01*
X69870814Y-35709390D01*
X69870827Y-35709397D01*
X69944013Y-35739711D01*
X70016503Y-35769737D01*
X70171153Y-35800499D01*
X70171156Y-35800500D01*
X70171158Y-35800500D01*
X70328844Y-35800500D01*
X70328845Y-35800499D01*
X70483497Y-35769737D01*
X70629179Y-35709394D01*
X70760289Y-35621789D01*
X70871789Y-35510289D01*
X70959394Y-35379179D01*
X71019737Y-35233497D01*
X71050500Y-35078842D01*
X71050500Y-34921158D01*
X71050500Y-34921155D01*
X71050499Y-34921153D01*
X71019738Y-34766510D01*
X71019737Y-34766503D01*
X70996080Y-34709390D01*
X70959397Y-34620827D01*
X70959390Y-34620814D01*
X70871398Y-34489125D01*
X70850520Y-34422447D01*
X70850500Y-34420234D01*
X70850500Y-32589060D01*
X70850501Y-32589047D01*
X70850501Y-32420944D01*
X70809576Y-32268214D01*
X70809573Y-32268209D01*
X70730524Y-32131290D01*
X70730518Y-32131282D01*
X68834573Y-30235337D01*
X68801088Y-30174014D01*
X68800637Y-30171847D01*
X68769738Y-30016510D01*
X68769737Y-30016503D01*
X68756062Y-29983489D01*
X68709397Y-29870827D01*
X68709390Y-29870814D01*
X68621789Y-29739711D01*
X68621786Y-29739707D01*
X68510292Y-29628213D01*
X68510288Y-29628210D01*
X68379185Y-29540609D01*
X68379173Y-29540602D01*
X68352674Y-29529627D01*
X68233501Y-29480264D01*
X68233489Y-29480261D01*
X68078845Y-29449500D01*
X68078842Y-29449500D01*
X67921158Y-29449500D01*
X67921155Y-29449500D01*
X67766510Y-29480261D01*
X67766498Y-29480264D01*
X67620827Y-29540602D01*
X67620814Y-29540609D01*
X67489711Y-29628210D01*
X67489707Y-29628213D01*
X67378213Y-29739707D01*
X67378210Y-29739711D01*
X67290609Y-29870814D01*
X67290602Y-29870827D01*
X67230264Y-30016498D01*
X67230261Y-30016510D01*
X67199500Y-30171153D01*
X62181348Y-30171153D01*
X62209394Y-30129179D01*
X62269737Y-29983497D01*
X62300500Y-29828842D01*
X62300500Y-29671158D01*
X62300500Y-29671155D01*
X62300499Y-29671153D01*
X62274531Y-29540606D01*
X62269737Y-29516503D01*
X62269735Y-29516498D01*
X62230242Y-29421153D01*
X82699500Y-29421153D01*
X82699500Y-29578846D01*
X82730261Y-29733489D01*
X82730264Y-29733501D01*
X82790602Y-29879172D01*
X82790609Y-29879185D01*
X82878210Y-30010288D01*
X82878213Y-30010292D01*
X82989707Y-30121786D01*
X82989711Y-30121789D01*
X83120814Y-30209390D01*
X83120827Y-30209397D01*
X83251317Y-30263447D01*
X83266503Y-30269737D01*
X83396786Y-30295652D01*
X83421153Y-30300499D01*
X83421156Y-30300500D01*
X83421158Y-30300500D01*
X83578844Y-30300500D01*
X83578845Y-30300499D01*
X83733497Y-30269737D01*
X83879179Y-30209394D01*
X84010289Y-30121789D01*
X84121789Y-30010289D01*
X84209394Y-29879179D01*
X84212854Y-29870827D01*
X84267163Y-29739711D01*
X84269737Y-29733497D01*
X84300500Y-29578842D01*
X84300500Y-29421158D01*
X84300500Y-29421155D01*
X84300499Y-29421153D01*
X84269738Y-29266510D01*
X84269737Y-29266503D01*
X84269735Y-29266498D01*
X84209397Y-29120827D01*
X84209390Y-29120814D01*
X84121789Y-28989711D01*
X84121786Y-28989707D01*
X84010292Y-28878213D01*
X84010288Y-28878210D01*
X83879185Y-28790609D01*
X83879172Y-28790602D01*
X83733501Y-28730264D01*
X83733489Y-28730261D01*
X83578845Y-28699500D01*
X83578842Y-28699500D01*
X83421158Y-28699500D01*
X83421155Y-28699500D01*
X83266510Y-28730261D01*
X83266498Y-28730264D01*
X83120827Y-28790602D01*
X83120814Y-28790609D01*
X82989711Y-28878210D01*
X82989707Y-28878213D01*
X82878213Y-28989707D01*
X82878210Y-28989711D01*
X82790609Y-29120814D01*
X82790602Y-29120827D01*
X82730264Y-29266498D01*
X82730261Y-29266510D01*
X82699500Y-29421153D01*
X62230242Y-29421153D01*
X62209397Y-29370827D01*
X62209390Y-29370814D01*
X62121789Y-29239711D01*
X62121786Y-29239707D01*
X62010292Y-29128213D01*
X62010288Y-29128210D01*
X61879185Y-29040609D01*
X61879172Y-29040602D01*
X61733501Y-28980264D01*
X61733489Y-28980261D01*
X61578845Y-28949500D01*
X61578842Y-28949500D01*
X61421158Y-28949500D01*
X61421155Y-28949500D01*
X61266510Y-28980261D01*
X61266498Y-28980264D01*
X61120827Y-29040602D01*
X61120814Y-29040609D01*
X60989711Y-29128210D01*
X60989707Y-29128213D01*
X60878213Y-29239707D01*
X60878210Y-29239711D01*
X60790609Y-29370814D01*
X60790602Y-29370827D01*
X60730264Y-29516498D01*
X60730261Y-29516510D01*
X60699500Y-29671153D01*
X60699500Y-29828846D01*
X60730261Y-29983489D01*
X60730264Y-29983501D01*
X60790602Y-30129172D01*
X60790609Y-30129185D01*
X60878602Y-30260874D01*
X60899480Y-30327551D01*
X60899500Y-30329765D01*
X60899500Y-35325500D01*
X60879815Y-35392539D01*
X60827011Y-35438294D01*
X60775500Y-35449500D01*
X60671155Y-35449500D01*
X60516510Y-35480261D01*
X60516498Y-35480264D01*
X60370827Y-35540602D01*
X60370814Y-35540609D01*
X60239711Y-35628210D01*
X60239707Y-35628213D01*
X60128213Y-35739707D01*
X60128210Y-35739711D01*
X60040609Y-35870814D01*
X60040602Y-35870827D01*
X59980264Y-36016498D01*
X59980261Y-36016510D01*
X59949500Y-36171153D01*
X25500500Y-36171153D01*
X25500500Y-33921153D01*
X37199500Y-33921153D01*
X37199500Y-34078846D01*
X37230261Y-34233489D01*
X37230264Y-34233501D01*
X37290602Y-34379172D01*
X37290609Y-34379185D01*
X37378210Y-34510288D01*
X37378213Y-34510292D01*
X37489707Y-34621786D01*
X37489711Y-34621789D01*
X37620814Y-34709390D01*
X37620827Y-34709397D01*
X37758683Y-34766498D01*
X37766503Y-34769737D01*
X37921153Y-34800499D01*
X37921156Y-34800500D01*
X37921158Y-34800500D01*
X38078844Y-34800500D01*
X38078845Y-34800499D01*
X38233497Y-34769737D01*
X38379179Y-34709394D01*
X38510289Y-34621789D01*
X38621789Y-34510289D01*
X38709394Y-34379179D01*
X38769737Y-34233497D01*
X38782138Y-34171153D01*
X41449500Y-34171153D01*
X41449500Y-34328846D01*
X41480261Y-34483489D01*
X41480264Y-34483501D01*
X41540602Y-34629172D01*
X41540609Y-34629185D01*
X41628210Y-34760288D01*
X41628213Y-34760292D01*
X41739707Y-34871786D01*
X41739711Y-34871789D01*
X41870814Y-34959390D01*
X41870827Y-34959397D01*
X42016498Y-35019735D01*
X42016503Y-35019737D01*
X42171153Y-35050499D01*
X42171156Y-35050500D01*
X42171158Y-35050500D01*
X42328844Y-35050500D01*
X42328845Y-35050499D01*
X42483497Y-35019737D01*
X42629179Y-34959394D01*
X42760289Y-34871789D01*
X42871789Y-34760289D01*
X42959394Y-34629179D01*
X42962854Y-34620827D01*
X43017163Y-34489711D01*
X43019737Y-34483497D01*
X43050500Y-34328842D01*
X43050500Y-34171158D01*
X43050500Y-34171155D01*
X43050499Y-34171153D01*
X43019738Y-34016510D01*
X43019737Y-34016503D01*
X42980242Y-33921153D01*
X42959397Y-33870827D01*
X42959390Y-33870814D01*
X42871789Y-33739711D01*
X42871786Y-33739707D01*
X42760292Y-33628213D01*
X42760288Y-33628210D01*
X42629185Y-33540609D01*
X42629172Y-33540602D01*
X42483501Y-33480264D01*
X42483489Y-33480261D01*
X42328845Y-33449500D01*
X42328842Y-33449500D01*
X42171158Y-33449500D01*
X42171155Y-33449500D01*
X42016510Y-33480261D01*
X42016498Y-33480264D01*
X41870827Y-33540602D01*
X41870814Y-33540609D01*
X41739711Y-33628210D01*
X41739707Y-33628213D01*
X41628213Y-33739707D01*
X41628210Y-33739711D01*
X41540609Y-33870814D01*
X41540602Y-33870827D01*
X41480264Y-34016498D01*
X41480261Y-34016510D01*
X41449500Y-34171153D01*
X38782138Y-34171153D01*
X38788161Y-34140874D01*
X38800500Y-34078844D01*
X38800500Y-33921155D01*
X38800499Y-33921153D01*
X38769738Y-33766510D01*
X38769737Y-33766503D01*
X38769735Y-33766498D01*
X38709397Y-33620827D01*
X38709390Y-33620814D01*
X38621789Y-33489711D01*
X38621786Y-33489707D01*
X38510292Y-33378213D01*
X38510288Y-33378210D01*
X38379185Y-33290609D01*
X38379172Y-33290602D01*
X38233501Y-33230264D01*
X38233489Y-33230261D01*
X38078845Y-33199500D01*
X38078842Y-33199500D01*
X37921158Y-33199500D01*
X37921155Y-33199500D01*
X37766510Y-33230261D01*
X37766498Y-33230264D01*
X37620827Y-33290602D01*
X37620814Y-33290609D01*
X37489711Y-33378210D01*
X37489707Y-33378213D01*
X37378213Y-33489707D01*
X37378210Y-33489711D01*
X37290609Y-33620814D01*
X37290602Y-33620827D01*
X37230264Y-33766498D01*
X37230261Y-33766510D01*
X37199500Y-33921153D01*
X25500500Y-33921153D01*
X25500500Y-27393713D01*
X26149500Y-27393713D01*
X26149500Y-27606286D01*
X26182753Y-27816239D01*
X26248444Y-28018414D01*
X26344951Y-28207820D01*
X26469890Y-28379786D01*
X26620213Y-28530109D01*
X26792179Y-28655048D01*
X26792181Y-28655049D01*
X26792184Y-28655051D01*
X26981588Y-28751557D01*
X27183757Y-28817246D01*
X27393713Y-28850500D01*
X27393714Y-28850500D01*
X27606286Y-28850500D01*
X27606287Y-28850500D01*
X27816243Y-28817246D01*
X28018412Y-28751557D01*
X28207816Y-28655051D01*
X28294138Y-28592335D01*
X28379786Y-28530109D01*
X28379788Y-28530106D01*
X28379792Y-28530104D01*
X28530104Y-28379792D01*
X28530106Y-28379788D01*
X28530109Y-28379786D01*
X28655048Y-28207820D01*
X28655047Y-28207820D01*
X28655051Y-28207816D01*
X28751557Y-28018412D01*
X28817246Y-27816243D01*
X28850500Y-27606287D01*
X28850500Y-27393713D01*
X68279500Y-27393713D01*
X68279500Y-27606286D01*
X68312753Y-27816239D01*
X68378444Y-28018414D01*
X68474951Y-28207820D01*
X68599890Y-28379786D01*
X68750213Y-28530109D01*
X68922179Y-28655048D01*
X68922181Y-28655049D01*
X68922184Y-28655051D01*
X69111588Y-28751557D01*
X69313757Y-28817246D01*
X69523713Y-28850500D01*
X69523714Y-28850500D01*
X69736286Y-28850500D01*
X69736287Y-28850500D01*
X69946243Y-28817246D01*
X70148412Y-28751557D01*
X70337816Y-28655051D01*
X70424138Y-28592335D01*
X70509786Y-28530109D01*
X70509788Y-28530106D01*
X70509792Y-28530104D01*
X70660104Y-28379792D01*
X70660106Y-28379788D01*
X70660109Y-28379786D01*
X70785048Y-28207820D01*
X70785047Y-28207820D01*
X70785051Y-28207816D01*
X70789514Y-28199054D01*
X70837488Y-28148259D01*
X70905308Y-28131463D01*
X70971444Y-28153999D01*
X71010486Y-28199056D01*
X71014951Y-28207820D01*
X71139890Y-28379786D01*
X71290213Y-28530109D01*
X71462179Y-28655048D01*
X71462181Y-28655049D01*
X71462184Y-28655051D01*
X71651588Y-28751557D01*
X71853757Y-28817246D01*
X72063713Y-28850500D01*
X72063714Y-28850500D01*
X72276286Y-28850500D01*
X72276287Y-28850500D01*
X72486243Y-28817246D01*
X72688412Y-28751557D01*
X72877816Y-28655051D01*
X72964138Y-28592335D01*
X73049786Y-28530109D01*
X73049788Y-28530106D01*
X73049792Y-28530104D01*
X73200104Y-28379792D01*
X73200106Y-28379788D01*
X73200109Y-28379786D01*
X73325048Y-28207820D01*
X73325047Y-28207820D01*
X73325051Y-28207816D01*
X73329514Y-28199054D01*
X73377488Y-28148259D01*
X73445308Y-28131463D01*
X73511444Y-28153999D01*
X73550486Y-28199056D01*
X73554951Y-28207820D01*
X73679890Y-28379786D01*
X73830213Y-28530109D01*
X74002179Y-28655048D01*
X74002181Y-28655049D01*
X74002184Y-28655051D01*
X74191588Y-28751557D01*
X74393757Y-28817246D01*
X74603713Y-28850500D01*
X74603714Y-28850500D01*
X74816286Y-28850500D01*
X74816287Y-28850500D01*
X75026243Y-28817246D01*
X75228412Y-28751557D01*
X75417816Y-28655051D01*
X75504138Y-28592335D01*
X75589786Y-28530109D01*
X75589788Y-28530106D01*
X75589792Y-28530104D01*
X75740104Y-28379792D01*
X75740106Y-28379788D01*
X75740109Y-28379786D01*
X75807515Y-28287007D01*
X75865051Y-28207816D01*
X75869793Y-28198508D01*
X75917763Y-28147711D01*
X75985583Y-28130911D01*
X76051719Y-28153445D01*
X76090763Y-28198500D01*
X76095373Y-28207547D01*
X76134728Y-28261716D01*
X76767037Y-27629408D01*
X76784075Y-27692993D01*
X76849901Y-27807007D01*
X76942993Y-27900099D01*
X77057007Y-27965925D01*
X77120590Y-27982962D01*
X76488282Y-28615269D01*
X76488282Y-28615270D01*
X76542449Y-28654624D01*
X76731782Y-28751095D01*
X76933870Y-28816757D01*
X77143754Y-28850000D01*
X77356246Y-28850000D01*
X77566127Y-28816757D01*
X77566130Y-28816757D01*
X77768217Y-28751095D01*
X77957554Y-28654622D01*
X78011716Y-28615270D01*
X78011717Y-28615270D01*
X77379408Y-27982962D01*
X77442993Y-27965925D01*
X77557007Y-27900099D01*
X77650099Y-27807007D01*
X77715925Y-27692993D01*
X77732962Y-27629408D01*
X78403181Y-28299628D01*
X78436666Y-28360951D01*
X78439500Y-28387300D01*
X78439500Y-28397865D01*
X78439501Y-28397876D01*
X78445908Y-28457483D01*
X78496202Y-28592328D01*
X78496206Y-28592335D01*
X78582452Y-28707544D01*
X78582455Y-28707547D01*
X78697664Y-28793793D01*
X78697671Y-28793797D01*
X78832517Y-28844091D01*
X78832516Y-28844091D01*
X78839444Y-28844835D01*
X78892127Y-28850500D01*
X80687872Y-28850499D01*
X80747483Y-28844091D01*
X80882331Y-28793796D01*
X80997546Y-28707546D01*
X81083796Y-28592331D01*
X81134091Y-28457483D01*
X81140500Y-28397873D01*
X81140499Y-27393713D01*
X86149500Y-27393713D01*
X86149500Y-27606286D01*
X86182753Y-27816239D01*
X86248444Y-28018414D01*
X86344951Y-28207820D01*
X86469890Y-28379786D01*
X86620213Y-28530109D01*
X86792179Y-28655048D01*
X86792181Y-28655049D01*
X86792184Y-28655051D01*
X86981588Y-28751557D01*
X87183757Y-28817246D01*
X87393713Y-28850500D01*
X87393714Y-28850500D01*
X87606286Y-28850500D01*
X87606287Y-28850500D01*
X87816243Y-28817246D01*
X88018412Y-28751557D01*
X88207816Y-28655051D01*
X88294138Y-28592335D01*
X88379786Y-28530109D01*
X88379788Y-28530106D01*
X88379792Y-28530104D01*
X88530104Y-28379792D01*
X88530106Y-28379788D01*
X88530109Y-28379786D01*
X88655048Y-28207820D01*
X88655047Y-28207820D01*
X88655051Y-28207816D01*
X88751557Y-28018412D01*
X88817246Y-27816243D01*
X88850500Y-27606287D01*
X88850500Y-27393713D01*
X88817246Y-27183757D01*
X88751557Y-26981588D01*
X88655051Y-26792184D01*
X88655049Y-26792181D01*
X88655048Y-26792179D01*
X88530109Y-26620213D01*
X88379786Y-26469890D01*
X88207820Y-26344951D01*
X88018414Y-26248444D01*
X88018413Y-26248443D01*
X88018412Y-26248443D01*
X87816243Y-26182754D01*
X87816241Y-26182753D01*
X87816240Y-26182753D01*
X87654957Y-26157208D01*
X87606287Y-26149500D01*
X87393713Y-26149500D01*
X87345042Y-26157208D01*
X87183760Y-26182753D01*
X86981585Y-26248444D01*
X86792179Y-26344951D01*
X86620213Y-26469890D01*
X86469890Y-26620213D01*
X86344951Y-26792179D01*
X86248444Y-26981585D01*
X86182753Y-27183760D01*
X86149500Y-27393713D01*
X81140499Y-27393713D01*
X81140499Y-26602128D01*
X81134091Y-26542517D01*
X81083796Y-26407669D01*
X81083795Y-26407668D01*
X81083793Y-26407664D01*
X80997547Y-26292455D01*
X80997544Y-26292452D01*
X80882335Y-26206206D01*
X80882328Y-26206202D01*
X80747482Y-26155908D01*
X80747483Y-26155908D01*
X80687883Y-26149501D01*
X80687881Y-26149500D01*
X80687873Y-26149500D01*
X80687864Y-26149500D01*
X78892129Y-26149500D01*
X78892123Y-26149501D01*
X78832516Y-26155908D01*
X78697671Y-26206202D01*
X78697664Y-26206206D01*
X78582455Y-26292452D01*
X78582452Y-26292455D01*
X78496206Y-26407664D01*
X78496202Y-26407671D01*
X78445908Y-26542517D01*
X78439501Y-26602116D01*
X78439501Y-26602123D01*
X78439500Y-26602135D01*
X78439500Y-26612690D01*
X78419815Y-26679729D01*
X78403181Y-26700371D01*
X77732962Y-27370590D01*
X77715925Y-27307007D01*
X77650099Y-27192993D01*
X77557007Y-27099901D01*
X77442993Y-27034075D01*
X77379409Y-27017037D01*
X78011716Y-26384728D01*
X77957550Y-26345375D01*
X77768217Y-26248904D01*
X77566129Y-26183242D01*
X77356246Y-26150000D01*
X77143754Y-26150000D01*
X76933872Y-26183242D01*
X76933869Y-26183242D01*
X76731782Y-26248904D01*
X76542439Y-26345380D01*
X76488282Y-26384727D01*
X76488282Y-26384728D01*
X77120591Y-27017037D01*
X77057007Y-27034075D01*
X76942993Y-27099901D01*
X76849901Y-27192993D01*
X76784075Y-27307007D01*
X76767037Y-27370591D01*
X76134728Y-26738282D01*
X76134727Y-26738282D01*
X76095380Y-26792440D01*
X76095376Y-26792446D01*
X76090760Y-26801505D01*
X76042781Y-26852297D01*
X75974959Y-26869087D01*
X75908826Y-26846543D01*
X75869794Y-26801493D01*
X75865051Y-26792184D01*
X75865049Y-26792181D01*
X75865048Y-26792179D01*
X75740109Y-26620213D01*
X75589786Y-26469890D01*
X75417820Y-26344951D01*
X75228414Y-26248444D01*
X75228413Y-26248443D01*
X75228412Y-26248443D01*
X75026243Y-26182754D01*
X75026241Y-26182753D01*
X75026240Y-26182753D01*
X74864957Y-26157208D01*
X74816287Y-26149500D01*
X74603713Y-26149500D01*
X74555042Y-26157208D01*
X74393760Y-26182753D01*
X74191585Y-26248444D01*
X74002179Y-26344951D01*
X73830213Y-26469890D01*
X73679890Y-26620213D01*
X73554949Y-26792182D01*
X73550484Y-26800946D01*
X73502509Y-26851742D01*
X73434688Y-26868536D01*
X73368553Y-26845998D01*
X73329516Y-26800946D01*
X73325050Y-26792182D01*
X73200109Y-26620213D01*
X73049786Y-26469890D01*
X72877820Y-26344951D01*
X72688414Y-26248444D01*
X72688413Y-26248443D01*
X72688412Y-26248443D01*
X72486243Y-26182754D01*
X72486241Y-26182753D01*
X72486240Y-26182753D01*
X72324957Y-26157208D01*
X72276287Y-26149500D01*
X72063713Y-26149500D01*
X72015042Y-26157208D01*
X71853760Y-26182753D01*
X71651585Y-26248444D01*
X71462179Y-26344951D01*
X71290213Y-26469890D01*
X71139890Y-26620213D01*
X71014949Y-26792182D01*
X71010484Y-26800946D01*
X70962509Y-26851742D01*
X70894688Y-26868536D01*
X70828553Y-26845998D01*
X70789516Y-26800946D01*
X70785050Y-26792182D01*
X70660109Y-26620213D01*
X70509786Y-26469890D01*
X70337820Y-26344951D01*
X70148414Y-26248444D01*
X70148413Y-26248443D01*
X70148412Y-26248443D01*
X69946243Y-26182754D01*
X69946241Y-26182753D01*
X69946240Y-26182753D01*
X69784957Y-26157208D01*
X69736287Y-26149500D01*
X69523713Y-26149500D01*
X69475042Y-26157208D01*
X69313760Y-26182753D01*
X69111585Y-26248444D01*
X68922179Y-26344951D01*
X68750213Y-26469890D01*
X68599890Y-26620213D01*
X68474951Y-26792179D01*
X68378444Y-26981585D01*
X68312753Y-27183760D01*
X68279500Y-27393713D01*
X28850500Y-27393713D01*
X28817246Y-27183757D01*
X28751557Y-26981588D01*
X28655051Y-26792184D01*
X28655049Y-26792181D01*
X28655048Y-26792179D01*
X28530109Y-26620213D01*
X28379786Y-26469890D01*
X28207820Y-26344951D01*
X28018414Y-26248444D01*
X28018413Y-26248443D01*
X28018412Y-26248443D01*
X27816243Y-26182754D01*
X27816241Y-26182753D01*
X27816240Y-26182753D01*
X27654957Y-26157208D01*
X27606287Y-26149500D01*
X27393713Y-26149500D01*
X27345042Y-26157208D01*
X27183760Y-26182753D01*
X26981585Y-26248444D01*
X26792179Y-26344951D01*
X26620213Y-26469890D01*
X26469890Y-26620213D01*
X26344951Y-26792179D01*
X26248444Y-26981585D01*
X26182753Y-27183760D01*
X26149500Y-27393713D01*
X25500500Y-27393713D01*
X25500500Y-25624500D01*
X25520185Y-25557461D01*
X25572989Y-25511706D01*
X25624500Y-25500500D01*
X89375500Y-25500500D01*
X89442539Y-25520185D01*
G37*
%TD.AperFunction*%
%TD*%
M02*
