%TF.GenerationSoftware,KiCad,Pcbnew,9.0.2*%
%TF.CreationDate,2025-08-19T18:25:56-04:00*%
%TF.ProjectId,GymDevice,47796d44-6576-4696-9365-2e6b69636164,rev?*%
%TF.SameCoordinates,Original*%
%TF.FileFunction,Paste,Top*%
%TF.FilePolarity,Positive*%
%FSLAX46Y46*%
G04 Gerber Fmt 4.6, Leading zero omitted, Abs format (unit mm)*
G04 Created by KiCad (PCBNEW 9.0.2) date 2025-08-19 18:25:56*
%MOMM*%
%LPD*%
G01*
G04 APERTURE LIST*
G04 Aperture macros list*
%AMRoundRect*
0 Rectangle with rounded corners*
0 $1 Rounding radius*
0 $2 $3 $4 $5 $6 $7 $8 $9 X,Y pos of 4 corners*
0 Add a 4 corners polygon primitive as box body*
4,1,4,$2,$3,$4,$5,$6,$7,$8,$9,$2,$3,0*
0 Add four circle primitives for the rounded corners*
1,1,$1+$1,$2,$3*
1,1,$1+$1,$4,$5*
1,1,$1+$1,$6,$7*
1,1,$1+$1,$8,$9*
0 Add four rect primitives between the rounded corners*
20,1,$1+$1,$2,$3,$4,$5,0*
20,1,$1+$1,$4,$5,$6,$7,0*
20,1,$1+$1,$6,$7,$8,$9,0*
20,1,$1+$1,$8,$9,$2,$3,0*%
G04 Aperture macros list end*
%ADD10RoundRect,0.237500X-0.250000X-0.237500X0.250000X-0.237500X0.250000X0.237500X-0.250000X0.237500X0*%
%ADD11RoundRect,0.237500X0.250000X0.237500X-0.250000X0.237500X-0.250000X-0.237500X0.250000X-0.237500X0*%
%ADD12R,1.600000X1.400000*%
%ADD13RoundRect,0.237500X0.300000X0.237500X-0.300000X0.237500X-0.300000X-0.237500X0.300000X-0.237500X0*%
%ADD14RoundRect,0.162500X-0.162500X0.617500X-0.162500X-0.617500X0.162500X-0.617500X0.162500X0.617500X0*%
%ADD15RoundRect,0.237500X-0.300000X-0.237500X0.300000X-0.237500X0.300000X0.237500X-0.300000X0.237500X0*%
%ADD16RoundRect,0.200000X0.200000X0.275000X-0.200000X0.275000X-0.200000X-0.275000X0.200000X-0.275000X0*%
%ADD17RoundRect,0.237500X-0.237500X0.250000X-0.237500X-0.250000X0.237500X-0.250000X0.237500X0.250000X0*%
%ADD18RoundRect,0.237500X0.237500X-0.287500X0.237500X0.287500X-0.237500X0.287500X-0.237500X-0.287500X0*%
%ADD19RoundRect,0.237500X-0.237500X0.300000X-0.237500X-0.300000X0.237500X-0.300000X0.237500X0.300000X0*%
%ADD20RoundRect,0.237500X0.237500X-0.300000X0.237500X0.300000X-0.237500X0.300000X-0.237500X-0.300000X0*%
%ADD21RoundRect,0.237500X-0.237500X0.287500X-0.237500X-0.287500X0.237500X-0.287500X0.237500X0.287500X0*%
%ADD22RoundRect,0.075000X-0.075000X0.662500X-0.075000X-0.662500X0.075000X-0.662500X0.075000X0.662500X0*%
%ADD23RoundRect,0.075000X-0.662500X0.075000X-0.662500X-0.075000X0.662500X-0.075000X0.662500X0.075000X0*%
%ADD24R,1.450000X0.600000*%
%ADD25R,1.450000X0.300000*%
%ADD26RoundRect,0.237500X0.237500X-0.250000X0.237500X0.250000X-0.237500X0.250000X-0.237500X-0.250000X0*%
%ADD27RoundRect,0.250000X-1.500000X0.250000X-1.500000X-0.250000X1.500000X-0.250000X1.500000X0.250000X0*%
%ADD28RoundRect,0.250001X-1.449999X0.499999X-1.449999X-0.499999X1.449999X-0.499999X1.449999X0.499999X0*%
%ADD29RoundRect,0.250000X-0.450000X0.400000X-0.450000X-0.400000X0.450000X-0.400000X0.450000X0.400000X0*%
%ADD30RoundRect,0.250000X-0.625000X0.400000X-0.625000X-0.400000X0.625000X-0.400000X0.625000X0.400000X0*%
%ADD31RoundRect,0.250000X0.475000X-0.337500X0.475000X0.337500X-0.475000X0.337500X-0.475000X-0.337500X0*%
G04 APERTURE END LIST*
D10*
%TO.C,R1*%
X37397500Y-49716000D03*
X39222500Y-49716000D03*
%TD*%
D11*
%TO.C,R5*%
X79662500Y-43750000D03*
X77837500Y-43750000D03*
%TD*%
D12*
%TO.C,SW*%
X58350000Y-30250000D03*
X51150000Y-30250000D03*
X58350000Y-27250000D03*
X51150000Y-27250000D03*
%TD*%
D13*
%TO.C,C12*%
X63862500Y-34250000D03*
X62137500Y-34250000D03*
%TD*%
D14*
%TO.C,U2*%
X50700000Y-51400000D03*
X49750000Y-51400000D03*
X48800000Y-51400000D03*
X48800000Y-54100000D03*
X50700000Y-54100000D03*
%TD*%
D15*
%TO.C,C9*%
X75887500Y-41250000D03*
X77612500Y-41250000D03*
%TD*%
D13*
%TO.C,C13*%
X75862500Y-38500000D03*
X74137500Y-38500000D03*
%TD*%
D16*
%TO.C,FB1*%
X63575000Y-37750000D03*
X61925000Y-37750000D03*
%TD*%
D17*
%TO.C,R9*%
X56000000Y-41837500D03*
X56000000Y-43662500D03*
%TD*%
D18*
%TO.C,D4*%
X58500000Y-53375000D03*
X58500000Y-51625000D03*
%TD*%
D19*
%TO.C,C16*%
X78420000Y-54137500D03*
X78420000Y-55862500D03*
%TD*%
D20*
%TO.C,C11*%
X66000000Y-37862500D03*
X66000000Y-36137500D03*
%TD*%
%TO.C,C5*%
X49500000Y-47112500D03*
X49500000Y-45387500D03*
%TD*%
D21*
%TO.C,D3*%
X58750000Y-35750000D03*
X58750000Y-37500000D03*
%TD*%
D22*
%TO.C,U3*%
X71250000Y-41250000D03*
X70750000Y-41250000D03*
X70250000Y-41250000D03*
X69750000Y-41250000D03*
X69250000Y-41250000D03*
X68750000Y-41250000D03*
X68250000Y-41250000D03*
X67750000Y-41250000D03*
X67250000Y-41250000D03*
X66750000Y-41250000D03*
X66250000Y-41250000D03*
X65750000Y-41250000D03*
D23*
X64337500Y-42662500D03*
X64337500Y-43162500D03*
X64337500Y-43662500D03*
X64337500Y-44162500D03*
X64337500Y-44662500D03*
X64337500Y-45162500D03*
X64337500Y-45662500D03*
X64337500Y-46162500D03*
X64337500Y-46662500D03*
X64337500Y-47162500D03*
X64337500Y-47662500D03*
X64337500Y-48162500D03*
D22*
X65750000Y-49575000D03*
X66250000Y-49575000D03*
X66750000Y-49575000D03*
X67250000Y-49575000D03*
X67750000Y-49575000D03*
X68250000Y-49575000D03*
X68750000Y-49575000D03*
X69250000Y-49575000D03*
X69750000Y-49575000D03*
X70250000Y-49575000D03*
X70750000Y-49575000D03*
X71250000Y-49575000D03*
D23*
X72662500Y-48162500D03*
X72662500Y-47662500D03*
X72662500Y-47162500D03*
X72662500Y-46662500D03*
X72662500Y-46162500D03*
X72662500Y-45662500D03*
X72662500Y-45162500D03*
X72662500Y-44662500D03*
X72662500Y-44162500D03*
X72662500Y-43662500D03*
X72662500Y-43162500D03*
X72662500Y-42662500D03*
%TD*%
D13*
%TO.C,C2*%
X40112500Y-43250000D03*
X38387500Y-43250000D03*
%TD*%
D20*
%TO.C,C14*%
X68500000Y-37112500D03*
X68500000Y-35387500D03*
%TD*%
D24*
%TO.C,J4*%
X34045000Y-45466000D03*
X34045000Y-46266000D03*
D25*
X34045000Y-47466000D03*
X34045000Y-48466000D03*
X34045000Y-48966000D03*
X34045000Y-49966000D03*
D24*
X34045000Y-51166000D03*
X34045000Y-51966000D03*
X34045000Y-51966000D03*
X34045000Y-51166000D03*
D25*
X34045000Y-50466000D03*
X34045000Y-49466000D03*
X34045000Y-47966000D03*
X34045000Y-46966000D03*
D24*
X34045000Y-46266000D03*
X34045000Y-45466000D03*
%TD*%
D26*
%TO.C,R2*%
X50500000Y-36412500D03*
X50500000Y-34587500D03*
%TD*%
D27*
%TO.C,J1*%
X34100000Y-34500000D03*
X34100000Y-36500000D03*
D28*
X28350000Y-32150000D03*
X28350000Y-38850000D03*
%TD*%
D10*
%TO.C,R6*%
X37397500Y-46466000D03*
X39222500Y-46466000D03*
%TD*%
D17*
%TO.C,R8*%
X60000000Y-47837500D03*
X60000000Y-49662500D03*
%TD*%
D19*
%TO.C,C6*%
X49250000Y-56387500D03*
X49250000Y-58112500D03*
%TD*%
%TO.C,C15*%
X84475000Y-49647500D03*
X84475000Y-51372500D03*
%TD*%
D29*
%TO.C,D2*%
X38560000Y-53266000D03*
X38560000Y-56166000D03*
%TD*%
D30*
%TO.C,R10*%
X56000000Y-46200000D03*
X56000000Y-49300000D03*
%TD*%
D11*
%TO.C,R4*%
X72162500Y-37500000D03*
X70337500Y-37500000D03*
%TD*%
D13*
%TO.C,C8*%
X75862500Y-50162500D03*
X74137500Y-50162500D03*
%TD*%
D20*
%TO.C,C10*%
X54250000Y-54862500D03*
X54250000Y-53137500D03*
%TD*%
D11*
%TO.C,R7*%
X62412500Y-40000000D03*
X60587500Y-40000000D03*
%TD*%
D15*
%TO.C,C3*%
X44637500Y-32750000D03*
X46362500Y-32750000D03*
%TD*%
D19*
%TO.C,C7*%
X63000000Y-50137500D03*
X63000000Y-51862500D03*
%TD*%
%TO.C,C4*%
X42750000Y-36137500D03*
X42750000Y-37862500D03*
%TD*%
D21*
%TO.C,D1*%
X50500000Y-38625000D03*
X50500000Y-40375000D03*
%TD*%
D11*
%TO.C,R3*%
X46162500Y-41750000D03*
X44337500Y-41750000D03*
%TD*%
D13*
%TO.C,C17*%
X60112500Y-42250000D03*
X58387500Y-42250000D03*
%TD*%
D14*
%TO.C,U1*%
X46950000Y-36150000D03*
X46000000Y-36150000D03*
X45050000Y-36150000D03*
X45050000Y-38850000D03*
X46950000Y-38850000D03*
%TD*%
D31*
%TO.C,C1*%
X42560000Y-55753500D03*
X42560000Y-53678500D03*
%TD*%
M02*
